<?xml version="1.0" standalone="no"?>
<!DOCTYPE svg PUBLIC "-//W3C//DTD SVG 1.1//EN" "http://www.w3.org/Graphics/SVG/1.1/DTD/svg11.dtd" >
<svg xmlns="http://www.w3.org/2000/svg" xmlns:xlink="http://www.w3.org/1999/xlink" version="1.1">
<metadata>
Created by FontForge 20170731 at Fri Mar 27 19:34:53 2020
 By Aleksey,,,
Copyright (c) 2014 ParaType Inc., ParaType Ltd. All rights reserved.
</metadata>
<defs>
<font id="TKT-Regular" horiz-adv-x="500" >
  <font-face 
    font-family="TKT"
    font-weight="400"
    font-stretch="normal"
    units-per-em="1000"
    panose-1="2 11 5 4 2 2 2 2 2 4"
    ascent="800"
    descent="-200"
    x-height="500"
    cap-height="690"
    bbox="-344 -243 3054 969"
    underline-thickness="50"
    underline-position="-350"
    unicode-range="U+000D-1F4F1"
  />
<missing-glyph horiz-adv-x="250" 
 />
    <glyph glyph-name="fi" unicode="fi" horiz-adv-x="465" 
d="M21 428v72h64v36q0 84 34 119t118 35h23v-76h-20q-46 0 -60.5 -19.5t-14.5 -78.5v-16h235v-500h-80v428h-155v-428h-80v428h-64z" />
    <glyph glyph-name="fl" unicode="fl" horiz-adv-x="510" 
d="M320 154v460h-80q-46 0 -60.5 -19.5t-14.5 -78.5v-16h95v-72h-95v-428h-80v428h-64v72h64v36q0 84 34 119t118 35h163v-516q0 -40 11 -70q17 -30 74 -30v-74q-90 0 -127.5 35.5t-37.5 118.5z" />
    <glyph glyph-name=".notdef" horiz-adv-x="250" 
 />
    <glyph glyph-name=".null" horiz-adv-x="0" 
 />
    <glyph glyph-name="nonmarkingreturn" horiz-adv-x="1000" 
 />
    <glyph glyph-name="uni000D" unicode="&#xd;" horiz-adv-x="333" 
 />
    <glyph glyph-name="space" unicode=" " horiz-adv-x="320" 
 />
    <glyph glyph-name="exclam" unicode="!" horiz-adv-x="216" 
d="M65 690h86v-501h-86v501zM156 0h-96v96h96v-96z" />
    <glyph glyph-name="quotedbl" unicode="&#x22;" horiz-adv-x="322" 
d="M40 690h86v-169h-86v169zM196 690h86v-169h-86v169z" />
    <glyph glyph-name="numbersign" unicode="#" horiz-adv-x="605" 
d="M18 416v78h130l37 196h87l-37 -196h150l37 196h88l-37 -196h108v-78h-123l-24 -132h110v-78h-125l-38 -206h-87l38 206h-150l-38 -206h-88l38 206h-113v78h128l24 132h-115zM371 416h-150l-25 -132h150z" />
    <glyph glyph-name="dollar" unicode="$" 
d="M291 616v-235q103 -19 150.5 -65t47.5 -130q0 -73 -49 -128q-49 -57 -149 -64v-110h-74v110q-137 12 -206 113l71 49q34 -40 64 -59t71 -25v242q-191 38 -191 197q0 78 49.5 127.5t141.5 57.5v116h74v-116q121 -13 186 -113l-67 -48q-53 71 -119 81zM291 300v-228
q112 13 112 110q0 47 -26 75t-86 43zM217 397v221q-49 -6 -77 -34t-28 -73t25 -72t80 -42z" />
    <glyph glyph-name="percent" unicode="%" horiz-adv-x="725" 
d="M705 192v-43q0 -74 -37.5 -115.5t-107.5 -41.5q-68 0 -105.5 42t-37.5 115v43q0 73 38 114t105 41q69 0 107 -40.5t38 -114.5zM560 52q39 0 60.5 26t21.5 72v40q0 96 -82 96q-38 0 -58.5 -25t-20.5 -71v-40q0 -98 79 -98zM313 543v-43q0 -74 -37.5 -115.5t-107.5 -41.5
q-68 0 -105.5 42t-37.5 115v43q0 73 38 114t105 41q69 0 107 -40.5t38 -114.5zM168 403q39 0 60.5 26t21.5 72v40q0 96 -82 96q-38 0 -58.5 -25t-20.5 -71v-40q0 -98 79 -98zM125 0l386 690h83l-385 -690h-84z" />
    <glyph glyph-name="ampersand" unicode="&#x26;" horiz-adv-x="653" 
d="M45 186q0 112 121 203q-71 86 -71 154q0 69 47 112t122 43q80 0 123.5 -37t43.5 -98q0 -56 -49 -101q-19 -18 -44 -39q-22 -17 -57 -40l181 -197q32 62 32 136h78q0 -111 -55 -196l116 -126h-113l-57 62q-79 -70 -200 -70q-101 0 -159.5 55.5t-58.5 138.5zM263 70
q88 0 147 50l-195 215q-88 -70 -88 -148q0 -54 37.5 -85.5t98.5 -31.5zM181 543q0 -47 52 -108q10 7 58 40q54 41 54 82t-41 57.5t-82 -3.5t-41 -68z" />
    <glyph glyph-name="quotesingle" unicode="'" horiz-adv-x="166" 
d="M40 690h86v-169h-86v169z" />
    <glyph glyph-name="parenleft" unicode="(" horiz-adv-x="317" 
d="M287 -52l-50 -64q-99 73 -133 130.5t-34 147.5v372q0 90 34 147.5t133 130.5l50 -64q-82 -60 -109 -106q-28 -46 -28 -127v-334q0 -82 28 -128q29 -46 109 -105z" />
    <glyph glyph-name="parenright" unicode=")" horiz-adv-x="317" 
d="M80 -116l-50 64q80 58 108 105q29 50 29 128v334q0 80 -29 127q-30 48 -108 106l50 64q99 -73 133 -130.5t34 -147.5v-372q0 -90 -34 -147.5t-133 -130.5z" />
    <glyph glyph-name="asterisk" unicode="*" horiz-adv-x="416" 
d="M174 690h68l-3 -121l103 63l34 -59l-106 -58l106 -57l-34 -59l-103 62l3 -120h-68l3 120l-103 -62l-34 59l105 57l-105 58l34 59l103 -63z" />
    <glyph glyph-name="plus" unicode="+" 
d="M213 318h-158v72h158v159h72v-159h159v-72h-159v-158h-72v158z" />
    <glyph glyph-name="comma" unicode="," horiz-adv-x="216" 
d="M60 116h96v-175l-96 -83v258z" />
    <glyph glyph-name="hyphen" unicode="-" horiz-adv-x="319" 
d="M289 253h-259v72h259v-72z" />
    <glyph glyph-name="period" unicode="." horiz-adv-x="236" 
d="M60 116h116v-116h-116v116z" />
    <glyph glyph-name="slash" unicode="/" horiz-adv-x="485" 
d="M460 812l-336 -928h-77l336 928h77z" />
    <glyph glyph-name="zero" unicode="0" 
d="M448 499v-308q0 -89 -57 -144t-141 -55t-141 55t-57 145v306q0 90 57 145t141 55t141 -55t57 -144zM362 191v308q0 53 -32 87t-80 34q-49 0 -81 -34t-32 -87v-308q0 -53 32 -87t81 -34q48 0 80 34t32 87z" />
    <glyph glyph-name="one" unicode="1" 
d="M223 690h86v-690h-86v591l-99 -71v94z" />
    <glyph glyph-name="two" unicode="2" 
d="M151 78h292v-78h-405v72l243 287q78 91 78 154q0 48 -32 78t-80 30q-49 0 -80.5 -29t-32.5 -79h-85q0 82 56.5 133.5t141.5 51.5q86 0 141 -52q57 -51 57 -137q0 -33 -17 -75q-17 -40 -33 -59q-23 -30 -45 -56l-9 -11z" />
    <glyph glyph-name="three" unicode="3" 
d="M229 317h-43v78h43q130 0 130 122q0 43 -32 73.5t-80 30.5q-47 0 -79 -28t-34 -71h-84q0 79 58 127q58 49 139 49q87 0 142 -52q56 -51 56 -131q0 -51 -27.5 -92.5t-75.5 -64.5q113 -47 113 -170q0 -80 -56 -139q-55 -57 -145 -57q-94 0 -151 49t-62 132h84
q7 -48 40.5 -75.5t88.5 -27.5q49 0 82 33.5t33 82.5q0 63 -36 97t-104 34z" />
    <glyph glyph-name="four" unicode="4" 
d="M20 175l243 515h85l-228 -500h199v203h86v-203h63v-78h-63v-112h-86v112h-299v63z" />
    <glyph glyph-name="five" unicode="5" 
d="M248 382q-62 0 -98 -51h-79v359h350v-86h-267v-181q40 45 110 45q92 0 139 -65t47 -188q0 -105 -53 -164t-149 -59q-79 0 -134 49q-54 48 -59 121h84q10 -44 38.5 -68t70.5 -24q116 0 116 145q0 167 -116 167z" />
    <glyph glyph-name="six" unicode="6" 
d="M239 690h96l-133 -304q23 14 65 14q81 0 131 -57q50 -59 50 -145q0 -90 -56 -149q-56 -57 -143 -57t-143 56t-56 146q0 48 47 160zM249 326q-54 0 -84.5 -40t-30.5 -88t30.5 -88t84.5 -40q44 0 73.5 26.5t36 64t-0.5 75t-36.5 64t-72.5 26.5z" />
    <glyph glyph-name="seven" unicode="7" 
d="M134 612v-121h-78v199h388v-78l-219 -612h-91l220 612h-220z" />
    <glyph glyph-name="eight" unicode="8" 
d="M42 194q0 54 30 99.5t75 64.5q-43 21 -69 62t-26 88q0 85 58 137q59 53 140 53q82 0 140 -54t58 -136q0 -47 -26.5 -88t-69.5 -62q46 -18 76 -64t30 -100q0 -89 -62 -146q-62 -56 -146 -56t-146 56q-62 57 -62 146zM128 194q0 -51 35 -88q35 -36 87 -36t86 36
q36 38 36 88q0 52 -37.5 87.5t-84.5 35.5t-85 -35q-37 -34 -37 -88zM250 394q46 0 79 33q33 35 33 81t-33 79t-79 33q-47 0 -80 -32.5t-33 -79.5q0 -46 33 -81q33 -33 80 -33z" />
    <glyph glyph-name="nine" unicode="9" 
d="M261 0h-96l133 304q-23 -14 -65 -14q-81 0 -131 57q-50 59 -50 145q0 94 55 149q55 57 144 57q87 0 143 -56t56 -146q0 -48 -47 -160zM251 364q54 0 84.5 40t30.5 88t-30.5 88t-84.5 40q-44 0 -73.5 -26.5t-36 -64t0.5 -75t36.5 -64t72.5 -26.5z" />
    <glyph glyph-name="colon" unicode=":" horiz-adv-x="216" 
d="M60 500h96v-96h-96v96zM60 96h96v-96h-96v96z" />
    <glyph glyph-name="semicolon" unicode=";" horiz-adv-x="216" 
d="M60 500h96v-96h-96v96zM60 96h96v-175l-96 -83v258z" />
    <glyph glyph-name="less" unicode="&#x3c;" 
d="M392 580v-90l-242 -134l242 -134v-90l-325 183v82z" />
    <glyph glyph-name="equal" unicode="=" 
d="M444 400h-389v72h389v-72zM444 236h-389v72h389v-72z" />
    <glyph glyph-name="greater" unicode="&#x3e;" 
d="M102 222l242 134l-242 134v90l325 -183v-82l-325 -183v90z" />
    <glyph glyph-name="question" unicode="?" horiz-adv-x="486" 
d="M284 226v-37h-80v77q0 44 29 70l49 44q43 40 60.5 69t17.5 64q0 48 -32 78t-80 30q-49 0 -80.5 -29t-32.5 -79h-85q0 82 56.5 133.5t141.5 51.5q86 0 141 -52q57 -51 57 -137q0 -37 -18 -75q-16 -37 -36 -58q-8 -9 -50 -51l-29 -28q-18 -17 -23.5 -31t-5.5 -40zM292 0
h-96v96h96v-96z" />
    <glyph glyph-name="at" unicode="@" horiz-adv-x="898" 
d="M540 484h80v-259q0 -95 71 -95q87 0 87 146q0 84 -28.5 152.5t-78.5 107.5q-95 77 -222 77q-80 0 -146 -29.5t-105 -80.5q-78 -101 -78 -227q0 -159 97 -247q98 -89 237 -89q117 0 220 50l31 -57q-23 -22 -98 -43q-67 -22 -158 -22q-157 0 -281 104q-60 52 -94 131.5
t-34 172.5q0 122 57 216.5t151 144.5q90 47 201 47.5t202 -46.5q90 -46 149 -142q58 -94 58 -220q0 -103 -43.5 -160.5t-125.5 -57.5q-42 0 -74 18t-47 51q-30 -69 -129 -69q-80 0 -124 51t-44 139v52q0 90 44.5 139.5t123.5 49.5q65 0 101 -33v28zM446 130q50 0 72 29.5
t22 92.5v55q0 110 -94 110q-95 0 -95 -121v-44q0 -122 95 -122z" />
    <glyph glyph-name="A" unicode="A" horiz-adv-x="580" 
d="M154 158l-53 -158h-91l240 690h80l240 -690h-91l-53 158h-272zM399 236l-109 324l-109 -324h218z" />
    <glyph glyph-name="B" unicode="B" horiz-adv-x="596" 
d="M85 0v690h211q238 0 238 -176q0 -54 -32 -98t-82 -56q65 -12 100.5 -54t35.5 -108q0 -84 -58 -141q-57 -57 -180 -57h-233zM302 319h-131v-241h147q152 0 152 120q0 62 -41 91.5t-127 29.5zM296 613h-125v-216h140q67 0 102 30.5t35 86.5q0 52 -35 75.5t-117 23.5z" />
    <glyph glyph-name="C" unicode="C" horiz-adv-x="578" 
d="M548 475h-84q-17 76 -56.5 110.5t-107.5 34.5q-84 0 -124 -57.5t-40 -179.5v-76q0 -122 40 -179.5t124 -57.5q68 0 107.5 35t56.5 110h83q-15 -110 -78.5 -166.5t-168.5 -56.5q-250 0 -250 315v76q0 315 250 315q105 0 168.5 -56.5t79.5 -166.5z" />
    <glyph glyph-name="D" unicode="D" horiz-adv-x="605" 
d="M305 0h-220v690h220q250 0 250 -309v-72q0 -309 -250 -309zM171 78h134q85 0 124.5 55t39.5 176v72q0 121 -39.5 176t-124.5 55h-134v-534z" />
    <glyph glyph-name="E" unicode="E" horiz-adv-x="541" 
d="M85 0v690h416v-78h-330v-216h300v-78h-300v-240h330v-78h-416z" />
    <glyph glyph-name="F" unicode="F" horiz-adv-x="531" 
d="M85 0v690h416v-78h-330v-232h300v-78h-300v-302h-86z" />
    <glyph glyph-name="G" unicode="G" horiz-adv-x="604" 
d="M303 269v78h251v-40q0 -157 -65 -236t-189 -79q-250 0 -250 315v76q0 315 250 315q105 0 168.5 -56.5t79.5 -166.5h-84q-30 145 -164 145q-84 0 -124 -57.5t-40 -179.5v-76q0 -122 40 -179.5t124 -57.5q154 0 167 199h-164z" />
    <glyph glyph-name="H" unicode="H" horiz-adv-x="638" 
d="M85 690h86v-294h296v294h86v-690h-86v318h-296v-318h-86v690z" />
    <glyph glyph-name="I" unicode="I" horiz-adv-x="276" 
d="M95 690h86v-690h-86v690z" />
    <glyph glyph-name="J" unicode="J" horiz-adv-x="505" 
d="M5 78l74 42q38 -50 109 -50q76 0 111 50t35 164v406h86v-406q0 -292 -232 -292q-129 0 -183 86z" />
    <glyph glyph-name="K" unicode="K" horiz-adv-x="638" 
d="M355 413l278 -413h-103l-232 344l-127 -156v-188h-86v690h86v-371l300 371h111z" />
    <glyph glyph-name="L" unicode="L" horiz-adv-x="501" 
d="M85 690h86v-612h330v-78h-416v690z" />
    <glyph glyph-name="M" unicode="M" horiz-adv-x="752" 
d="M85 690h84l207 -430l206 430h85v-690h-86v506l-168 -362h-77l-165 359v-503h-86v690z" />
    <glyph glyph-name="N" unicode="N" horiz-adv-x="638" 
d="M467 163v527h86v-690h-84l-298 522v-522h-86v690h82z" />
    <glyph glyph-name="O" unicode="O" horiz-adv-x="600" 
d="M550 383v-76q0 -315 -250 -315t-250 315v76q0 315 250 315t250 -315zM136 383v-76q0 -122 40 -179.5t124 -57.5t124 57.5t40 179.5v76q0 122 -40 179.5t-124 57.5t-124 -57.5t-40 -179.5z" />
    <glyph glyph-name="P" unicode="P" horiz-adv-x="588" 
d="M305 263h-134v-263h-86v690h220q119 0 185 -56.5t66 -157.5q0 -100 -66 -156.5t-185 -56.5zM171 612v-271h134q165 0 165 135q0 136 -165 136h-134z" />
    <glyph glyph-name="Q" unicode="Q" horiz-adv-x="600" 
d="M550 383v-76q0 -114 -38 -195l90 -85l-53 -56l-83 77q-62 -56 -166 -56q-250 0 -250 315v76q0 315 250 315t250 -315zM136 383v-76q0 -122 40 -179.5t124 -57.5q64 0 105 35l-100 94l55 58l87 -83q17 57 17 133v76q0 122 -40 179.5t-124 57.5t-124 -57.5t-40 -179.5z" />
    <glyph glyph-name="R" unicode="R" horiz-adv-x="604" 
d="M420 306l154 -306h-96l-144 291h-163v-291h-86v690h220q123 0 187 -51t64 -149q0 -144 -136 -184zM171 612v-243h134q88 0 126.5 28.5t38.5 92.5q0 65 -38.5 93.5t-126.5 28.5h-134z" />
    <glyph glyph-name="S" unicode="S" horiz-adv-x="571" 
d="M511 585l-67 -48q-34 45 -71 64t-93 19q-64 0 -99 -27.5t-35 -80.5q0 -55 37 -83.5t126 -44.5q112 -19 163 -65.5t51 -133.5q0 -85 -61 -139t-171 -54q-168 0 -246 113l71 49q39 -47 77 -65.5t98 -18.5q146 0 146 111q0 55 -37 85t-126 44q-214 33 -214 202
q0 85 58.5 135.5t164.5 50.5q154 0 228 -113z" />
    <glyph glyph-name="T" unicode="T" horiz-adv-x="516" 
d="M5 612v78h506v-78h-210v-612h-86v612h-210z" />
    <glyph glyph-name="U" unicode="U" horiz-adv-x="670" 
d="M499 280v410h86v-409q0 -143 -64 -216t-186 -73t-186 72.5t-64 215.5v410h86v-410q0 -108 40 -159t124 -51t124 51t40 159z" />
    <glyph glyph-name="V" unicode="V" horiz-adv-x="601" 
d="M260 0l-250 690h95l194 -550l197 550h95l-250 -690h-81z" />
    <glyph glyph-name="W" unicode="W" horiz-adv-x="842" 
d="M577 0l-157 536l-156 -536h-86l-168 690h90l125 -542l152 542h85l155 -545l125 545h90l-168 -690h-87z" />
    <glyph glyph-name="X" unicode="X" horiz-adv-x="552" 
d="M276 271l-161 -271h-95l206 356l-185 334h95l140 -256l140 256h95l-186 -334l207 -356h-95z" />
    <glyph glyph-name="Y" unicode="Y" horiz-adv-x="556" 
d="M235 296l-215 394h101l157 -300l157 300h101l-215 -394v-296h-86v296z" />
    <glyph glyph-name="Z" unicode="Z" horiz-adv-x="519" 
d="M30 612v78h449v-58l-338 -554h348v-78h-459v58l337 554h-337z" />
    <glyph glyph-name="bracketleft" unicode="[" horiz-adv-x="335" 
d="M275 -102h-205v894h205v-72h-125v-750h125v-72z" />
    <glyph glyph-name="backslash" unicode="\" horiz-adv-x="485" 
d="M383 -116l-336 928h77l336 -928h-77z" />
    <glyph glyph-name="bracketright" unicode="]" horiz-adv-x="335" 
d="M60 720v72h205v-894h-205v72h125v750h-125z" />
    <glyph glyph-name="asciicircum" unicode="^" 
d="M31 437l174 253h88l176 -253h-90l-129 190l-129 -190h-90z" />
    <glyph glyph-name="underscore" unicode="_" horiz-adv-x="526" 
d="M0 -155v62h526v-62h-526z" />
    <glyph glyph-name="grave" unicode="`" horiz-adv-x="319" 
d="M76 725h96l70 -158h-75z" />
    <glyph glyph-name="a" unicode="a" horiz-adv-x="491" 
d="M40 146q0 143 187 143h119v58q0 50 -24 68.5t-87 18.5q-52 0 -76 -10t-44 -41l-60 42q27 45 68.5 64t112.5 19q101 0 145.5 -37.5t44.5 -123.5v-347h-80v49q-20 -33 -47.5 -45t-79.5 -12q-86 0 -132.5 40.5t-46.5 113.5zM346 192v29h-119q-56 0 -81.5 -18.5t-25.5 -58.5
q0 -78 99 -78q63 0 95 24q32 26 32 102z" />
    <glyph glyph-name="b" unicode="b" horiz-adv-x="521" 
d="M65 690h80v-240q42 58 136 58t147 -58.5t53 -165.5v-66q0 -104 -52 -165q-50 -59 -146 -61.5t-138 52.5v-44h-80v690zM273 64q59 0 93.5 42.5t34.5 111.5v66q0 72 -33.5 112t-94.5 40q-60 0 -94 -38.5t-34 -106.5v-73q0 -72 33 -113t95 -41z" />
    <glyph glyph-name="c" unicode="c" horiz-adv-x="444" 
d="M367 120l62 -44q-45 -84 -173 -84q-101 0 -158.5 60.5t-57.5 165.5v66q0 106 57 165t159 59q118 0 173 -78l-63 -44q-35 50 -110 50q-64 0 -100 -40.5t-36 -111.5v-66q0 -72 35 -113t101 -41q82 0 111 56z" />
    <glyph glyph-name="d" unicode="d" horiz-adv-x="521" 
d="M376 450v240h80v-690h-80v44q-40 -52 -136 -52q-95 0 -147.5 60.5t-52.5 165.5v66q0 106 53 165t146.5 59.5t136.5 -58.5zM248 64q62 0 95 39t33 108v73q0 71 -33.5 111.5t-94.5 40.5t-94.5 -40t-33.5 -112v-66q0 -69 34.5 -111.5t93.5 -42.5z" />
    <glyph glyph-name="e" unicode="e" horiz-adv-x="488" 
d="M367 120l62 -44q-26 -45 -67.5 -64.5t-107.5 -19.5q-100 0 -157 60.5t-57 165.5v66q0 108 51 166t147 58q98 0 148 -57.5t50 -166.5v-52h-316v-14q0 -71 33.5 -112.5t94.5 -41.5q87 0 119 56zM238 436q-110 0 -118 -134h235q-6 134 -117 134z" />
    <glyph glyph-name="f" unicode="f" horiz-adv-x="285" 
d="M21 428v72h64v36q0 84 34 119t118 35h23v-76h-20q-46 0 -60.5 -19.5t-14.5 -78.5v-16h95v-72h-95v-428h-80v428h-64z" />
    <glyph glyph-name="g" unicode="g" horiz-adv-x="521" 
d="M376 450v50h80v-490q0 -101 -55.5 -153.5t-158.5 -52.5q-66 0 -107.5 19.5t-67.5 64.5l62 44q32 -56 119 -56q128 0 128 134v34q-40 -52 -136 -52q-95 0 -147.5 60.5t-52.5 165.5v66q0 106 53 165t146.5 59.5t136.5 -58.5zM248 64q62 0 95 41t33 113v66q0 71 -33.5 111.5
t-94.5 40.5t-94.5 -40t-33.5 -112v-66q0 -69 34.5 -111.5t93.5 -42.5z" />
    <glyph glyph-name="h" unicode="h" horiz-adv-x="526" 
d="M145 0h-80v690h80v-239q21 31 51 44t83 13q88 0 135 -49t47 -147v-312h-80v311q0 123 -114 123q-54 0 -88 -34t-34 -88v-312z" />
    <glyph glyph-name="i" unicode="i" horiz-adv-x="240" 
d="M165 600h-90v90h90v-90zM160 0h-80v500h80v-500z" />
    <glyph glyph-name="j" unicode="j" horiz-adv-x="235" 
d="M85 500h80v-536q0 -83 -37.5 -118.5t-127.5 -35.5v74q61 0 73 31q12 23 12 69v516zM170 600h-90v90h90v-90z" />
    <glyph glyph-name="k" unicode="k" horiz-adv-x="487" 
d="M145 296l202 204h104l-216 -221l247 -279h-104l-202 218l-31 -33v-185h-80v690h80v-394z" />
    <glyph glyph-name="l" unicode="l" horiz-adv-x="274" 
d="M65 154v536h80v-516q0 -40 11 -70q16 -30 74 -30v-74q-90 0 -127.5 35.5t-37.5 118.5z" />
    <glyph glyph-name="m" unicode="m" horiz-adv-x="802" 
d="M145 0h-80v500h80v-49q37 57 124 57q103 0 146 -79q51 79 150 79q82 0 127 -50.5t45 -145.5v-312h-80v311q0 123 -104 123q-48 0 -80 -34.5t-32 -87.5v-312h-80v311q0 123 -104 123q-48 0 -80 -35t-32 -87v-312z" />
    <glyph glyph-name="n" unicode="n" horiz-adv-x="526" 
d="M145 0h-80v500h80v-49q21 31 51 44t83 13q88 0 135 -49t47 -147v-312h-80v311q0 123 -114 123q-54 0 -88 -34t-34 -88v-312z" />
    <glyph glyph-name="o" unicode="o" horiz-adv-x="496" 
d="M456 284v-66q0 -106 -53.5 -166t-154.5 -60q-98 0 -153 60t-55 166v66q0 106 55 165t153 59q99 0 153.5 -58.5t54.5 -165.5zM248 64q59 0 93.5 42.5t34.5 111.5v66q0 72 -33.5 112t-94.5 40t-94.5 -40.5t-33.5 -111.5v-66q0 -72 33 -113t95 -41z" />
    <glyph glyph-name="p" unicode="p" horiz-adv-x="521" 
d="M145 500v-50q42 58 136 58t147 -58.5t53 -165.5v-66q0 -105 -52.5 -165.5t-147.5 -60.5q-94 0 -136 58v-240h-80v690h80zM273 64q59 0 93.5 42.5t34.5 111.5v66q0 72 -33.5 112t-94.5 40q-60 0 -94 -38.5t-34 -106.5v-73q0 -72 33 -113t95 -41z" />
    <glyph glyph-name="q" unicode="q" horiz-adv-x="521" 
d="M376 450v50h80v-690h-80v234q-40 -52 -136 -52q-95 0 -147.5 60.5t-52.5 165.5v66q0 106 53 165t146.5 59.5t136.5 -58.5zM248 64q62 0 95 39t33 108v73q0 71 -33.5 111.5t-94.5 40.5t-94.5 -40t-33.5 -112v-66q0 -69 34.5 -111.5t93.5 -42.5z" />
    <glyph glyph-name="r" unicode="r" horiz-adv-x="394" 
d="M404 440l-68 -48q-30 42 -84 42q-48 0 -77.5 -33.5t-29.5 -87.5v-313h-80v500h80v-49q35 57 116 57q95 0 143 -68z" />
    <glyph glyph-name="s" unicode="s" horiz-adv-x="466" 
d="M406 425l-60 -42q-21 28 -48.5 39.5t-75.5 11.5q-45 0 -71 -17.5t-26 -49.5q0 -71 116 -79q79 -6 124 -34q56 -32 56 -115q0 -70 -48 -108.5t-140 -38.5q-133 0 -193 83l59 42q21 -27 51.5 -39t83.5 -12q50 0 78.5 18.5t28.5 52.5q0 40 -28 57.5t-101 22.5
q-167 12 -167 149q0 66 47.5 104t131.5 38q129 0 182 -83z" />
    <glyph glyph-name="t" unicode="t" horiz-adv-x="315" 
d="M85 428h-64v72h64v110h80v-110h115v-72h-115v-254q0 -59 14.5 -78.5t60.5 -19.5h40v-76h-43q-84 0 -118 35t-34 119v274z" />
    <glyph glyph-name="u" unicode="u" horiz-adv-x="526" 
d="M381 500h80v-500h-80v49q-21 -31 -51 -44t-83 -13q-88 0 -135 49t-47 147v312h80v-311q0 -123 114 -123q54 0 88 34t34 88v312z" />
    <glyph glyph-name="v" unicode="v" horiz-adv-x="504" 
d="M252 102l152 398h90l-200 -500h-80l-204 500h90z" />
    <glyph glyph-name="w" unicode="w" horiz-adv-x="716" 
d="M491 0l-133 374l-133 -374h-70l-145 500h85l100 -351l126 351h67l133 -354l100 354h85l-145 -500h-70z" />
    <glyph glyph-name="x" unicode="x" horiz-adv-x="478" 
d="M286 256l182 -256h-94l-135 186l-135 -186h-94l182 256l-162 244h94l115 -177l115 177h94z" />
    <glyph glyph-name="y" unicode="y" horiz-adv-x="466" 
d="M199 -12l2 7l-196 505h86l149 -388l131 388h85l-176 -516l-20 -55q-23 -57 -47 -77q-48 -42 -141 -42v78q54 0 79 19q27 18 48 81z" />
    <glyph glyph-name="z" unicode="z" horiz-adv-x="450" 
d="M41 0v62l264 366h-264v72h369v-62l-262 -366h262v-72h-369z" />
    <glyph glyph-name="braceleft" unicode="{" horiz-adv-x="317" 
d="M180 629v-213q0 -55 -45 -70q45 -15 45 -70v-213q0 -51 18 -68.5t66 -17.5h23v-72h-23q-83 0 -124 32q-40 31 -40 123v198q0 28 -11.5 40t-38.5 12h-19v72h19q27 0 38.5 12t11.5 40v198q0 92 40 123q41 32 124 32h23v-72h-23q-48 0 -66 -17.5t-18 -68.5z" />
    <glyph glyph-name="bar" unicode="|" horiz-adv-x="255" 
d="M85 812h74v-928h-74v928z" />
    <glyph glyph-name="braceright" unicode="}" horiz-adv-x="317" 
d="M138 416v213q0 51 -18 68.5t-66 17.5h-23v72h23q83 0 124 -32q40 -31 40 -123v-198q0 -28 11.5 -40t38.5 -12h19v-72h-19q-27 0 -38.5 -12t-11.5 -40v-198q0 -92 -40 -123q-41 -32 -124 -32h-23v72h23q48 0 66 17.5t18 68.5v213q0 55 45 70q-45 15 -45 70z" />
    <glyph glyph-name="asciitilde" unicode="~" 
d="M333 277q-41 0 -92 23q-49 23 -75 23q-60 0 -100 -48l-56 46q62 74 156 74q42 0 91 -23q51 -23 76 -23q59 0 100 48l56 -46q-62 -74 -156 -74z" />
    <glyph glyph-name="uni00A0" unicode="&#xa0;" horiz-adv-x="250" 
 />
    <glyph glyph-name="exclamdown" unicode="&#xa1;" horiz-adv-x="216" 
d="M60 500h96v-96h-96v96zM151 -190h-86v501h86v-501z" />
    <glyph glyph-name="cent" unicode="&#xa2;" 
d="M367 120l62 -44q-37 -71 -137 -82v-110h-74v111q-84 10 -131 69.5t-47 153.5v66q0 95 47 152.5t131 68.5v117h74v-117q91 -11 137 -75l-63 -44q-35 50 -110 50q-64 0 -100 -40.5t-36 -111.5v-66q0 -72 35 -113t101 -41q82 0 111 56z" />
    <glyph glyph-name="sterling" unicode="&#xa3;" 
d="M459 0h-437v78h71v240h-71v78h71v10q0 292 210 292q119 0 173 -86l-74 -42q-38 50 -99 50q-66 0 -95 -49.5t-29 -164.5v-10h156v-78h-156v-240h280v-78z" />
    <glyph glyph-name="currency" unicode="&#xa4;" 
d="M50 366q0 60 32 110l-68 68l57 57l67 -68q52 34 111 34q61 0 110 -34l69 69l57 -57l-69 -69q34 -49 34 -110q0 -59 -34 -111l69 -68l-57 -57l-69 68q-50 -32 -110 -32q-61 0 -110 33l-68 -68l-57 57l68 68q-32 47 -32 110zM168 449q-32 -35 -32 -83t32 -83q33 -34 81 -34
t81 34q34 34 34 83t-34 83q-33 35 -81 35t-81 -35z" />
    <glyph glyph-name="yen" unicode="&#xa5;" 
d="M57 146v78h140v72h-140v78h97l-129 316h93l122 -311l139 311h96l-150 -316h98v-78h-140v-72h140v-78h-140v-146h-86v146h-140z" />
    <glyph glyph-name="brokenbar" unicode="&#xa6;" horiz-adv-x="246" 
d="M80 690h86v-243h-86v243zM80 243h86v-243h-86v243z" />
    <glyph glyph-name="section" unicode="&#xa7;" horiz-adv-x="499" 
d="M79 -47h86q4 -35 23 -50.5t60 -15.5q43 0 65.5 18t22.5 50q0 33 -24.5 54t-81.5 37q-2 0 -15 4t-21 6q-48 15 -69 31q-41 32 -54 59q-21 48 -21 104q0 119 101 163q-79 43 -79 129q0 66 48 107.5t126 41.5q164 0 169 -144h-86q-4 35 -23 50.5t-60 15.5q-43 0 -65.5 -18
t-22.5 -50q0 -33 24.5 -54t81.5 -37l35 -11q9 -2 34 -12q24 -11 35 -18q42 -31 55 -56q21 -43 21 -99v-8q0 -59 -27 -101.5t-75 -62.5q80 -41 80 -128q0 -66 -48 -107.5t-126 -41.5q-164 0 -169 144zM357 250v17q0 44 -30.5 69t-79.5 25q-53 0 -82 -29.5t-29 -81.5v-15
q0 -45 30 -70.5t81 -25.5q52 0 81 29t29 82z" />
    <glyph glyph-name="dieresis" unicode="&#xa8;" horiz-adv-x="413" 
d="M146 600h-90v90h90v-90zM356 600h-90v90h90v-90z" />
    <glyph glyph-name="copyright" unicode="&#xa9;" horiz-adv-x="980" 
d="M178 -62q-128 128 -128 312t128 312q131 128 312 128q183 0 311 -128q129 -128 129 -312t-129 -312q-128 -128 -311 -128q-181 0 -312 128zM234 511q-104 -107 -104 -261t104 -261q105 -108 256 -108q152 0 255 108q105 107 105 261t-105 261q-104 107 -255 107
t-256 -107zM609 120l62 -44q-45 -84 -173 -84q-101 0 -158.5 60.5t-57.5 165.5v66q0 106 57 165t159 59q118 0 173 -78l-63 -44q-35 50 -110 50q-64 0 -100 -40.5t-36 -111.5v-66q0 -72 35 -113t101 -41q82 0 111 56z" />
    <glyph glyph-name="ordfeminine" unicode="&#xaa;" horiz-adv-x="316" 
d="M25 466q0 92 118 92h75v28q0 32 -15.5 44.5t-54.5 12.5q-30 0 -45.5 -7.5t-28.5 -28.5l-42 30q34 55 117 55q63 0 93 -24t30 -77v-217h-54v30q-12 -20 -29 -27t-51 -7q-55 0 -84 25t-29 71zM218 496v16h-72q-36 0 -51.5 -11.5t-15.5 -36.5q0 -45 62 -45q41 0 59 17.5
t18 59.5z" />
    <glyph glyph-name="guillemotleft" unicode="&#xab;" horiz-adv-x="519" 
d="M262 52l-232 231l232 231v-102l-130 -129l130 -129v-102zM464 52l-232 231l232 231v-102l-130 -129l130 -129v-102z" />
    <glyph glyph-name="logicalnot" unicode="&#xac;" 
d="M457 392v-205h-74v127h-359v78h433z" />
    <glyph glyph-name="uni00AD" unicode="&#xad;" horiz-adv-x="319" 
d="M289 253h-259v72h259v-72z" />
    <glyph glyph-name="registered" unicode="&#xae;" horiz-adv-x="576" 
d="M109 322q-74 77 -74 179q0 104 74 178q75 75 179 75t178 -75q75 -73 75 -178q0 -104 -75 -179q-74 -74 -178 -74q-102 0 -179 74zM149 639q-57 -57 -57 -138t57 -139q59 -57 139 -57q81 0 138 57q58 58 58 139t-58 138q-57 58 -138 58t-139 -58zM238 471v-97h-52v261h107
q46 0 71.5 -22t25.5 -57q0 -58 -56 -78l69 -104h-59l-64 97h-42zM238 590v-75h44q56 0 56 40q0 35 -51 35h-49z" />
    <glyph glyph-name="overscore" unicode="&#xaf;" horiz-adv-x="398" 
d="M333 600h-269v72h269v-72z" />
    <glyph glyph-name="degree" unicode="&#xb0;" horiz-adv-x="308" 
d="M59 463q-39 39 -39 96t39 95q39 39 95 39t95 -39q39 -38 39 -95t-39 -96q-41 -38 -95 -38t-95 38zM88 559q0 -43 32.5 -60t65.5 0t33 60q0 42 -32.5 59t-65.5 -0.5t-33 -58.5z" />
    <glyph glyph-name="plusminus" unicode="&#xb1;" 
d="M214 358h-158v72h158v159h72v-159h159v-72h-159v-128h-72v128zM445 128h-389v72h389v-72z" />
    <glyph glyph-name="uni00B2" unicode="&#xb2;" horiz-adv-x="278" 
d="M109 424h136v-50h-207v50l107 102q40 39 40 70q0 21 -12.5 34t-31.5 13q-21 0 -35 -13t-15 -34h-52q0 42 29.5 69.5t72.5 27.5q45 0 71.5 -24.5t26.5 -68.5q0 -52 -54 -103z" />
    <glyph glyph-name="uni00B3" unicode="&#xb3;" horiz-adv-x="301" 
d="M127 512h-19v50h19q59 0 59 43q0 18 -12 28t-31 10q-41 0 -49 -38h-54q0 32 20.5 55t50 29t58.5 1.5t49.5 -26.5t20.5 -55q0 -49 -52 -71q26 -7 42 -27t16 -48q0 -44 -32 -68.5t-70.5 -24.5t-71.5 24.5t-35 66.5h55q7 -40 52 -40q48 0 48 44q0 47 -64 47z" />
    <glyph glyph-name="acute" unicode="&#xb4;" horiz-adv-x="365" 
d="M174 567h-75l70 158h96z" />
    <glyph glyph-name="uni00B5" unicode="&#x3bc;" 
d="M134 21v-158h-80v637h80v-309q0 -125 114 -125q54 0 88 34t34 88v312h80v-500h-80v49q-21 -31 -51 -44t-83 -13q-67 0 -102 29z" />
    <glyph glyph-name="uni00B5" unicode="&#xb5;" 
d="M134 21v-158h-80v637h80v-309q0 -125 114 -125q54 0 88 34t34 88v312h80v-500h-80v49q-21 -31 -51 -44t-83 -13q-67 0 -102 29z" />
    <glyph glyph-name="paragraph" unicode="&#xb6;" horiz-adv-x="595" 
d="M235 690h260v-880h-86v802h-88v-802h-86v500q-80 0 -135 55t-55 135q0 79 55 134q56 56 135 56z" />
    <glyph glyph-name="middot" unicode="&#xb7;" horiz-adv-x="216" 
d="M60 396h96v-96h-96v96z" />
    <glyph glyph-name="cedilla" unicode="&#xb8;" horiz-adv-x="343" 
d="M120 -69l19 94l57 -3l-13 -45q62 -17 62 -74q0 -38 -30 -60t-81 -22q-25 0 -37 3l12 52q3 -1 19 -1q47 0 47 28t-55 28z" />
    <glyph glyph-name="uni00B9" unicode="&#xb9;" horiz-adv-x="277" 
d="M127 690h54v-316h-54v254l-57 -41v60z" />
    <glyph glyph-name="ordmasculine" unicode="&#xba;" horiz-adv-x="337" 
d="M301 555v-45q0 -64 -35 -101.5t-98 -37.5q-61 0 -96.5 37.5t-35.5 101.5v45q0 65 35.5 101.5t96.5 36.5q62 0 97.5 -36.5t35.5 -101.5zM168 421q37 0 58 23.5t21 65.5v45q0 88 -79 88q-78 0 -78 -88v-45q0 -89 78 -89z" />
    <glyph glyph-name="guillemotright" unicode="&#xbb;" horiz-adv-x="519" 
d="M55 412v102l232 -231l-232 -231v102l130 129zM257 412v102l232 -231l-232 -231v102l130 129z" />
    <glyph glyph-name="onequarter" unicode="&#xbc;" horiz-adv-x="604" 
d="M10 0l475 690h79l-474 -690h-80zM111 690h54v-316h-54v254l-57 -41v60zM309 104l131 212h64l-123 -205h85v56h54v-56h39v-50h-39v-61h-54v61h-157v43z" />
    <glyph glyph-name="onehalf" unicode="&#xbd;" horiz-adv-x="605" 
d="M429 50h136v-50h-207v50l107 102q40 39 40 70q0 21 -12.5 34t-31.5 13q-21 0 -35 -13t-15 -34h-52q0 42 29.5 69.5t72.5 27.5q45 0 71.5 -24.5t26.5 -68.5q0 -52 -54 -103zM10 0l475 690h79l-474 -690h-80zM111 690h54v-316h-54v254l-57 -41v60z" />
    <glyph glyph-name="threequarters" unicode="&#xbe;" horiz-adv-x="604" 
d="M109 512h-19v50h19q59 0 59 43q0 18 -12 28t-31 10q-41 0 -49 -38h-54q0 32 20.5 55t50 29t58.5 1.5t49.5 -26.5t20.5 -55q0 -49 -52 -71q26 -7 42 -27t16 -48q0 -44 -32 -68.5t-70.5 -24.5t-71.5 24.5t-35 66.5h55q7 -40 52 -40q48 0 48 44q0 47 -64 47zM10 0l475 690
h79l-474 -690h-80zM309 104l131 212h64l-123 -205h85v56h54v-56h39v-50h-39v-61h-54v61h-157v43z" />
    <glyph glyph-name="questiondown" unicode="&#xbf;" horiz-adv-x="486" 
d="M212 274v37h80v-77q0 -44 -29 -70l-49 -44q-43 -40 -60.5 -69t-17.5 -64q0 -48 32 -78t80 -30q49 0 80.5 29t32.5 79h85q0 -82 -56.5 -133.5t-141.5 -51.5q-87 0 -142 52q-56 51 -56 137q0 35 17 75q18 38 36 57q3 3 20 20.5t31 31.5l29 28q18 18 23.5 31.5t5.5 39.5z
M300 404h-96v96h96v-96z" />
    <glyph glyph-name="Agrave" unicode="&#xc0;" horiz-adv-x="580" 
d="M141 876h100l80 -129h-77zM154 158l-53 -158h-91l240 690h80l240 -690h-91l-53 158h-272zM399 236l-109 324l-109 -324h218z" />
    <glyph glyph-name="Aacute" unicode="&#xc1;" horiz-adv-x="580" 
d="M333 747h-77l80 129h100zM154 158l-53 -158h-91l240 690h80l240 -690h-91l-53 158h-272zM399 236l-109 324l-109 -324h218z" />
    <glyph glyph-name="Acircumflex" unicode="&#xc2;" horiz-adv-x="580" 
d="M106 737l138 142h92l138 -142h-97l-87 91l-87 -91h-97zM154 158l-53 -158h-91l240 690h80l240 -690h-91l-53 158h-272zM399 236l-109 324l-109 -324h218z" />
    <glyph glyph-name="Atilde" unicode="&#xc3;" horiz-adv-x="580" 
d="M348 762q-24 0 -59 13q-39 14 -56 14q-33 0 -59 -26l-47 49q44 50 106 50q18 0 58 -14q35 -13 58 -13q31 0 57 26l47 -49q-44 -50 -105 -50zM154 158l-53 -158h-91l240 690h80l240 -690h-91l-53 158h-272zM399 236l-109 324l-109 -324h218z" />
    <glyph glyph-name="Adieresis" unicode="&#xc4;" horiz-adv-x="580" 
d="M230 779h-90v90h90v-90zM440 779h-90v90h90v-90zM154 158l-53 -158h-91l240 690h80l240 -690h-91l-53 158h-272zM399 236l-109 324l-109 -324h218z" />
    <glyph glyph-name="Aring" unicode="&#xc5;" horiz-adv-x="580" 
d="M154 158l-53 -158h-91l226 650q-55 27 -55 87q0 44 30.5 71.5t78.5 27.5t79 -27.5t31 -71.5q0 -61 -56 -87l226 -650h-91l-53 158h-272zM233 737q0 -22 18 -34.5t39 -12.5t39 12.5t18 34.5q3 30 -27 42t-60 -0.5t-27 -41.5zM399 236l-109 324l-109 -324h218z" />
    <glyph glyph-name="AE" unicode="&#xc6;" horiz-adv-x="857" 
d="M195 158l-88 -158h-97l391 690h416v-78h-330v-216h300v-78h-300v-240h330v-78h-416v158h-206zM401 528l-163 -292h163v292z" />
    <glyph glyph-name="Ccedilla" unicode="&#xc7;" horiz-adv-x="578" 
d="M268 -69l12 62q-230 11 -230 314v76q0 315 250 315q105 0 168.5 -56.5t79.5 -166.5h-84q-17 76 -56.5 110.5t-107.5 34.5q-84 0 -124 -57.5t-40 -179.5v-76q0 -122 40 -179.5t124 -57.5q68 0 107.5 35t56.5 110h83q-29 -203 -211 -221l-5 -17q62 -17 62 -74
q0 -38 -30 -60t-81 -22q-25 0 -37 3l12 52q3 -1 19 -1q47 0 47 28t-55 28z" />
    <glyph glyph-name="Egrave" unicode="&#xc8;" horiz-adv-x="541" 
d="M173 876h100l80 -129h-77zM85 0v690h416v-78h-330v-216h300v-78h-300v-240h330v-78h-416z" />
    <glyph glyph-name="Eacute" unicode="&#xc9;" horiz-adv-x="541" 
d="M322 747h-77l80 129h100zM85 0v690h416v-78h-330v-216h300v-78h-300v-240h330v-78h-416z" />
    <glyph glyph-name="Ecircumflex" unicode="&#xca;" horiz-adv-x="541" 
d="M109 737l138 142h92l138 -142h-97l-87 91l-87 -91h-97zM85 0v690h416v-78h-330v-216h300v-78h-300v-240h330v-78h-416z" />
    <glyph glyph-name="Edieresis" unicode="&#xcb;" horiz-adv-x="541" 
d="M233 779h-90v90h90v-90zM443 779h-90v90h90v-90zM85 0v690h416v-78h-330v-216h300v-78h-300v-240h330v-78h-416z" />
    <glyph glyph-name="Igrave" unicode="&#xcc;" horiz-adv-x="276" 
d="M2 876h100l80 -129h-77zM95 690h86v-690h-86v690z" />
    <glyph glyph-name="Iacute" unicode="&#xcd;" horiz-adv-x="276" 
d="M172 747h-77l80 129h100zM95 690h86v-690h-86v690z" />
    <glyph glyph-name="Icircumflex" unicode="&#xce;" horiz-adv-x="276" 
d="M-46 737l138 142h92l138 -142h-97l-87 91l-87 -91h-97zM95 690h86v-690h-86v690z" />
    <glyph glyph-name="Idieresis" unicode="&#xcf;" horiz-adv-x="276" 
d="M78 779h-90v90h90v-90zM288 779h-90v90h90v-90zM95 690h86v-690h-86v690z" />
    <glyph glyph-name="Eth" unicode="&#xd0;" horiz-adv-x="613" 
d="M313 0h-220v318h-103v78h103v294h220q250 0 250 -309v-72q0 -309 -250 -309zM179 78h134q85 0 124.5 55t39.5 176v72q0 121 -39.5 176t-124.5 55h-134v-216h180v-78h-180v-240z" />
    <glyph glyph-name="Ntilde" unicode="&#xd1;" horiz-adv-x="638" 
d="M377 762q-24 0 -59 13q-39 14 -56 14q-33 0 -59 -26l-47 49q44 50 106 50q19 0 58 -14q33 -13 58 -13q31 0 57 26l47 -49q-44 -50 -105 -50zM467 163v527h86v-690h-84l-298 522v-522h-86v690h82z" />
    <glyph glyph-name="Ograve" unicode="&#xd2;" horiz-adv-x="600" 
d="M550 383v-76q0 -315 -250 -315t-250 315v76q0 315 250 315t250 -315zM136 383v-76q0 -122 40 -179.5t124 -57.5t124 57.5t40 179.5v76q0 122 -40 179.5t-124 57.5t-124 -57.5t-40 -179.5zM180 876h100l80 -129h-77z" />
    <glyph glyph-name="Oacute" unicode="&#xd3;" horiz-adv-x="600" 
d="M550 383v-76q0 -315 -250 -315t-250 315v76q0 315 250 315t250 -315zM136 383v-76q0 -122 40 -179.5t124 -57.5t124 57.5t40 179.5v76q0 122 -40 179.5t-124 57.5t-124 -57.5t-40 -179.5zM305 747h-77l80 129h100z" />
    <glyph glyph-name="Ocircumflex" unicode="&#xd4;" horiz-adv-x="600" 
d="M550 383v-76q0 -315 -250 -315t-250 315v76q0 315 250 315t250 -315zM136 383v-76q0 -122 40 -179.5t124 -57.5t124 57.5t40 179.5v76q0 122 -40 179.5t-124 57.5t-124 -57.5t-40 -179.5zM116 737l138 142h92l138 -142h-97l-87 91l-87 -91h-97z" />
    <glyph glyph-name="Otilde" unicode="&#xd5;" horiz-adv-x="600" 
d="M550 383v-76q0 -315 -250 -315t-250 315v76q0 315 250 315t250 -315zM136 383v-76q0 -122 40 -179.5t124 -57.5t124 57.5t40 179.5v76q0 122 -40 179.5t-124 57.5t-124 -57.5t-40 -179.5zM357 762q-24 0 -59 13q-39 14 -56 14q-33 0 -59 -26l-47 49q44 50 106 50
q19 0 58 -14q33 -13 58 -13q31 0 57 26l47 -49q-44 -50 -105 -50z" />
    <glyph glyph-name="Odieresis" unicode="&#xd6;" horiz-adv-x="600" 
d="M550 383v-76q0 -315 -250 -315t-250 315v76q0 315 250 315t250 -315zM136 383v-76q0 -122 40 -179.5t124 -57.5t124 57.5t40 179.5v76q0 122 -40 179.5t-124 57.5t-124 -57.5t-40 -179.5zM240 779h-90v90h90v-90zM450 779h-90v90h90v-90z" />
    <glyph glyph-name="multiply" unicode="&#xd7;" 
d="M250 303l-126 -126l-51 51l126 126l-126 127l50 50l127 -127l127 127l50 -50l-127 -127l127 -126l-51 -51z" />
    <glyph glyph-name="Oslash" unicode="&#xd8;" horiz-adv-x="600" 
d="M220 2l-43 -118h-77l54 149q-104 72 -104 274v76q0 315 250 315q50 0 90 -13l46 127h77l-59 -161q96 -77 96 -268v-76q0 -315 -250 -315q-43 0 -80 10zM136 383v-76q0 -133 48 -190l179 493q-24 10 -63 10q-84 0 -124 -57.5t-40 -179.5zM464 307v76q0 122 -41 181
l-176 -488q24 -6 53 -6q84 0 124 57.5t40 179.5z" />
    <glyph glyph-name="Ugrave" unicode="&#xd9;" horiz-adv-x="670" 
d="M499 280v410h86v-409q0 -143 -64 -216t-186 -73t-186 72.5t-64 215.5v410h86v-410q0 -108 40 -159t124 -51t124 51t40 159zM218 876h100l80 -129h-77z" />
    <glyph glyph-name="Uacute" unicode="&#xda;" horiz-adv-x="670" 
d="M499 280v410h86v-409q0 -143 -64 -216t-186 -73t-186 72.5t-64 215.5v410h86v-410q0 -108 40 -159t124 -51t124 51t40 159zM347 747h-77l80 129h100z" />
    <glyph glyph-name="Ucircumflex" unicode="&#xdb;" horiz-adv-x="670" 
d="M499 280v410h86v-409q0 -143 -64 -216t-186 -73t-186 72.5t-64 215.5v410h86v-410q0 -108 40 -159t124 -51t124 51t40 159zM151 737l138 142h92l138 -142h-97l-87 91l-87 -91h-97z" />
    <glyph glyph-name="Udieresis" unicode="&#xdc;" horiz-adv-x="670" 
d="M499 280v410h86v-409q0 -143 -64 -216t-186 -73t-186 72.5t-64 215.5v410h86v-410q0 -108 40 -159t124 -51t124 51t40 159zM275 779h-90v90h90v-90zM485 779h-90v90h90v-90z" />
    <glyph glyph-name="Yacute" unicode="&#xdd;" horiz-adv-x="556" 
d="M307 747h-77l80 129h100zM235 296l-215 394h101l157 -300l157 300h101l-215 -394v-296h-86v296z" />
    <glyph glyph-name="Thorn" unicode="&#xde;" horiz-adv-x="588" 
d="M305 143h-134v-143h-86v690h86v-120h134q119 0 185 -56.5t66 -157.5q0 -100 -66 -156.5t-185 -56.5zM171 492v-271h134q165 0 165 135q0 136 -165 136h-134z" />
    <glyph glyph-name="germandbls" unicode="&#xdf;" horiz-adv-x="527" 
d="M462 564q0 -69 -61 -97q34 -12 47.5 -38t13.5 -77v-212q0 -86 -33 -113q-32 -27 -116 -27h-40v72h40q37 0 53 15t16 53v212q0 43 -15 59.5t-54 16.5h-40v72h40q69 0 69 59q0 31 -27.5 49t-81.5 18q-67 0 -97.5 -31.5t-30.5 -103.5v-491h-80v499q0 199 208 199
q92 0 140.5 -36t48.5 -98z" />
    <glyph glyph-name="agrave" unicode="&#xe0;" horiz-adv-x="491" 
d="M40 146q0 143 187 143h119v58q0 50 -24 68.5t-87 18.5q-52 0 -76 -10t-44 -41l-60 42q27 45 68.5 64t112.5 19q101 0 145.5 -37.5t44.5 -123.5v-347h-80v49q-20 -33 -47.5 -45t-79.5 -12q-86 0 -132.5 40.5t-46.5 113.5zM346 192v29h-119q-56 0 -81.5 -18.5t-25.5 -58.5
q0 -78 99 -78q63 0 95 24q32 26 32 102zM140 725h96l70 -158h-75z" />
    <glyph glyph-name="aacute" unicode="&#xe1;" horiz-adv-x="491" 
d="M40 146q0 143 187 143h119v58q0 50 -24 68.5t-87 18.5q-52 0 -76 -10t-44 -41l-60 42q27 45 68.5 64t112.5 19q101 0 145.5 -37.5t44.5 -123.5v-347h-80v49q-20 -33 -47.5 -45t-79.5 -12q-86 0 -132.5 40.5t-46.5 113.5zM346 192v29h-119q-56 0 -81.5 -18.5t-25.5 -58.5
q0 -78 99 -78q63 0 95 24q32 26 32 102zM276 567h-75l70 158h96z" />
    <glyph glyph-name="acircumflex" unicode="&#xe2;" horiz-adv-x="491" 
d="M40 146q0 143 187 143h119v58q0 50 -24 68.5t-87 18.5q-52 0 -76 -10t-44 -41l-60 42q27 45 68.5 64t112.5 19q101 0 145.5 -37.5t44.5 -123.5v-347h-80v49q-20 -33 -47.5 -45t-79.5 -12q-86 0 -132.5 40.5t-46.5 113.5zM346 192v29h-119q-56 0 -81.5 -18.5t-25.5 -58.5
q0 -78 99 -78q63 0 95 24q32 26 32 102zM94 558l108 142h92l108 -142h-82l-72 97l-72 -97h-82z" />
    <glyph glyph-name="atilde" unicode="&#xe3;" horiz-adv-x="491" 
d="M40 146q0 143 187 143h119v58q0 50 -24 68.5t-87 18.5q-52 0 -76 -10t-44 -41l-60 42q27 45 68.5 64t112.5 19q101 0 145.5 -37.5t44.5 -123.5v-347h-80v49q-20 -33 -47.5 -45t-79.5 -12q-86 0 -132.5 40.5t-46.5 113.5zM346 192v29h-119q-56 0 -81.5 -18.5t-25.5 -58.5
q0 -78 99 -78q63 0 95 24q32 26 32 102zM306 589q-24 0 -59 13q-39 14 -56 14q-33 0 -59 -26l-47 44q44 50 106 50q18 0 58 -14q35 -13 58 -13q31 0 57 26l47 -44q-44 -50 -105 -50z" />
    <glyph glyph-name="adieresis" unicode="&#xe4;" horiz-adv-x="491" 
d="M40 146q0 143 187 143h119v58q0 50 -24 68.5t-87 18.5q-52 0 -76 -10t-44 -41l-60 42q27 45 68.5 64t112.5 19q101 0 145.5 -37.5t44.5 -123.5v-347h-80v49q-20 -33 -47.5 -45t-79.5 -12q-86 0 -132.5 40.5t-46.5 113.5zM346 192v29h-119q-56 0 -81.5 -18.5t-25.5 -58.5
q0 -78 99 -78q63 0 95 24q32 26 32 102zM182 600h-90v90h90v-90zM392 600h-90v90h90v-90z" />
    <glyph glyph-name="aring" unicode="&#xe5;" horiz-adv-x="491" 
d="M40 146q0 143 187 143h119v58q0 50 -24 68.5t-87 18.5q-52 0 -76 -10t-44 -41l-60 42q27 45 68.5 64t112.5 19q101 0 145.5 -37.5t44.5 -123.5v-347h-80v49q-20 -33 -47.5 -45t-79.5 -12q-86 0 -132.5 40.5t-46.5 113.5zM346 192v29h-119q-56 0 -81.5 -18.5t-25.5 -58.5
q0 -78 99 -78q63 0 95 24q32 26 32 102zM136 646q0 46 32 78t77 32q46 0 78 -32t32 -78q0 -45 -32 -77t-78 -32q-45 0 -77 32t-32 77zM188 646q0 -23 17 -40t40 -17q24 0 40.5 17t16.5 40q0 24 -16.5 40.5t-40.5 16.5q-23 0 -40 -16.5t-17 -40.5z" />
    <glyph glyph-name="ae" unicode="&#xe6;" horiz-adv-x="794" 
d="M673 120l62 -44q-26 -45 -67.5 -64.5t-107.5 -19.5q-121 0 -170 91q-24 -49 -64 -70t-107 -21q-87 0 -133 40t-46 113q0 144 187 144h119v58q0 50 -24 68.5t-87 18.5q-52 0 -76 -10t-44 -41l-60 42q27 45 68.5 64t112.5 19q124 0 162 -71q47 71 146 71q94 0 146 -54.5
t52 -153.5v-70h-316v-10q0 -71 34 -113.5t94 -42.5q87 0 119 56zM346 194v27h-119q-56 0 -81.5 -19t-25.5 -59q0 -77 99 -77q64 0 95 25q32 26 32 103zM661 300q-6 136 -117 136t-118 -136h235z" />
    <glyph glyph-name="ccedilla" unicode="&#xe7;" horiz-adv-x="444" 
d="M214 -69l12 63q-89 8 -137.5 67.5t-48.5 156.5v66q0 106 57 165t159 59q118 0 173 -78l-63 -44q-35 50 -110 50q-64 0 -100 -40.5t-36 -111.5v-66q0 -72 35 -113t101 -41q82 0 111 56l62 -44q-40 -75 -148 -83l-4 -16q62 -17 62 -74q0 -38 -30 -60t-81 -22q-25 0 -37 3
l12 52q3 -1 19 -1q47 0 47 28t-55 28z" />
    <glyph glyph-name="egrave" unicode="&#xe8;" horiz-adv-x="488" 
d="M367 120l62 -44q-26 -45 -67.5 -64.5t-107.5 -19.5q-100 0 -157 60.5t-57 165.5v66q0 108 51 166t147 58q98 0 148 -57.5t50 -166.5v-52h-316v-14q0 -71 33.5 -112.5t94.5 -41.5q87 0 119 56zM238 436q-110 0 -118 -134h235q-6 134 -117 134zM134 725h96l70 -158h-75z
" />
    <glyph glyph-name="eacute" unicode="&#xe9;" horiz-adv-x="488" 
d="M367 120l62 -44q-26 -45 -67.5 -64.5t-107.5 -19.5q-100 0 -157 60.5t-57 165.5v66q0 108 51 166t147 58q98 0 148 -57.5t50 -166.5v-52h-316v-14q0 -71 33.5 -112.5t94.5 -41.5q87 0 119 56zM238 436q-110 0 -118 -134h235q-6 134 -117 134zM263 567h-75l70 158h96z" />
    <glyph glyph-name="ecircumflex" unicode="&#xea;" horiz-adv-x="488" 
d="M367 120l62 -44q-26 -45 -67.5 -64.5t-107.5 -19.5q-100 0 -157 60.5t-57 165.5v66q0 108 51 166t147 58q98 0 148 -57.5t50 -166.5v-52h-316v-14q0 -71 33.5 -112.5t94.5 -41.5q87 0 119 56zM238 436q-110 0 -118 -134h235q-6 134 -117 134zM84 558l108 142h92l108 -142
h-82l-72 97l-72 -97h-82z" />
    <glyph glyph-name="edieresis" unicode="&#xeb;" horiz-adv-x="488" 
d="M367 120l62 -44q-26 -45 -67.5 -64.5t-107.5 -19.5q-100 0 -157 60.5t-57 165.5v66q0 108 51 166t147 58q98 0 148 -57.5t50 -166.5v-52h-316v-14q0 -71 33.5 -112.5t94.5 -41.5q87 0 119 56zM238 436q-110 0 -118 -134h235q-6 134 -117 134zM178 600h-90v90h90v-90z
M388 600h-90v90h90v-90z" />
    <glyph glyph-name="igrave" unicode="&#xec;" horiz-adv-x="230" 
d="M-11 725h96l70 -158h-75zM155 0h-80v500h80v-500z" />
    <glyph glyph-name="iacute" unicode="&#xed;" horiz-adv-x="230" 
d="M150 567h-75l70 158h96zM155 0h-80v500h80v-500z" />
    <glyph glyph-name="icircumflex" unicode="&#xee;" horiz-adv-x="230" 
d="M-39 558l108 142h92l108 -142h-82l-72 97l-72 -97h-82zM155 0h-80v500h80v-500z" />
    <glyph glyph-name="idieresis" unicode="&#xef;" horiz-adv-x="230" 
d="M55 600h-90v90h90v-90zM265 600h-90v90h90v-90zM155 0h-80v500h80v-500z" />
    <glyph glyph-name="eth" unicode="&#xf0;" horiz-adv-x="496" 
d="M235 530l-62 36l30 52l-57 23l37 65l58 -25l36 61l61 -37l-32 -54q90 -45 118.5 -94.5t31.5 -166.5v-172q0 -106 -53.5 -166t-154.5 -60q-98 0 -153 60t-55 166v66q0 106 55 165t153 59q86 0 129 -48q-5 45 -29 73.5t-79 54.5zM248 64q59 0 93.5 42.5t34.5 111.5v66
q0 72 -33.5 112t-94.5 40t-94.5 -40.5t-33.5 -111.5v-66q0 -72 33 -113t95 -41z" />
    <glyph glyph-name="ntilde" unicode="&#xf1;" horiz-adv-x="526" 
d="M145 0h-80v500h80v-49q21 31 51 44t83 13q88 0 135 -49t47 -147v-312h-80v311q0 123 -114 123q-54 0 -88 -34t-34 -88v-312zM321 589q-24 0 -59 13q-39 14 -56 14q-33 0 -59 -26l-47 44q44 50 106 50q19 0 58 -14q33 -13 58 -13q31 0 57 26l47 -44q-44 -50 -105 -50z" />
    <glyph glyph-name="ograve" unicode="&#xf2;" horiz-adv-x="496" 
d="M456 284v-66q0 -106 -53.5 -166t-154.5 -60q-98 0 -153 60t-55 166v66q0 106 55 165t153 59q99 0 153.5 -58.5t54.5 -165.5zM248 64q59 0 93.5 42.5t34.5 111.5v66q0 72 -33.5 112t-94.5 40t-94.5 -40.5t-33.5 -111.5v-66q0 -72 33 -113t95 -41zM135 725h96l70 -158h-75z
" />
    <glyph glyph-name="oacute" unicode="&#xf3;" horiz-adv-x="496" 
d="M456 284v-66q0 -106 -53.5 -166t-154.5 -60q-98 0 -153 60t-55 166v66q0 106 55 165t153 59q99 0 153.5 -58.5t54.5 -165.5zM248 64q59 0 93.5 42.5t34.5 111.5v66q0 72 -33.5 112t-94.5 40t-94.5 -40.5t-33.5 -111.5v-66q0 -72 33 -113t95 -41zM270 567h-75l70 158h96z
" />
    <glyph glyph-name="ocircumflex" unicode="&#xf4;" horiz-adv-x="496" 
d="M456 284v-66q0 -106 -53.5 -166t-154.5 -60q-98 0 -153 60t-55 166v66q0 106 55 165t153 59q99 0 153.5 -58.5t54.5 -165.5zM248 64q59 0 93.5 42.5t34.5 111.5v66q0 72 -33.5 112t-94.5 40t-94.5 -40.5t-33.5 -111.5v-66q0 -72 33 -113t95 -41zM94 558l108 142h92
l108 -142h-82l-72 97l-72 -97h-82z" />
    <glyph glyph-name="otilde" unicode="&#xf5;" horiz-adv-x="496" 
d="M456 284v-66q0 -106 -53.5 -166t-154.5 -60q-98 0 -153 60t-55 166v66q0 106 55 165t153 59q99 0 153.5 -58.5t54.5 -165.5zM248 64q59 0 93.5 42.5t34.5 111.5v66q0 72 -33.5 112t-94.5 40t-94.5 -40.5t-33.5 -111.5v-66q0 -72 33 -113t95 -41zM306 589q-24 0 -59 13
q-39 14 -56 14q-33 0 -59 -26l-47 44q44 50 106 50q18 0 58 -14q35 -13 58 -13q31 0 57 26l47 -44q-44 -50 -105 -50z" />
    <glyph glyph-name="odieresis" unicode="&#xf6;" horiz-adv-x="496" 
d="M456 284v-66q0 -106 -53.5 -166t-154.5 -60q-98 0 -153 60t-55 166v66q0 106 55 165t153 59q99 0 153.5 -58.5t54.5 -165.5zM248 64q59 0 93.5 42.5t34.5 111.5v66q0 72 -33.5 112t-94.5 40t-94.5 -40.5t-33.5 -111.5v-66q0 -72 33 -113t95 -41zM188 600h-90v90h90v-90z
M398 600h-90v90h90v-90z" />
    <glyph glyph-name="divide" unicode="&#xf7;" 
d="M293 469h-90v90h90v-90zM444 318h-389v72h389v-72zM293 149h-90v90h90v-90z" />
    <glyph glyph-name="oslash" unicode="&#xf8;" horiz-adv-x="496" 
d="M175 2l-36 -81h-77l51 114q-73 58 -73 183v66q0 106 55 165t153 59q43 0 72 -10l38 84h77l-52 -116q73 -57 73 -182v-66q0 -106 -53.5 -166t-154.5 -60q-39 0 -73 10zM120 284v-66q0 -68 27 -106l143 318q-20 6 -42 6q-61 0 -94.5 -40.5t-33.5 -111.5zM248 64
q59 0 93.5 42.5t34.5 111.5v66q0 67 -28 104l-143 -319q28 -5 43 -5z" />
    <glyph glyph-name="ugrave" unicode="&#xf9;" horiz-adv-x="526" 
d="M381 500h80v-500h-80v49q-21 -31 -51 -44t-83 -13q-88 0 -135 49t-47 147v312h80v-311q0 -123 114 -123q54 0 88 34t34 88v312zM167 725h96l70 -158h-75z" />
    <glyph glyph-name="uacute" unicode="&#xfa;" horiz-adv-x="526" 
d="M381 500h80v-500h-80v49q-21 -31 -51 -44t-83 -13q-88 0 -135 49t-47 147v312h80v-311q0 -123 114 -123q54 0 88 34t34 88v312zM294 567h-75l70 158h96z" />
    <glyph glyph-name="ucircumflex" unicode="&#xfb;" horiz-adv-x="526" 
d="M381 500h80v-500h-80v49q-21 -31 -51 -44t-83 -13q-88 0 -135 49t-47 147v312h80v-311q0 -123 114 -123q54 0 88 34t34 88v312zM109 558l108 142h92l108 -142h-82l-72 97l-72 -97h-82z" />
    <glyph glyph-name="udieresis" unicode="&#xfc;" horiz-adv-x="526" 
d="M381 500h80v-500h-80v49q-21 -31 -51 -44t-83 -13q-88 0 -135 49t-47 147v312h80v-311q0 -123 114 -123q54 0 88 34t34 88v312zM203 600h-90v90h90v-90zM413 600h-90v90h90v-90z" />
    <glyph glyph-name="yacute" unicode="&#xfd;" horiz-adv-x="466" 
d="M199 -12l2 7l-196 505h86l149 -388l131 388h85l-176 -516l-20 -55q-23 -57 -47 -77q-48 -42 -141 -42v78q54 0 79 19q27 18 48 81zM268 567h-75l70 158h96z" />
    <glyph glyph-name="thorn" unicode="&#xfe;" horiz-adv-x="521" 
d="M145 690v-240q42 58 136 58t147 -58.5t53 -165.5v-66q0 -105 -52.5 -165.5t-147.5 -60.5q-94 0 -136 58v-240h-80v880h80zM273 64q59 0 93.5 42.5t34.5 111.5v66q0 72 -33.5 112t-94.5 40q-60 0 -94 -38.5t-34 -106.5v-73q0 -72 33 -113t95 -41z" />
    <glyph glyph-name="ydieresis" unicode="&#xff;" horiz-adv-x="466" 
d="M199 -12l2 7l-196 505h86l149 -388l131 388h85l-176 -516l-20 -55q-23 -57 -47 -77q-48 -42 -141 -42v78q54 0 79 19q27 18 48 81zM177 600h-90v90h90v-90zM387 600h-90v90h90v-90z" />
    <glyph glyph-name="Amacron" unicode="&#x100;" horiz-adv-x="580" 
d="M445 768h-309v72h309v-72zM154 158l-53 -158h-91l240 690h80l240 -690h-91l-53 158h-272zM399 236l-109 324l-109 -324h218z" />
    <glyph glyph-name="amacron" unicode="&#x101;" horiz-adv-x="491" 
d="M40 146q0 143 187 143h119v58q0 50 -24 68.5t-87 18.5q-52 0 -76 -10t-44 -41l-60 42q27 45 68.5 64t112.5 19q101 0 145.5 -37.5t44.5 -123.5v-347h-80v49q-20 -33 -47.5 -45t-79.5 -12q-86 0 -132.5 40.5t-46.5 113.5zM346 192v29h-119q-56 0 -81.5 -18.5t-25.5 -58.5
q0 -78 99 -78q63 0 95 24q32 26 32 102zM372 600h-269v72h269v-72z" />
    <glyph glyph-name="Abreve" unicode="&#x102;" horiz-adv-x="580" 
d="M397 880h78q0 -72 -49 -112t-135 -40q-87 0 -136 40t-49 112h78q8 -74 107 -74q98 0 106 74zM154 158l-53 -158h-91l240 690h80l240 -690h-91l-53 158h-272zM399 236l-109 324l-109 -324h218z" />
    <glyph glyph-name="abreve" unicode="&#x103;" horiz-adv-x="491" 
d="M40 146q0 143 187 143h119v58q0 50 -24 68.5t-87 18.5q-52 0 -76 -10t-44 -41l-60 42q27 45 68.5 64t112.5 19q101 0 145.5 -37.5t44.5 -123.5v-347h-80v49q-20 -33 -47.5 -45t-79.5 -12q-86 0 -132.5 40.5t-46.5 113.5zM346 192v29h-119q-56 0 -81.5 -18.5t-25.5 -58.5
q0 -78 99 -78q63 0 95 24q32 26 32 102zM322 690h65q-4 -118 -136 -118t-136 118h66q6 -60 70 -60q65 0 71 60z" />
    <glyph glyph-name="Aogonek" unicode="&#x104;" horiz-adv-x="580" 
d="M154 158l-53 -158h-91l240 690h80l240 -690q-37 -22 -50 -36q-15 -15 -15 -32q0 -28 45 -28q18 0 21 1l12 -52q-12 -3 -44 -3q-46 0 -75 20t-29 56q0 45 42 78l-51 154h-272zM399 236l-109 324l-109 -324h218z" />
    <glyph glyph-name="aogonek" unicode="&#x105;" horiz-adv-x="491" 
d="M40 146q0 143 187 143h119v58q0 50 -24 68.5t-87 18.5q-52 0 -76 -10t-44 -41l-60 42q27 45 68.5 64t112.5 19q101 0 145.5 -37.5t44.5 -123.5v-347q-37 -22 -50 -36q-15 -15 -15 -32q0 -28 45 -28q1 0 4 0.5t8 1t9 0.5l12 -53q-12 -3 -44 -3q-46 0 -75 20t-29 56
q0 50 55 87v36q-20 -33 -47.5 -45t-79.5 -12q-86 0 -132.5 40.5t-46.5 113.5zM346 192v29h-119q-56 0 -81.5 -18.5t-25.5 -58.5q0 -78 99 -78q63 0 95 24q32 26 32 102z" />
    <glyph glyph-name="Cacute" unicode="&#x106;" horiz-adv-x="578" 
d="M548 475h-84q-17 76 -56.5 110.5t-107.5 34.5q-84 0 -124 -57.5t-40 -179.5v-76q0 -122 40 -179.5t124 -57.5q68 0 107.5 35t56.5 110h83q-15 -110 -78.5 -166.5t-168.5 -56.5q-250 0 -250 315v76q0 315 250 315q105 0 168.5 -56.5t79.5 -166.5zM283 747h-77l80 129h100z
" />
    <glyph glyph-name="cacute" unicode="&#x107;" horiz-adv-x="444" 
d="M367 120l62 -44q-45 -84 -173 -84q-101 0 -158.5 60.5t-57.5 165.5v66q0 106 57 165t159 59q118 0 173 -78l-63 -44q-35 50 -110 50q-64 0 -100 -40.5t-36 -111.5v-66q0 -72 35 -113t101 -41q82 0 111 56zM278 567h-75l70 158h96z" />
    <glyph glyph-name="Ccircumflex" unicode="&#x108;" horiz-adv-x="578" 
d="M548 475h-84q-17 76 -56.5 110.5t-107.5 34.5q-84 0 -124 -57.5t-40 -179.5v-76q0 -122 40 -179.5t124 -57.5q68 0 107.5 35t56.5 110h83q-15 -110 -78.5 -166.5t-168.5 -56.5q-250 0 -250 315v76q0 315 250 315q105 0 168.5 -56.5t79.5 -166.5zM116 737l138 142h92
l138 -142h-97l-87 91l-87 -91h-97z" />
    <glyph glyph-name="ccircumflex" unicode="&#x109;" horiz-adv-x="444" 
d="M367 120l62 -44q-45 -84 -173 -84q-101 0 -158.5 60.5t-57.5 165.5v66q0 106 57 165t159 59q118 0 173 -78l-63 -44q-35 50 -110 50q-64 0 -100 -40.5t-36 -111.5v-66q0 -72 35 -113t101 -41q82 0 111 56zM98 558l108 142h92l108 -142h-82l-72 97l-72 -97h-82z" />
    <glyph glyph-name="Cdotaccent" unicode="&#x10a;" horiz-adv-x="578" 
d="M548 475h-84q-17 76 -56.5 110.5t-107.5 34.5q-84 0 -124 -57.5t-40 -179.5v-76q0 -122 40 -179.5t124 -57.5q68 0 107.5 35t56.5 110h83q-15 -110 -78.5 -166.5t-168.5 -56.5q-250 0 -250 315v76q0 315 250 315q105 0 168.5 -56.5t79.5 -166.5zM344 779h-90v90h90v-90z
" />
    <glyph glyph-name="cdotaccent" unicode="&#x10b;" horiz-adv-x="444" 
d="M367 120l62 -44q-45 -84 -173 -84q-101 0 -158.5 60.5t-57.5 165.5v66q0 106 57 165t159 59q118 0 173 -78l-63 -44q-35 50 -110 50q-64 0 -100 -40.5t-36 -111.5v-66q0 -72 35 -113t101 -41q82 0 111 56zM279 600h-90v90h90v-90z" />
    <glyph glyph-name="Ccaron" unicode="&#x10c;" horiz-adv-x="578" 
d="M548 475h-84q-17 76 -56.5 110.5t-107.5 34.5q-84 0 -124 -57.5t-40 -179.5v-76q0 -122 40 -179.5t124 -57.5q68 0 107.5 35t56.5 110h83q-15 -110 -78.5 -166.5t-168.5 -56.5q-250 0 -250 315v76q0 315 250 315q105 0 168.5 -56.5t79.5 -166.5zM484 879l-138 -142h-92
l-138 142h97l87 -91l87 91h97z" />
    <glyph glyph-name="ccaron" unicode="&#x10d;" horiz-adv-x="444" 
d="M367 120l62 -44q-45 -84 -173 -84q-101 0 -158.5 60.5t-57.5 165.5v66q0 106 57 165t159 59q118 0 173 -78l-63 -44q-35 50 -110 50q-64 0 -100 -40.5t-36 -111.5v-66q0 -72 35 -113t101 -41q82 0 111 56zM406 700l-108 -142h-92l-108 142h82l72 -97l72 97h82z" />
    <glyph glyph-name="Dcaron" unicode="&#x10e;" horiz-adv-x="605" 
d="M305 0h-220v690h220q250 0 250 -309v-72q0 -309 -250 -309zM171 78h134q85 0 124.5 55t39.5 176v72q0 121 -39.5 176t-124.5 55h-134v-534zM460 879l-138 -142h-92l-138 142h97l87 -91l87 91h97z" />
    <glyph glyph-name="dcaron" unicode="&#x10f;" horiz-adv-x="576" 
d="M376 450v240h80v-690h-80v44q-40 -52 -136 -52q-95 0 -147.5 60.5t-52.5 165.5v66q0 106 53 165t146.5 59.5t136.5 -58.5zM248 64q62 0 95 39t33 108v73q0 71 -33.5 111.5t-94.5 40.5t-94.5 -40t-33.5 -112v-66q0 -69 34.5 -111.5t93.5 -42.5zM500 690h96v-96l-96 -83
v179z" />
    <glyph glyph-name="Dcroat" unicode="&#x110;" horiz-adv-x="623" 
d="M323 0h-220v318h-113v78h113v294h220q250 0 250 -309v-72q0 -309 -250 -309zM189 78h134q85 0 124.5 55t39.5 176v72q0 121 -39.5 176t-124.5 55h-134v-216h170v-78h-170v-240z" />
    <glyph glyph-name="dslash" unicode="&#x111;" horiz-adv-x="554" 
d="M213 630h163v60h80v-60h96v-72h-96v-558h-80v44q-40 -52 -136 -52q-95 0 -147.5 60.5t-52.5 165.5v66q0 106 53 165t146.5 59.5t136.5 -58.5v108h-163v72zM248 64q62 0 95 39t33 108v73q0 71 -33.5 111.5t-94.5 40.5t-94.5 -40t-33.5 -112v-66q0 -69 34.5 -111.5
t93.5 -42.5z" />
    <glyph glyph-name="Emacron" unicode="&#x112;" horiz-adv-x="541" 
d="M448 768h-309v72h309v-72zM85 0v690h416v-78h-330v-216h300v-78h-300v-240h330v-78h-416z" />
    <glyph glyph-name="emacron" unicode="&#x113;" horiz-adv-x="488" 
d="M367 120l62 -44q-26 -45 -67.5 -64.5t-107.5 -19.5q-100 0 -157 60.5t-57 165.5v66q0 108 51 166t147 58q98 0 148 -57.5t50 -166.5v-52h-316v-14q0 -71 33.5 -112.5t94.5 -41.5q87 0 119 56zM238 436q-110 0 -118 -134h235q-6 134 -117 134zM373 600h-269v72h269v-72z
" />
    <glyph glyph-name="Edotaccent" unicode="&#x116;" horiz-adv-x="541" 
d="M338 779h-90v90h90v-90zM85 0v690h416v-78h-330v-216h300v-78h-300v-240h330v-78h-416z" />
    <glyph glyph-name="edotaccent" unicode="&#x117;" horiz-adv-x="488" 
d="M367 120l62 -44q-26 -45 -67.5 -64.5t-107.5 -19.5q-100 0 -157 60.5t-57 165.5v66q0 108 51 166t147 58q98 0 148 -57.5t50 -166.5v-52h-316v-14q0 -71 33.5 -112.5t94.5 -41.5q87 0 119 56zM238 436q-110 0 -118 -134h235q-6 134 -117 134zM283 600h-90v90h90v-90z" />
    <glyph glyph-name="Eogonek" unicode="&#x118;" horiz-adv-x="541" 
d="M85 0v690h416v-78h-330v-216h300v-78h-300v-240h330v-78h-117q-37 -22 -50 -36q-15 -15 -15 -32q0 -28 45 -28q18 0 21 1l12 -52q-12 -3 -44 -3q-46 0 -75 20t-29 56q0 43 37 74h-201z" />
    <glyph glyph-name="eogonek" unicode="&#x119;" horiz-adv-x="488" 
d="M367 120l62 -44q-38 -66 -113 -79q-60 -34 -60 -65q0 -28 45 -28q1 0 4 0.5t8 1t9 0.5l12 -53q-12 -3 -44 -3q-46 0 -75 20t-29 56t32 68q-84 10 -131 69.5t-47 154.5v66q0 108 51 166t147 58q98 0 148 -57.5t50 -166.5v-52h-316v-14q0 -71 33.5 -112.5t94.5 -41.5
q87 0 119 56zM238 436q-110 0 -118 -134h235q-6 134 -117 134z" />
    <glyph glyph-name="Ecaron" unicode="&#x11a;" horiz-adv-x="541" 
d="M477 879l-138 -142h-92l-138 142h97l87 -91l87 91h97zM85 0v690h416v-78h-330v-216h300v-78h-300v-240h330v-78h-416z" />
    <glyph glyph-name="ecaron" unicode="&#x11b;" horiz-adv-x="488" 
d="M367 120l62 -44q-26 -45 -67.5 -64.5t-107.5 -19.5q-100 0 -157 60.5t-57 165.5v66q0 108 51 166t147 58q98 0 148 -57.5t50 -166.5v-52h-316v-14q0 -71 33.5 -112.5t94.5 -41.5q87 0 119 56zM238 436q-110 0 -118 -134h235q-6 134 -117 134zM399 700l-108 -142h-92
l-108 142h82l72 -97l72 97h82z" />
    <glyph glyph-name="Gcircumflex" unicode="&#x11c;" horiz-adv-x="604" 
d="M303 269v78h251v-40q0 -157 -65 -236t-189 -79q-250 0 -250 315v76q0 315 250 315q105 0 168.5 -56.5t79.5 -166.5h-84q-30 145 -164 145q-84 0 -124 -57.5t-40 -179.5v-76q0 -122 40 -179.5t124 -57.5q154 0 167 199h-164zM116 737l138 142h92l138 -142h-97l-87 91
l-87 -91h-97z" />
    <glyph glyph-name="gcircumflex" unicode="&#x11d;" horiz-adv-x="521" 
d="M376 450v50h80v-490q0 -101 -55.5 -153.5t-158.5 -52.5q-66 0 -107.5 19.5t-67.5 64.5l62 44q32 -56 119 -56q128 0 128 134v34q-40 -52 -136 -52q-95 0 -147.5 60.5t-52.5 165.5v66q0 106 53 165t146.5 59.5t136.5 -58.5zM248 64q62 0 95 41t33 113v66q0 71 -33.5 111.5
t-94.5 40.5t-94.5 -40t-33.5 -112v-66q0 -69 34.5 -111.5t93.5 -42.5zM120 558l108 142h92l108 -142h-82l-72 97l-72 -97h-82z" />
    <glyph glyph-name="Gbreve" unicode="&#x11e;" horiz-adv-x="604" 
d="M303 269v78h251v-40q0 -157 -65 -236t-189 -79q-250 0 -250 315v76q0 315 250 315q105 0 168.5 -56.5t79.5 -166.5h-84q-30 145 -164 145q-84 0 -124 -57.5t-40 -179.5v-76q0 -122 40 -179.5t124 -57.5q154 0 167 199h-164zM406 880h78q0 -72 -49 -112t-135 -40
q-87 0 -136 40t-49 112h78q8 -74 107 -74q98 0 106 74z" />
    <glyph glyph-name="gbreve" unicode="&#x11f;" horiz-adv-x="521" 
d="M376 450v50h80v-490q0 -101 -55.5 -153.5t-158.5 -52.5q-66 0 -107.5 19.5t-67.5 64.5l62 44q32 -56 119 -56q128 0 128 134v34q-40 -52 -136 -52q-95 0 -147.5 60.5t-52.5 165.5v66q0 106 53 165t146.5 59.5t136.5 -58.5zM248 64q62 0 95 41t33 113v66q0 71 -33.5 111.5
t-94.5 40.5t-94.5 -40t-33.5 -112v-66q0 -69 34.5 -111.5t93.5 -42.5zM352 690h65q-4 -118 -136 -118t-136 118h66q6 -60 70 -60q65 0 71 60z" />
    <glyph glyph-name="Gdotaccent" unicode="&#x120;" horiz-adv-x="604" 
d="M303 269v78h251v-40q0 -157 -65 -236t-189 -79q-250 0 -250 315v76q0 315 250 315q105 0 168.5 -56.5t79.5 -166.5h-84q-30 145 -164 145q-84 0 -124 -57.5t-40 -179.5v-76q0 -122 40 -179.5t124 -57.5q154 0 167 199h-164zM347 779h-90v90h90v-90z" />
    <glyph glyph-name="gdotaccent" unicode="&#x121;" horiz-adv-x="521" 
d="M376 450v50h80v-490q0 -101 -55.5 -153.5t-158.5 -52.5q-66 0 -107.5 19.5t-67.5 64.5l62 44q32 -56 119 -56q128 0 128 134v34q-40 -52 -136 -52q-95 0 -147.5 60.5t-52.5 165.5v66q0 106 53 165t146.5 59.5t136.5 -58.5zM248 64q62 0 95 41t33 113v66q0 71 -33.5 111.5
t-94.5 40.5t-94.5 -40t-33.5 -112v-66q0 -69 34.5 -111.5t93.5 -42.5zM284 600h-90v90h90v-90z" />
    <glyph glyph-name="uni0122" unicode="&#x122;" horiz-adv-x="604" 
d="M303 269v78h251v-40q0 -157 -65 -236t-189 -79q-250 0 -250 315v76q0 315 250 315q105 0 168.5 -56.5t79.5 -166.5h-84q-30 145 -164 145q-84 0 -124 -57.5t-40 -179.5v-76q0 -122 40 -179.5t124 -57.5q154 0 167 199h-164zM254 -64h96v-96l-96 -83v179z" />
    <glyph glyph-name="uni0123" unicode="&#x123;" horiz-adv-x="521" 
d="M376 450v50h80v-490q0 -101 -55.5 -153.5t-158.5 -52.5q-66 0 -107.5 19.5t-67.5 64.5l62 44q32 -56 119 -56q128 0 128 134v34q-40 -52 -136 -52q-95 0 -147.5 60.5t-52.5 165.5v66q0 106 53 165t146.5 59.5t136.5 -58.5zM248 64q62 0 95 41t33 113v66q0 71 -33.5 111.5
t-94.5 40.5t-94.5 -40t-33.5 -112v-66q0 -69 34.5 -111.5t93.5 -42.5zM308 593h-96v96l96 83v-179z" />
    <glyph glyph-name="Hcircumflex" unicode="&#x124;" horiz-adv-x="638" 
d="M135 737l138 142h92l138 -142h-97l-87 91l-87 -91h-97zM85 690h86v-294h296v294h86v-690h-86v318h-296v-318h-86v690z" />
    <glyph glyph-name="hcircumflex" unicode="&#x125;" horiz-adv-x="526" 
d="M145 0h-80v690h80v-239q21 31 51 44t83 13q88 0 135 -49t47 -147v-312h-80v311q0 123 -114 123q-54 0 -88 -34t-34 -88v-312zM-49 724l108 142h92l108 -142h-82l-72 97l-72 -97h-82z" />
    <glyph glyph-name="Hbar" unicode="&#x126;" horiz-adv-x="648" 
d="M90 690h86v-144h296v144h86v-144h100v-78h-100v-468h-86v318h-296v-318h-86v468h-100v78h100v144zM176 468v-72h296v72h-296z" />
    <glyph glyph-name="hbar" unicode="&#x127;" horiz-adv-x="535" 
d="M74 558h-94v72h94v60h80v-60h165v-72h-165v-107q21 31 51 44t83 13q88 0 135 -49t47 -147v-312h-80v311q0 123 -114 123q-54 0 -88 -34t-34 -88v-312h-80v558z" />
    <glyph glyph-name="Imacron" unicode="&#x12a;" horiz-adv-x="276" 
d="M293 768h-309v72h309v-72zM95 690h86v-690h-86v690z" />
    <glyph glyph-name="imacron" unicode="&#x12b;" horiz-adv-x="230" 
d="M250 600h-269v72h269v-72zM155 0h-80v500h80v-500z" />
    <glyph glyph-name="Iogonek" unicode="&#x12e;" horiz-adv-x="276" 
d="M95 690h86v-690q-37 -22 -50 -36q-15 -15 -15 -32q0 -28 45 -28q18 0 21 1l12 -52q-12 -3 -44 -3q-46 0 -75 20t-29 56q0 48 49 84v680z" />
    <glyph glyph-name="iogonek" unicode="&#x12f;" horiz-adv-x="240" 
d="M80 500h80v-500q-37 -22 -50 -36q-15 -15 -15 -32q0 -28 45 -28q1 0 4 0.5t8 1t9 0.5l12 -53q-12 -3 -44 -3q-46 0 -75 20t-29 56q0 50 55 87v487zM165 600h-90v90h90v-90z" />
    <glyph glyph-name="Idot" unicode="&#x130;" horiz-adv-x="276" 
d="M183 779h-90v90h90v-90zM95 690h86v-690h-86v690z" />
    <glyph glyph-name="dotlessi" unicode="&#x131;" horiz-adv-x="230" 
d="M155 0h-80v500h80v-500z" />
    <glyph glyph-name="Jcircumflex" unicode="&#x134;" horiz-adv-x="505" 
d="M5 78l74 42q38 -50 109 -50q76 0 111 50t35 164v406h86v-406q0 -292 -232 -292q-129 0 -183 86zM205 737l138 142h92l138 -142h-97l-87 91l-87 -91h-97z" />
    <glyph glyph-name="jcircumflex" unicode="&#x135;" horiz-adv-x="235" 
d="M85 500h80v-536q0 -83 -37.5 -118.5t-127.5 -35.5v74q61 0 73 31q12 23 12 69v516zM-31 558l108 142h92l108 -142h-82l-72 97l-72 -97h-82z" />
    <glyph glyph-name="uni0136" unicode="&#x136;" horiz-adv-x="638" 
d="M355 413l278 -413h-103l-232 344l-127 -156v-188h-86v690h86v-371l300 371h111zM270 -64h96v-96l-96 -83v179z" />
    <glyph glyph-name="uni0137" unicode="&#x137;" horiz-adv-x="487" 
d="M145 296l202 204h104l-216 -221l247 -279h-104l-202 218l-31 -33v-185h-80v690h80v-394zM204 -64h96v-96l-96 -83v179z" />
    <glyph glyph-name="Lacute" unicode="&#x139;" horiz-adv-x="501" 
d="M171 747h-77l80 129h100zM85 690h86v-612h330v-78h-416v690z" />
    <glyph glyph-name="lacute" unicode="&#x13a;" horiz-adv-x="274" 
d="M65 154v536h80v-516q0 -40 11 -70q16 -30 74 -30v-74q-90 0 -127.5 35.5t-37.5 118.5zM142 718h-75l70 158h96z" />
    <glyph glyph-name="uni013B" unicode="&#x13b;" horiz-adv-x="501" 
d="M85 690h86v-612h330v-78h-416v690zM245 -64h96v-96l-96 -83v179z" />
    <glyph glyph-name="uni013C" unicode="&#x13c;" horiz-adv-x="274" 
d="M65 154v536h80v-516q0 -40 11 -70q16 -30 74 -30v-74q-90 0 -127.5 35.5t-37.5 118.5zM106 -64h96v-96l-96 -83v179z" />
    <glyph glyph-name="Lcaron" unicode="&#x13d;" horiz-adv-x="501" 
d="M303 740h86v-185l-86 -74v259zM85 690h86v-612h330v-78h-416v690z" />
    <glyph glyph-name="lcaron" unicode="&#x13e;" horiz-adv-x="288" 
d="M65 154v536h80v-516q0 -40 11 -70q16 -30 74 -30v-74q-90 0 -127.5 35.5t-37.5 118.5zM222 690h96v-96l-96 -83v179z" />
    <glyph glyph-name="Ldot" unicode="&#x13f;" horiz-adv-x="501" 
d="M85 690h86v-612h330v-78h-416v690zM423 350h-90v90h90v-90z" />
    <glyph glyph-name="ldot" unicode="&#x140;" horiz-adv-x="316" 
d="M65 154v536h80v-516q0 -40 11 -70q16 -30 74 -30v-74q-90 0 -127.5 35.5t-37.5 118.5zM313 344h-90v90h90v-90z" />
    <glyph glyph-name="Lslash" unicode="&#x141;" horiz-adv-x="521" 
d="M105 690h86v-245l135 108l45 -56l-180 -144v-275h330v-78h-416v284l-70 -56l-45 56l115 92v314z" />
    <glyph glyph-name="lslash" unicode="&#x142;" horiz-adv-x="285" 
d="M95 281l-65 -45l-40 60l105 72v322h80v-267l88 61l40 -59l-128 -89v-162q0 -40 11 -70q16 -30 74 -30v-74q-90 0 -127.5 35.5t-37.5 118.5v127z" />
    <glyph glyph-name="Nacute" unicode="&#x143;" horiz-adv-x="638" 
d="M345 747h-77l80 129h100zM467 163v527h86v-690h-84l-298 522v-522h-86v690h82z" />
    <glyph glyph-name="nacute" unicode="&#x144;" horiz-adv-x="526" 
d="M145 0h-80v500h80v-49q21 31 51 44t83 13q88 0 135 -49t47 -147v-312h-80v311q0 123 -114 123q-54 0 -88 -34t-34 -88v-312zM286 567h-75l70 158h96z" />
    <glyph glyph-name="uni0145" unicode="&#x145;" horiz-adv-x="638" 
d="M467 163v527h86v-690h-84l-298 522v-522h-86v690h82zM271 -64h96v-96l-96 -83v179z" />
    <glyph glyph-name="uni0146" unicode="&#x146;" horiz-adv-x="526" 
d="M145 0h-80v500h80v-49q21 31 51 44t83 13q88 0 135 -49t47 -147v-312h-80v311q0 123 -114 123q-54 0 -88 -34t-34 -88v-312zM215 -64h96v-96l-96 -83v179z" />
    <glyph glyph-name="Ncaron" unicode="&#x147;" horiz-adv-x="638" 
d="M503 879l-138 -142h-92l-138 142h97l87 -91l87 91h97zM467 163v527h86v-690h-84l-298 522v-522h-86v690h82z" />
    <glyph glyph-name="ncaron" unicode="&#x148;" horiz-adv-x="526" 
d="M145 0h-80v500h80v-49q21 31 51 44t83 13q88 0 135 -49t47 -147v-312h-80v311q0 123 -114 123q-54 0 -88 -34t-34 -88v-312zM418 700l-108 -142h-92l-108 142h82l72 -97l72 97h82z" />
    <glyph glyph-name="Omacron" unicode="&#x14c;" horiz-adv-x="600" 
d="M550 383v-76q0 -315 -250 -315t-250 315v76q0 315 250 315t250 -315zM136 383v-76q0 -122 40 -179.5t124 -57.5t124 57.5t40 179.5v76q0 122 -40 179.5t-124 57.5t-124 -57.5t-40 -179.5zM455 768h-309v72h309v-72z" />
    <glyph glyph-name="omacron" unicode="&#x14d;" horiz-adv-x="496" 
d="M456 284v-66q0 -106 -53.5 -166t-154.5 -60q-98 0 -153 60t-55 166v66q0 106 55 165t153 59q99 0 153.5 -58.5t54.5 -165.5zM248 64q59 0 93.5 42.5t34.5 111.5v66q0 72 -33.5 112t-94.5 40t-94.5 -40.5t-33.5 -111.5v-66q0 -72 33 -113t95 -41zM383 600h-269v72h269v-72
z" />
    <glyph glyph-name="Ohungarumlaut" unicode="&#x150;" horiz-adv-x="600" 
d="M550 383v-76q0 -315 -250 -315t-250 315v76q0 315 250 315t250 -315zM136 383v-76q0 -122 40 -179.5t124 -57.5t124 57.5t40 179.5v76q0 122 -40 179.5t-124 57.5t-124 -57.5t-40 -179.5zM237 747h-77l80 129h100zM407 747h-77l90 129h100z" />
    <glyph glyph-name="ohungarumlaut" unicode="&#x151;" horiz-adv-x="496" 
d="M456 284v-66q0 -106 -53.5 -166t-154.5 -60q-98 0 -153 60t-55 166v66q0 106 55 165t153 59q99 0 153.5 -58.5t54.5 -165.5zM248 64q59 0 93.5 42.5t34.5 111.5v66q0 72 -33.5 112t-94.5 40t-94.5 -40.5t-33.5 -111.5v-66q0 -72 33 -113t95 -41zM205 567h-75l70 158h96z
M359 567h-75l90 158h96z" />
    <glyph glyph-name="OE" unicode="&#x152;" horiz-adv-x="920" 
d="M464 690h416v-78h-330v-216h300v-78h-300v-240h330v-78h-416v64q-50 -72 -164 -72q-250 0 -250 315v76q0 315 250 315q113 0 164 -72v64zM136 383v-76q0 -122 40 -179.5t124 -57.5t124 57.5t40 179.5v76q0 122 -40 179.5t-124 57.5t-124 -57.5t-40 -179.5z" />
    <glyph glyph-name="oe" unicode="&#x153;" horiz-adv-x="824" 
d="M703 120l62 -44q-26 -45 -67.5 -64.5t-107.5 -19.5q-125 0 -173 95q-45 -95 -169 -95q-98 0 -153 60t-55 166v66q0 106 55 165t153 59q120 0 167 -90q42 90 159 90q98 0 148 -57.5t50 -168.5v-52h-316v-12q0 -71 33.5 -112.5t94.5 -41.5q87 0 119 56zM248 64
q59 0 93.5 42.5t34.5 111.5v66q0 72 -33.5 112t-94.5 40t-94.5 -40.5t-33.5 -111.5v-66q0 -72 33 -113t95 -41zM691 300q-6 136 -117 136t-118 -136h235z" />
    <glyph glyph-name="Racute" unicode="&#x154;" horiz-adv-x="604" 
d="M420 306l154 -306h-96l-144 291h-163v-291h-86v690h220q123 0 187 -51t64 -149q0 -144 -136 -184zM171 612v-243h134q88 0 126.5 28.5t38.5 92.5q0 65 -38.5 93.5t-126.5 28.5h-134zM301 747h-77l80 129h100z" />
    <glyph glyph-name="racute" unicode="&#x155;" horiz-adv-x="394" 
d="M404 440l-68 -48q-30 42 -84 42q-48 0 -77.5 -33.5t-29.5 -87.5v-313h-80v500h80v-49q35 57 116 57q95 0 143 -68zM223 567h-75l70 158h96z" />
    <glyph glyph-name="uni0156" unicode="&#x156;" horiz-adv-x="604" 
d="M420 306l154 -306h-96l-144 291h-163v-291h-86v690h220q123 0 187 -51t64 -149q0 -144 -136 -184zM171 612v-243h134q88 0 126.5 28.5t38.5 92.5q0 65 -38.5 93.5t-126.5 28.5h-134zM247 -64h96v-96l-96 -83v179z" />
    <glyph glyph-name="uni0157" unicode="&#x157;" horiz-adv-x="394" 
d="M404 440l-68 -48q-30 42 -84 42q-48 0 -77.5 -33.5t-29.5 -87.5v-313h-80v500h80v-49q35 57 116 57q95 0 143 -68zM60 -64h96v-96l-96 -83v179z" />
    <glyph glyph-name="Rcaron" unicode="&#x158;" horiz-adv-x="604" 
d="M420 306l154 -306h-96l-144 291h-163v-291h-86v690h220q123 0 187 -51t64 -149q0 -144 -136 -184zM171 612v-243h134q88 0 126.5 28.5t38.5 92.5q0 65 -38.5 93.5t-126.5 28.5h-134zM484 879l-138 -142h-92l-138 142h97l87 -91l87 91h97z" />
    <glyph glyph-name="rcaron" unicode="&#x159;" horiz-adv-x="394" 
d="M404 440l-68 -48q-30 42 -84 42q-48 0 -77.5 -33.5t-29.5 -87.5v-313h-80v500h80v-49q35 57 116 57q95 0 143 -68zM385 700l-108 -142h-92l-108 142h82l72 -97l72 97h82z" />
    <glyph glyph-name="Sacute" unicode="&#x15a;" horiz-adv-x="571" 
d="M511 585l-67 -48q-34 45 -71 64t-93 19q-64 0 -99 -27.5t-35 -80.5q0 -55 37 -83.5t126 -44.5q112 -19 163 -65.5t51 -133.5q0 -85 -61 -139t-171 -54q-168 0 -246 113l71 49q39 -47 77 -65.5t98 -18.5q146 0 146 111q0 55 -37 85t-126 44q-214 33 -214 202
q0 85 58.5 135.5t164.5 50.5q154 0 228 -113zM301 747h-77l80 129h100z" />
    <glyph glyph-name="sacute" unicode="&#x15b;" horiz-adv-x="466" 
d="M406 425l-60 -42q-21 28 -48.5 39.5t-75.5 11.5q-45 0 -71 -17.5t-26 -49.5q0 -71 116 -79q79 -6 124 -34q56 -32 56 -115q0 -70 -48 -108.5t-140 -38.5q-133 0 -193 83l59 42q21 -27 51.5 -39t83.5 -12q50 0 78.5 18.5t28.5 52.5q0 40 -28 57.5t-101 22.5
q-167 12 -167 149q0 66 47.5 104t131.5 38q129 0 182 -83zM247 567h-75l70 158h96z" />
    <glyph glyph-name="Scircumflex" unicode="&#x15c;" horiz-adv-x="571" 
d="M511 585l-67 -48q-34 45 -71 64t-93 19q-64 0 -99 -27.5t-35 -80.5q0 -55 37 -83.5t126 -44.5q112 -19 163 -65.5t51 -133.5q0 -85 -61 -139t-171 -54q-168 0 -246 113l71 49q39 -47 77 -65.5t98 -18.5q146 0 146 111q0 55 -37 85t-126 44q-214 33 -214 202
q0 85 58.5 135.5t164.5 50.5q154 0 228 -113zM104 737l138 142h92l138 -142h-97l-87 91l-87 -91h-97z" />
    <glyph glyph-name="scircumflex" unicode="&#x15d;" horiz-adv-x="466" 
d="M406 425l-60 -42q-21 28 -48.5 39.5t-75.5 11.5q-45 0 -71 -17.5t-26 -49.5q0 -71 116 -79q79 -6 124 -34q56 -32 56 -115q0 -70 -48 -108.5t-140 -38.5q-133 0 -193 83l59 42q21 -27 51.5 -39t83.5 -12q50 0 78.5 18.5t28.5 52.5q0 40 -28 57.5t-101 22.5
q-167 12 -167 149q0 66 47.5 104t131.5 38q129 0 182 -83zM76 558l108 142h92l108 -142h-82l-72 97l-72 -97h-82z" />
    <glyph glyph-name="Scedilla" unicode="&#x15e;" horiz-adv-x="571" 
d="M248 -69l12 62q-145 11 -215 112l71 49q39 -47 77 -65.5t98 -18.5q146 0 146 111q0 55 -37 85t-126 44q-214 33 -214 202q0 85 58.5 135.5t164.5 50.5q154 0 228 -113l-67 -48q-34 45 -71 64t-93 19q-64 0 -99 -27.5t-35 -80.5q0 -55 37 -83.5t126 -44.5
q112 -19 163 -65.5t51 -133.5q0 -75 -51 -130q-53 -56 -157 -62l-4 -16q62 -17 62 -74q0 -38 -30 -60t-81 -22q-25 0 -37 3l12 52q3 -1 19 -1q47 0 47 28t-55 28z" />
    <glyph glyph-name="scedilla" unicode="&#x15f;" horiz-adv-x="466" 
d="M197 -69l13 62q-115 5 -170 82l59 42q21 -27 51.5 -39t83.5 -12q50 0 78.5 18.5t28.5 52.5q0 40 -28 57.5t-101 22.5q-167 12 -167 149q0 66 47.5 104t131.5 38q129 0 182 -83l-60 -42q-21 28 -48.5 39.5t-75.5 11.5q-45 0 -71 -17.5t-26 -49.5q0 -71 116 -79
q79 -6 124 -34q56 -32 56 -115q0 -64 -40 -101.5t-116 -43.5l-5 -17q62 -17 62 -74q0 -38 -30 -60t-81 -22q-25 0 -37 3l12 52q3 -1 19 -1q47 0 47 28t-55 28z" />
    <glyph glyph-name="Scaron" unicode="&#x160;" horiz-adv-x="571" 
d="M511 585l-67 -48q-34 45 -71 64t-93 19q-64 0 -99 -27.5t-35 -80.5q0 -55 37 -83.5t126 -44.5q112 -19 163 -65.5t51 -133.5q0 -85 -61 -139t-171 -54q-168 0 -246 113l71 49q39 -47 77 -65.5t98 -18.5q146 0 146 111q0 55 -37 85t-126 44q-214 33 -214 202
q0 85 58.5 135.5t164.5 50.5q154 0 228 -113zM463 879l-138 -142h-92l-138 142h97l87 -91l87 91h97z" />
    <glyph glyph-name="scaron" unicode="&#x161;" horiz-adv-x="466" 
d="M406 425l-60 -42q-21 28 -48.5 39.5t-75.5 11.5q-45 0 -71 -17.5t-26 -49.5q0 -71 116 -79q79 -6 124 -34q56 -32 56 -115q0 -70 -48 -108.5t-140 -38.5q-133 0 -193 83l59 42q21 -27 51.5 -39t83.5 -12q50 0 78.5 18.5t28.5 52.5q0 40 -28 57.5t-101 22.5
q-167 12 -167 149q0 66 47.5 104t131.5 38q129 0 182 -83zM386 700l-108 -142h-92l-108 142h82l72 -97l72 97h82z" />
    <glyph glyph-name="uni0162" unicode="&#x162;" horiz-adv-x="516" 
d="M217 -69l14 69h-16v612h-210v78h506v-78h-210v-612h-15l-6 -23q62 -17 62 -74q0 -38 -30 -60t-81 -22q-25 0 -37 3l12 52q3 -1 19 -1q47 0 47 28t-55 28z" />
    <glyph glyph-name="uni0163" unicode="&#x163;" horiz-adv-x="315" 
d="M158 -69l15 76q-47 12 -67.5 46.5t-20.5 100.5v274h-64v72h64v110h80v-110h115v-72h-115v-254q0 -59 14.5 -78.5t60.5 -19.5h40v-76h-53l-6 -23q62 -17 62 -74q0 -38 -30 -60t-81 -22q-25 0 -37 3l12 52q3 -1 19 -1q47 0 47 28t-55 28z" />
    <glyph glyph-name="Tcaron" unicode="&#x164;" horiz-adv-x="516" 
d="M442 879l-138 -142h-92l-138 142h97l87 -91l87 91h97zM5 612v78h506v-78h-210v-612h-86v612h-210z" />
    <glyph glyph-name="tcaron" unicode="&#x165;" horiz-adv-x="371" 
d="M85 428h-64v72h64v110h80v-110h115v-72h-115v-254q0 -59 14.5 -78.5t60.5 -19.5h40v-76h-43q-84 0 -118 35t-34 119v274zM295 690h96v-96l-96 -83v179z" />
    <glyph glyph-name="Umacron" unicode="&#x16a;" horiz-adv-x="670" 
d="M499 280v410h86v-409q0 -143 -64 -216t-186 -73t-186 72.5t-64 215.5v410h86v-410q0 -108 40 -159t124 -51t124 51t40 159zM489 768h-309v72h309v-72z" />
    <glyph glyph-name="umacron" unicode="&#x16b;" horiz-adv-x="526" 
d="M381 500h80v-500h-80v49q-21 -31 -51 -44t-83 -13q-88 0 -135 49t-47 147v312h80v-311q0 -123 114 -123q54 0 88 34t34 88v312zM398 600h-269v72h269v-72z" />
    <glyph glyph-name="Ubreve" unicode="&#x16c;" horiz-adv-x="670" 
d="M499 280v410h86v-409q0 -143 -64 -216t-186 -73t-186 72.5t-64 215.5v410h86v-410q0 -108 40 -159t124 -51t124 51t40 159zM442 880h78q0 -72 -49 -112t-135 -40q-87 0 -136 40t-49 112h78q8 -74 107 -74q98 0 106 74z" />
    <glyph glyph-name="ubreve" unicode="&#x16d;" horiz-adv-x="526" 
d="M381 500h80v-500h-80v49q-21 -31 -51 -44t-83 -13q-88 0 -135 49t-47 147v312h80v-311q0 -123 114 -123q54 0 88 34t34 88v312zM334 690h65q-4 -118 -136 -118t-136 118h66q6 -60 70 -60q65 0 71 60z" />
    <glyph glyph-name="Uring" unicode="&#x16e;" horiz-adv-x="670" 
d="M499 280v410h86v-409q0 -143 -64 -216t-186 -73t-186 72.5t-64 215.5v410h86v-410q0 -108 40 -159t124 -51t124 51t40 159zM335 702q-51 0 -80.5 31t-29.5 67.5t29.5 67.5t80.5 31q52 0 81.5 -31t29.5 -67.5t-29.5 -67.5t-81.5 -31zM278 800q0 -22 18 -34.5t39 -12.5
t39 12.5t18 34.5q3 29 -27 41.5t-60 0.5t-27 -42z" />
    <glyph glyph-name="uring" unicode="&#x16f;" horiz-adv-x="526" 
d="M381 500h80v-500h-80v49q-21 -31 -51 -44t-83 -13q-88 0 -135 49t-47 147v312h80v-311q0 -123 114 -123q54 0 88 34t34 88v312zM155 646q0 46 32 78t77 32q46 0 78 -32t32 -78q0 -45 -32 -77t-78 -32q-45 0 -77 32t-32 77zM207 646q0 -23 17 -40t40 -17q24 0 40.5 17
t16.5 40q0 24 -16.5 40.5t-40.5 16.5q-23 0 -40 -16.5t-17 -40.5z" />
    <glyph glyph-name="Uhungarumlaut" unicode="&#x170;" horiz-adv-x="670" 
d="M499 280v410h86v-409q0 -143 -64 -216t-186 -73t-186 72.5t-64 215.5v410h86v-410q0 -108 40 -159t124 -51t124 51t40 159zM280 747h-77l80 129h100zM450 747h-77l90 129h100z" />
    <glyph glyph-name="uhungarumlaut" unicode="&#x171;" horiz-adv-x="526" 
d="M381 500h80v-500h-80v49q-21 -31 -51 -44t-83 -13q-88 0 -135 49t-47 147v312h80v-311q0 -123 114 -123q54 0 88 34t34 88v312zM220 567h-75l70 158h96zM374 567h-75l90 158h96z" />
    <glyph glyph-name="Uogonek" unicode="&#x172;" horiz-adv-x="670" 
d="M499 280v410h86v-409q0 -257 -201 -285q-55 -34 -55 -63q0 -28 45 -28q18 0 21 1l12 -52q-12 -3 -44 -3q-73 0 -97.5 47.5t23.5 96.5q-204 24 -204 285v410h86v-410q0 -108 40 -159t124 -51t124 51t40 159z" />
    <glyph glyph-name="uogonek" unicode="&#x173;" horiz-adv-x="526" 
d="M381 500h80v-500q-37 -22 -50 -36q-15 -15 -15 -32q0 -28 45 -28q1 0 4 0.5t8 1t9 0.5l12 -53q-12 -3 -44 -3q-46 0 -75 20t-29 56q0 50 55 87v36q-21 -31 -51 -44t-83 -13q-88 0 -135 49t-47 147v312h80v-311q0 -123 114 -123q54 0 88 34t34 88v312z" />
    <glyph glyph-name="Ydieresis" unicode="&#x178;" horiz-adv-x="556" 
d="M218 779h-90v90h90v-90zM428 779h-90v90h90v-90zM235 296l-215 394h101l157 -300l157 300h101l-215 -394v-296h-86v296z" />
    <glyph glyph-name="Zacute" unicode="&#x179;" horiz-adv-x="519" 
d="M279 747h-77l80 129h100zM30 612v78h449v-58l-338 -554h348v-78h-459v58l337 554h-337z" />
    <glyph glyph-name="zacute" unicode="&#x17a;" horiz-adv-x="450" 
d="M258 567h-75l70 158h96zM41 0v62l264 366h-264v72h369v-62l-262 -366h262v-72h-369z" />
    <glyph glyph-name="Zdotaccent" unicode="&#x17b;" horiz-adv-x="519" 
d="M303 779h-90v90h90v-90zM30 612v78h449v-58l-338 -554h348v-78h-459v58l337 554h-337z" />
    <glyph glyph-name="zdotaccent" unicode="&#x17c;" horiz-adv-x="450" 
d="M276 600h-90v90h90v-90zM41 0v62l264 366h-264v72h369v-62l-262 -366h262v-72h-369z" />
    <glyph glyph-name="Zcaron" unicode="&#x17d;" horiz-adv-x="519" 
d="M454 879l-138 -142h-92l-138 142h97l87 -91l87 91h97zM30 612v78h449v-58l-338 -554h348v-78h-459v58l337 554h-337z" />
    <glyph glyph-name="zcaron" unicode="&#x17e;" horiz-adv-x="450" 
d="M388 700l-108 -142h-92l-108 142h82l72 -97l72 97h82zM41 0v62l264 366h-264v72h369v-62l-262 -366h262v-72h-369z" />
    <glyph glyph-name="uni018F" unicode="&#x18f;" horiz-adv-x="604" 
d="M50 307v40h418v36q0 122 -40 179.5t-124 57.5q-134 0 -164 -145h-84q16 110 79.5 166.5t168.5 56.5q250 0 250 -315v-76q0 -315 -250 -315q-124 0 -189 79t-65 236zM304 70q76 0 116 48t47 151h-330q7 -102 48 -150.5t119 -48.5z" />
    <glyph glyph-name="florin" unicode="&#x192;" 
d="M137 422v78h64v36q0 84 34 119t118 35h23v-78h-20q-46 0 -60 -20q-12 -20 -12 -76v-16h92v-78h-92v-458q0 -82 -39 -118t-129 -36v78q61 0 73 29q12 23 12 67v438h-64z" />
    <glyph glyph-name="uni01DD" unicode="&#x1dd;" horiz-adv-x="488" 
d="M121 380l-62 44q26 45 67.5 64.5t107.5 19.5q100 0 157 -60.5t57 -165.5v-66q0 -108 -51 -166t-147 -58q-98 0 -148 57.5t-50 166.5v52h316v14q0 71 -33.5 112.5t-94.5 41.5q-87 0 -119 -56zM250 64q110 0 118 134h-235q6 -134 117 -134z" />
    <glyph glyph-name="uni0218" unicode="&#x218;" horiz-adv-x="571" 
d="M511 585l-67 -48q-34 45 -71 64t-93 19q-64 0 -99 -27.5t-35 -80.5q0 -55 37 -83.5t126 -44.5q112 -19 163 -65.5t51 -133.5q0 -85 -61 -139t-171 -54q-168 0 -246 113l71 49q39 -47 77 -65.5t98 -18.5q146 0 146 111q0 55 -37 85t-126 44q-214 33 -214 202
q0 85 58.5 135.5t164.5 50.5q154 0 228 -113zM253 -64h96v-96l-96 -83v179z" />
    <glyph glyph-name="uni0219" unicode="&#x219;" horiz-adv-x="466" 
d="M406 425l-60 -42q-21 28 -48.5 39.5t-75.5 11.5q-45 0 -71 -17.5t-26 -49.5q0 -71 116 -79q79 -6 124 -34q56 -32 56 -115q0 -70 -48 -108.5t-140 -38.5q-133 0 -193 83l59 42q21 -27 51.5 -39t83.5 -12q50 0 78.5 18.5t28.5 52.5q0 40 -28 57.5t-101 22.5
q-167 12 -167 149q0 66 47.5 104t131.5 38q129 0 182 -83zM187 -64h96v-96l-96 -83v179z" />
    <glyph glyph-name="uni021A" unicode="&#x21a;" horiz-adv-x="516" 
d="M5 612v78h506v-78h-210v-612h-86v612h-210zM210 -64h96v-96l-96 -83v179z" />
    <glyph glyph-name="uni021B" unicode="&#x21b;" horiz-adv-x="315" 
d="M85 428h-64v72h64v110h80v-110h115v-72h-115v-254q0 -59 14.5 -78.5t60.5 -19.5h40v-76h-43q-84 0 -118 35t-34 119v274zM137 -64h96v-96l-96 -83v179z" />
    <glyph glyph-name="uni0237" unicode="&#x237;" horiz-adv-x="235" 
d="M85 500h80v-536q0 -83 -37.5 -118.5t-127.5 -35.5v74q61 0 73 31q12 23 12 69v516z" />
    <glyph glyph-name="uni0259" unicode="&#x259;" horiz-adv-x="488" 
d="M121 380l-62 44q26 45 67.5 64.5t107.5 19.5q100 0 157 -60.5t57 -165.5v-66q0 -108 -51 -166t-147 -58q-98 0 -148 57.5t-50 166.5v52h316v14q0 71 -33.5 112.5t-94.5 41.5q-87 0 -119 -56zM250 64q110 0 118 134h-235q6 -134 117 -134z" />
    <glyph glyph-name="uni02BC" unicode="&#x2bc;" horiz-adv-x="151" 
d="M35 500h96v-146l-96 -83v229z" />
    <glyph glyph-name="circumflex" unicode="&#x2c6;" horiz-adv-x="407" 
d="M49 558l108 142h92l108 -142h-82l-72 97l-72 -97h-82z" />
    <glyph glyph-name="caron" unicode="&#x2c7;" horiz-adv-x="407" 
d="M357 700l-108 -142h-92l-108 142h82l72 -97l72 97h82z" />
    <glyph glyph-name="breve" unicode="&#x2d8;" horiz-adv-x="399" 
d="M270 690h65q-4 -118 -136 -118t-136 118h66q6 -60 70 -60q65 0 71 60z" />
    <glyph glyph-name="dotaccent" unicode="&#x2d9;" horiz-adv-x="299" 
d="M194 600h-90v90h90v-90z" />
    <glyph glyph-name="ring" unicode="&#x2da;" horiz-adv-x="373" 
d="M77 646q0 46 32 78t77 32q46 0 78 -32t32 -78q0 -45 -32 -77t-78 -32q-45 0 -77 32t-32 77zM129 646q0 -23 17 -40t40 -17q24 0 40.5 17t16.5 40q0 24 -16.5 40.5t-40.5 16.5q-23 0 -40 -16.5t-17 -40.5z" />
    <glyph glyph-name="ogonek" unicode="&#x2db;" horiz-adv-x="333" 
d="M216 52l11 -52q-37 -22 -50 -36q-15 -15 -15 -32q0 -28 45 -28q1 0 4 0.5t8 1t9 0.5l12 -53q-12 -3 -44 -3q-46 0 -75 20t-29 56q0 38 28.5 66.5t95.5 59.5z" />
    <glyph glyph-name="tilde" unicode="&#x2dc;" horiz-adv-x="420" 
d="M268 589q-24 0 -59 13q-39 14 -56 14q-33 0 -59 -26l-47 44q44 50 106 50q18 0 58 -14q35 -13 58 -13q31 0 57 26l47 -44q-44 -50 -105 -50z" />
    <glyph glyph-name="hungarumlaut" unicode="&#x2dd;" horiz-adv-x="453" 
d="M131 567h-75l70 158h96zM285 567h-75l90 158h96z" />
    <glyph glyph-name="acutecomb" unicode="&#x301;" horiz-adv-x="0" 
d="M-226 567h-75l70 158h96z" />
    <glyph glyph-name="uni0394" unicode="&#x2206;" horiz-adv-x="531" 
d="M315 690l196 -690h-491l195 690h100zM132 78h266l-133 497z" />
    <glyph glyph-name="uni0394" unicode="&#x394;" horiz-adv-x="531" 
d="M315 690l196 -690h-491l195 690h100zM132 78h266l-133 497z" />
    <glyph glyph-name="uni03A9" unicode="&#x2126;" horiz-adv-x="620" 
d="M486 78h74v-78h-184v78q27 16 48 38q22 23 36 74.5t14 118.5v74q0 122 -40 179.5t-124 57.5t-124 -57.5t-40 -179.5v-74q0 -112 31 -165q27 -44 67 -66v-78h-184v78h74q-74 77 -74 231v74q0 315 250 315t250 -315v-74q0 -154 -74 -231z" />
    <glyph glyph-name="uni03A9" unicode="&#x3a9;" horiz-adv-x="620" 
d="M486 78h74v-78h-184v78q27 16 48 38q22 23 36 74.5t14 118.5v74q0 122 -40 179.5t-124 57.5t-124 -57.5t-40 -179.5v-74q0 -112 31 -165q27 -44 67 -66v-78h-184v78h74q-74 77 -74 231v74q0 315 250 315t250 -315v-74q0 -154 -74 -231z" />
    <glyph glyph-name="pi" unicode="&#x3c0;" horiz-adv-x="581" 
d="M391 154v274h-236v-428h-80v428h-85v72h566v-72h-85v-254q0 -40 11 -70q16 -30 74 -30v-74q-90 0 -127.5 35.5t-37.5 118.5z" />
    <glyph glyph-name="uni0401" unicode="&#x401;" horiz-adv-x="541" 
d="M229 779h-90v90h90v-90zM439 779h-90v90h90v-90zM85 0v690h416v-78h-330v-216h300v-78h-300v-240h330v-78h-416z" />
    <glyph glyph-name="uni0402" unicode="&#x402;" horiz-adv-x="727" 
d="M5 612v78h506v-78h-210v-227q21 20 64 33.5t90 13.5q123 0 175.5 -55.5t52.5 -182.5v-27q0 -86 -38 -130q-13 -16 -39 -25q-33 -12 -84 -12h-31v78h31q39 0 57 22.5t18 70.5v23q0 87 -36 123.5t-120 36.5q-100 0 -140 -61v-293h-86v612h-210z" />
    <glyph glyph-name="uni0403" unicode="&#x403;" horiz-adv-x="481" 
d="M313 747h-77l80 129h100zM85 690h396v-78h-310v-612h-86v690z" />
    <glyph glyph-name="uni0404" unicode="&#x404;" horiz-adv-x="578" 
d="M548 475h-84q-17 76 -56.5 110.5t-107.5 34.5q-84 0 -124 -57t-40 -177h261v-78h-261q0 -123 40 -180.5t124 -57.5q68 0 107.5 35t56.5 110h83q-15 -110 -78.5 -166.5t-168.5 -56.5q-250 0 -250 315v76q0 315 250 315q105 0 168.5 -56.5t79.5 -166.5z" />
    <glyph glyph-name="uni0405" unicode="&#x405;" horiz-adv-x="571" 
d="M511 585l-67 -48q-34 45 -71 64t-93 19q-64 0 -99 -27.5t-35 -80.5q0 -55 37 -83.5t126 -44.5q112 -19 163 -65.5t51 -133.5q0 -85 -61 -139t-171 -54q-168 0 -246 113l71 49q39 -47 77 -65.5t98 -18.5q146 0 146 111q0 55 -37 85t-126 44q-214 33 -214 202
q0 85 58.5 135.5t164.5 50.5q154 0 228 -113z" />
    <glyph glyph-name="uni0406" unicode="&#x406;" horiz-adv-x="276" 
d="M184 779h-90v90h90v-90zM95 690h86v-690h-86v690z" />
    <glyph glyph-name="uni0407" unicode="&#x407;" horiz-adv-x="276" 
d="M78 779h-90v90h90v-90zM288 779h-90v90h90v-90zM95 690h86v-690h-86v690z" />
    <glyph glyph-name="uni0408" unicode="&#x408;" horiz-adv-x="505" 
d="M5 78l74 42q38 -50 109 -50q76 0 111 50t35 164v406h86v-406q0 -292 -232 -292q-129 0 -183 86z" />
    <glyph glyph-name="uni0409" unicode="&#x409;" horiz-adv-x="983" 
d="M144 530v160h414v-273h147q121 0 180 -62q58 -61 58 -147q0 -91 -60.5 -149.5t-177.5 -58.5h-233v612h-242v-82q0 -312 -36 -404q-21 -56 -60.5 -86t-113.5 -48v97q71 16 94 78q30 83 30 363zM705 339h-147v-261h147q73 0 112.5 34.5t39.5 95.5q0 62 -39.5 96.5
t-112.5 34.5z" />
    <glyph glyph-name="uni040A" unicode="&#x40a;" horiz-adv-x="978" 
d="M85 690h86v-294h296v294h86v-273h147q121 0 180 -62q58 -61 58 -147q0 -91 -60.5 -149.5t-177.5 -58.5h-233v318h-296v-318h-86v690zM700 339h-147v-261h147q73 0 112.5 34.5t39.5 95.5q0 62 -39.5 96.5t-112.5 34.5z" />
    <glyph glyph-name="uni040B" unicode="&#x40b;" horiz-adv-x="727" 
d="M683 0h-86v194q0 87 -36 123.5t-120 36.5q-100 0 -140 -61v-293h-86v612h-210v78h506v-78h-210v-227q21 20 64 33.5t90 13.5q123 0 175.5 -55.5t52.5 -182.5v-194z" />
    <glyph glyph-name="uni040C" unicode="&#x40c;" horiz-adv-x="603" 
d="M322 747h-77l80 129h100zM342 350l251 -350h-105l-220 308h-97v-308h-86v690h86v-304h95l190 304h96z" />
    <glyph glyph-name="uni040E" unicode="&#x40e;" horiz-adv-x="582" 
d="M306 263l172 427h90l-235 -574q-30 -72 -71 -98t-127 -26v79q57 0 79 13q26 14 45 63l3 8l-237 535h94zM391 879h81q0 -142 -174 -142q-175 0 -175 142h82q0 -80 93 -80t93 80z" />
    <glyph glyph-name="uni040F" unicode="&#x40f;" horiz-adv-x="638" 
d="M362 0v-130h-86v130h-191v690h86v-612h296v612h86v-690h-191z" />
    <glyph glyph-name="uni0410" unicode="&#x410;" horiz-adv-x="580" 
d="M154 158l-53 -158h-91l240 690h80l240 -690h-91l-53 158h-272zM399 236l-109 324l-109 -324h218z" />
    <glyph glyph-name="uni0411" unicode="&#x411;" horiz-adv-x="596" 
d="M85 690h427v-78h-341v-195h147q121 0 180 -62q58 -61 58 -147q0 -91 -60.5 -149.5t-177.5 -58.5h-233v690zM318 339h-147v-261h147q73 0 112.5 34.5t39.5 95.5q0 62 -39.5 96.5t-112.5 34.5z" />
    <glyph glyph-name="uni0412" unicode="&#x412;" horiz-adv-x="596" 
d="M85 0v690h211q238 0 238 -176q0 -54 -32 -98t-82 -56q65 -12 100.5 -54t35.5 -108q0 -84 -58 -141q-57 -57 -180 -57h-233zM302 319h-131v-241h147q152 0 152 120q0 62 -41 91.5t-127 29.5zM296 613h-125v-216h140q67 0 102 30.5t35 86.5q0 52 -35 75.5t-117 23.5z" />
    <glyph glyph-name="uni0413" unicode="&#x413;" horiz-adv-x="481" 
d="M85 690h396v-78h-310v-612h-86v690z" />
    <glyph glyph-name="uni0414" unicode="&#x414;" horiz-adv-x="666" 
d="M96 0v-130h-86v208h30q44 25 73 119q33 105 33 335v158h414v-612h86v-208h-86v130h-464zM190 156q-15 -50 -40 -78h324v534h-242v-80q0 -252 -42 -376z" />
    <glyph glyph-name="uni0415" unicode="&#x415;" horiz-adv-x="541" 
d="M85 0v690h416v-78h-330v-216h300v-78h-300v-240h330v-78h-416z" />
    <glyph glyph-name="uni0416" unicode="&#x416;" horiz-adv-x="868" 
d="M300 308l-187 -308h-103l212 349l-171 341h94l150 -304h96v304h86v-304h95l151 304h94l-172 -341l213 -349h-103l-187 308h-91v-308h-86v308h-91z" />
    <glyph glyph-name="uni0417" unicode="&#x417;" horiz-adv-x="558" 
d="M264 319h-53v78h62q68 0 102.5 30.5t34.5 87.5q0 51 -31.5 78.5t-92.5 27.5t-98 -25.5t-55 -81.5h-80q12 84 78 134q68 50 150 50q103 0 159 -48t56 -135q0 -109 -114 -152q60 -14 98 -60t38 -106q0 -83 -56 -145q-56 -60 -173 -60q-202 0 -248 196h85q25 -64 61.5 -91
t101.5 -27q68 0 105.5 33.5t37.5 93.5q0 122 -168 122z" />
    <glyph glyph-name="uni0418" unicode="&#x418;" horiz-adv-x="656" 
d="M85 0v690h86v-519l328 519h72v-690h-86v514l-326 -514h-74z" />
    <glyph glyph-name="uni0419" unicode="&#x419;" horiz-adv-x="656" 
d="M432 879h81q0 -142 -174 -142q-175 0 -175 142h82q0 -80 93 -80t93 80zM85 0v690h86v-519l328 519h72v-690h-86v514l-326 -514h-74z" />
    <glyph glyph-name="uni041A" unicode="&#x41a;" horiz-adv-x="603" 
d="M342 350l251 -350h-105l-220 308h-97v-308h-86v690h86v-304h95l190 304h96z" />
    <glyph glyph-name="uni041B" unicode="&#x41b;" horiz-adv-x="643" 
d="M144 530v160h414v-690h-86v612h-242v-82q0 -312 -36 -404q-21 -56 -60.5 -86t-113.5 -48v97q71 16 94 78q30 83 30 363z" />
    <glyph glyph-name="uni041C" unicode="&#x41c;" horiz-adv-x="752" 
d="M85 690h84l207 -430l206 430h85v-690h-86v506l-168 -362h-77l-165 359v-503h-86v690z" />
    <glyph glyph-name="uni041D" unicode="&#x41d;" horiz-adv-x="638" 
d="M85 690h86v-294h296v294h86v-690h-86v318h-296v-318h-86v690z" />
    <glyph glyph-name="uni041E" unicode="&#x41e;" horiz-adv-x="600" 
d="M550 383v-76q0 -315 -250 -315t-250 315v76q0 315 250 315t250 -315zM136 383v-76q0 -122 40 -179.5t124 -57.5t124 57.5t40 179.5v76q0 122 -40 179.5t-124 57.5t-124 -57.5t-40 -179.5z" />
    <glyph glyph-name="uni041F" unicode="&#x41f;" horiz-adv-x="638" 
d="M85 0v690h468v-690h-86v612h-296v-612h-86z" />
    <glyph glyph-name="uni0420" unicode="&#x420;" horiz-adv-x="588" 
d="M305 263h-134v-263h-86v690h220q119 0 185 -56.5t66 -157.5q0 -100 -66 -156.5t-185 -56.5zM171 612v-271h134q165 0 165 135q0 136 -165 136h-134z" />
    <glyph glyph-name="uni0421" unicode="&#x421;" horiz-adv-x="578" 
d="M548 475h-84q-17 76 -56.5 110.5t-107.5 34.5q-84 0 -124 -57.5t-40 -179.5v-76q0 -122 40 -179.5t124 -57.5q68 0 107.5 35t56.5 110h83q-15 -110 -78.5 -166.5t-168.5 -56.5q-250 0 -250 315v76q0 315 250 315q105 0 168.5 -56.5t79.5 -166.5z" />
    <glyph glyph-name="uni0422" unicode="&#x422;" horiz-adv-x="516" 
d="M5 612v78h506v-78h-210v-612h-86v612h-210z" />
    <glyph glyph-name="uni0423" unicode="&#x423;" horiz-adv-x="582" 
d="M306 263l172 427h90l-235 -574q-30 -72 -71 -98t-127 -26v79q57 0 79 13q26 14 45 63l3 8l-237 535h94z" />
    <glyph glyph-name="uni0424" unicode="&#x424;" horiz-adv-x="746" 
d="M330 636v54h86v-54q280 0 280 -275v-32q0 -275 -280 -275v-54h-86v54q-280 0 -280 275v32q0 275 280 275zM416 558v-426q95 0 144.5 45.5t49.5 151.5v32q0 106 -49.5 151.5t-144.5 45.5zM330 132v426q-95 0 -144.5 -45.5t-49.5 -151.5v-32q0 -106 49.5 -151.5
t144.5 -45.5z" />
    <glyph glyph-name="uni0425" unicode="&#x425;" horiz-adv-x="552" 
d="M276 271l-161 -271h-95l206 356l-185 334h95l140 -256l140 256h95l-186 -334l207 -356h-95z" />
    <glyph glyph-name="uni0426" unicode="&#x426;" horiz-adv-x="649" 
d="M85 690h86v-612h296v612h86v-612h86v-208h-86v130h-468v690z" />
    <glyph glyph-name="uni0427" unicode="&#x427;" horiz-adv-x="588" 
d="M35 690h86v-194q0 -92 34 -126t122 -34q110 0 140 61v293h86v-690h-86v299q-41 -41 -154 -41q-131 0 -180 55q-48 55 -48 183v194z" />
    <glyph glyph-name="uni0428" unicode="&#x428;" horiz-adv-x="860" 
d="M85 690h86v-612h216v612h86v-612h216v612h86v-690h-690v690z" />
    <glyph glyph-name="uni0429" unicode="&#x429;" horiz-adv-x="871" 
d="M85 690h86v-612h216v612h86v-612h216v612h86v-612h86v-208h-86v130h-690v690z" />
    <glyph glyph-name="uni042A" unicode="&#x42a;" horiz-adv-x="644" 
d="M-20 612v78h239v-273h147q121 0 180 -62q58 -61 58 -147q0 -91 -60.5 -149.5t-177.5 -58.5h-233v612h-153zM366 339h-147v-261h147q73 0 112.5 34.5t39.5 95.5q0 62 -39.5 96.5t-112.5 34.5z" />
    <glyph glyph-name="uni042B" unicode="&#x42b;" horiz-adv-x="776" 
d="M85 0v690h86v-273h117q121 0 180 -62q58 -61 58 -147q0 -91 -60.5 -149.5t-177.5 -58.5h-203zM288 339h-117v-261h117q73 0 112.5 34.5t39.5 95.5q0 62 -39.5 96.5t-112.5 34.5zM605 690h86v-690h-86v690z" />
    <glyph glyph-name="uni042C" unicode="&#x42c;" horiz-adv-x="596" 
d="M85 0v690h86v-273h147q121 0 180 -62q58 -61 58 -147q0 -91 -60.5 -149.5t-177.5 -58.5h-233zM318 339h-147v-261h147q73 0 112.5 34.5t39.5 95.5q0 62 -39.5 96.5t-112.5 34.5z" />
    <glyph glyph-name="uni042D" unicode="&#x42d;" horiz-adv-x="578" 
d="M442 308h-261v78h261q-1 120 -41.5 177t-122.5 57q-68 0 -107.5 -34.5t-56.5 -110.5h-84q16 110 79.5 166.5t168.5 56.5q250 0 250 -315v-76q0 -315 -250 -315q-105 0 -168.5 56.5t-78.5 166.5h83q17 -75 56.5 -110t107.5 -35q84 0 124 57.5t40 180.5z" />
    <glyph glyph-name="uni042E" unicode="&#x42e;" horiz-adv-x="788" 
d="M738 383v-76q0 -315 -230 -315t-230 315v11h-107v-318h-86v690h86v-294h107q5 302 230 302q230 0 230 -315zM364 383v-76q0 -125 34.5 -181t109.5 -56t109.5 56t34.5 181v76q0 125 -34.5 181t-109.5 56t-109.5 -56t-34.5 -181z" />
    <glyph glyph-name="uni042F" unicode="&#x42f;" horiz-adv-x="604" 
d="M286 291l-170 -291h-96l178 302q-150 36 -150 188q0 98 64 149t187 51h220v-690h-86v291h-147zM299 369h134v243h-134q-88 0 -126.5 -28.5t-38.5 -93.5q0 -64 38.5 -92.5t126.5 -28.5z" />
    <glyph glyph-name="uni0430" unicode="&#x430;" horiz-adv-x="491" 
d="M40 146q0 143 187 143h119v58q0 50 -24 68.5t-87 18.5q-52 0 -76 -10t-44 -41l-60 42q27 45 68.5 64t112.5 19q101 0 145.5 -37.5t44.5 -123.5v-347h-80v49q-20 -33 -47.5 -45t-79.5 -12q-86 0 -132.5 40.5t-46.5 113.5zM346 192v29h-119q-56 0 -81.5 -18.5t-25.5 -58.5
q0 -78 99 -78q63 0 95 24q32 26 32 102z" />
    <glyph glyph-name="uni0431" unicode="&#x431;" horiz-adv-x="497" 
d="M398 722l45 -57q-23 -39 -87 -45l-95 -7q-79 -6 -111 -65q-16 -33 -24 -99q48 59 131 59q93 0 146 -59.5t53 -164.5v-66q0 -106 -53.5 -166t-154.5 -60q-98 0 -153 60t-55 166v64q0 217 44 308q45 90 162 99l99 8q34 3 53 25zM248 64q59 0 93.5 42.5t34.5 111.5v66
q0 72 -33.5 112t-94.5 40t-94.5 -40.5t-33.5 -111.5v-66q0 -72 33 -113t95 -41z" />
    <glyph glyph-name="uni0432" unicode="&#x432;" horiz-adv-x="492" 
d="M65 0v500h185q84 0 131 -34t47 -96q0 -32 -18 -58.5t-46 -39.5q42 -13 67.5 -47.5t25.5 -81.5q0 -64 -48 -103.5t-133 -39.5h-211zM245 226h-100v-154h112q110 0 110 78q0 42 -28 59t-94 17zM227 428h-82v-130h93q100 0 100 66q0 33 -26 48.5t-85 15.5z" />
    <glyph glyph-name="uni0433" unicode="&#x433;" horiz-adv-x="359" 
d="M65 500h304v-72h-224v-428h-80v500z" />
    <glyph glyph-name="uni0434" unicode="&#x434;" horiz-adv-x="536" 
d="M97 0v-117h-80v189h39q17 14 40 66q24 62 24 237v125h326v-428h70v-189h-80v117h-339zM163 90l-10 -18h213v356h-166v-67q0 -198 -37 -271z" />
    <glyph glyph-name="uni0435" unicode="&#x435;" horiz-adv-x="488" 
d="M367 120l62 -44q-26 -45 -67.5 -64.5t-107.5 -19.5q-100 0 -157 60.5t-57 165.5v66q0 108 51 166t147 58q98 0 148 -57.5t50 -166.5v-52h-316v-14q0 -71 33.5 -112.5t94.5 -41.5q87 0 119 56zM238 436q-110 0 -118 -134h235q-6 134 -117 134z" />
    <glyph glyph-name="uni0436" unicode="&#x436;" horiz-adv-x="666" 
d="M433 286l115 214h87l-132 -243l153 -257h-94l-126 216h-63v-216h-80v216h-63l-126 -216h-94l153 257l-132 243h87l115 -214h60v214h80v-214h60z" />
    <glyph glyph-name="uni0437" unicode="&#x437;" horiz-adv-x="448" 
d="M184 226h-43v72h46q104 0 104 73q0 31 -23 48t-66 17q-62 0 -109 -50l-63 44q58 78 177 78q77 0 125.5 -36t48.5 -91q0 -77 -74 -112q42 -13 67.5 -47t25.5 -81q0 -61 -48 -105q-47 -44 -140 -44q-140 0 -189 84l62 44q36 -56 124 -56q46 0 73.5 22.5t27.5 61.5
q0 78 -126 78z" />
    <glyph glyph-name="uni0438" unicode="&#x438;" horiz-adv-x="536" 
d="M65 500h80v-361l249 361h77v-500h-80v368l-251 -368h-75v500z" />
    <glyph glyph-name="uni0439" unicode="&#x439;" horiz-adv-x="536" 
d="M333 690h71q0 -118 -136 -118t-136 118h71q0 -62 65 -62t65 62zM65 500h80v-361l249 361h77v-500h-80v368l-251 -368h-75v500z" />
    <glyph glyph-name="uni043A" unicode="&#x43a;" horiz-adv-x="469" 
d="M205 286l144 214h94l-164 -242l180 -258h-97l-151 216h-66v-216h-80v500h80v-214h60z" />
    <glyph glyph-name="uni043B" unicode="&#x43b;" horiz-adv-x="510" 
d="M109 299v201h336v-500h-80v428h-176v-157q0 -119 -26 -183q-37 -91 -143 -100v80q55 15 73 69q16 44 16 162z" />
    <glyph glyph-name="uni043C" unicode="&#x43c;" horiz-adv-x="636" 
d="M65 500h78l175 -312l175 312h78v-500h-80v348l-143 -253h-67l-136 250v-345h-80v500z" />
    <glyph glyph-name="uni043D" unicode="&#x43d;" horiz-adv-x="526" 
d="M65 500h80v-210h236v210h80v-500h-80v218h-236v-218h-80v500z" />
    <glyph glyph-name="uni043E" unicode="&#x43e;" horiz-adv-x="496" 
d="M456 284v-66q0 -106 -53.5 -166t-154.5 -60q-98 0 -153 60t-55 166v66q0 106 55 165t153 59q99 0 153.5 -58.5t54.5 -165.5zM248 64q59 0 93.5 42.5t34.5 111.5v66q0 72 -33.5 112t-94.5 40t-94.5 -40.5t-33.5 -111.5v-66q0 -72 33 -113t95 -41z" />
    <glyph glyph-name="uni043F" unicode="&#x43f;" horiz-adv-x="526" 
d="M65 0v500h396v-500h-80v428h-236v-428h-80z" />
    <glyph glyph-name="uni0440" unicode="&#x440;" horiz-adv-x="521" 
d="M145 500v-50q42 58 136 58t147 -58.5t53 -165.5v-66q0 -105 -52.5 -165.5t-147.5 -60.5q-94 0 -136 58v-240h-80v690h80zM273 64q59 0 93.5 42.5t34.5 111.5v66q0 72 -33.5 112t-94.5 40q-60 0 -94 -38.5t-34 -106.5v-73q0 -72 33 -113t95 -41z" />
    <glyph glyph-name="uni0441" unicode="&#x441;" horiz-adv-x="444" 
d="M367 120l62 -44q-45 -84 -173 -84q-101 0 -158.5 60.5t-57.5 165.5v66q0 106 57 165t159 59q118 0 173 -78l-63 -44q-35 50 -110 50q-64 0 -100 -40.5t-36 -111.5v-66q0 -72 35 -113t101 -41q82 0 111 56z" />
    <glyph glyph-name="uni0442" unicode="&#x442;" horiz-adv-x="407" 
d="M0 428v72h407v-72h-164v-428h-80v428h-163z" />
    <glyph glyph-name="uni0443" unicode="&#x443;" horiz-adv-x="466" 
d="M199 -12l2 7l-196 505h86l149 -388l131 388h85l-176 -516l-20 -55q-23 -57 -47 -77q-48 -42 -141 -42v78q54 0 79 19q27 18 48 81z" />
    <glyph glyph-name="uni0444" unicode="&#x444;" horiz-adv-x="648" 
d="M284 690h80v-182q118 0 181 -57.5t63 -166.5v-66q0 -108 -63.5 -167t-180.5 -59v-182h-80v182q-117 0 -180.5 59t-63.5 167v66q0 109 63 166.5t181 57.5v182zM528 218v66q0 152 -164 152v-372q164 0 164 154zM120 284v-66q0 -154 164 -154v372q-164 0 -164 -152z" />
    <glyph glyph-name="uni0445" unicode="&#x445;" horiz-adv-x="478" 
d="M286 256l182 -256h-94l-135 186l-135 -186h-94l182 256l-162 244h94l115 -177l115 177h94z" />
    <glyph glyph-name="uni0446" unicode="&#x446;" horiz-adv-x="551" 
d="M531 72v-189h-80v117h-386v500h80v-428h236v428h80v-428h70z" />
    <glyph glyph-name="uni0447" unicode="&#x447;" horiz-adv-x="482" 
d="M45 500h80v-120q0 -64 27 -91.5t85 -27.5q75 0 100 48v191h80v-500h-80v217q-34 -31 -106 -31q-97 0 -141.5 45t-44.5 149v120z" />
    <glyph glyph-name="uni0448" unicode="&#x448;" horiz-adv-x="710" 
d="M645 500v-500h-580v500h80v-428h170v428h80v-428h170v428h80z" />
    <glyph glyph-name="uni0449" unicode="&#x449;" horiz-adv-x="735" 
d="M715 72v-189h-80v117h-570v500h80v-428h170v428h80v-428h170v428h80v-428h70z" />
    <glyph glyph-name="uni044A" unicode="&#x44a;" horiz-adv-x="534" 
d="M-20 428v72h217v-192h103q106 0 157.5 -37t51.5 -114q0 -74 -46 -115.5t-135 -41.5h-211v428h-137zM297 236h-100v-164h112q110 0 110 86q0 41 -28.5 59.5t-93.5 18.5z" />
    <glyph glyph-name="uni044B" unicode="&#x44b;" horiz-adv-x="639" 
d="M65 0v500h80v-192h73q106 0 157.5 -37t51.5 -114q0 -74 -46 -115.5t-135 -41.5h-181zM215 236h-70v-164h82q110 0 110 86q0 41 -28.5 59.5t-93.5 18.5zM494 0v500h80v-500h-80z" />
    <glyph glyph-name="uni044C" unicode="&#x44c;" horiz-adv-x="482" 
d="M65 0v500h80v-192h103q106 0 157.5 -37t51.5 -114q0 -74 -46 -115.5t-135 -41.5h-211zM245 236h-100v-164h112q110 0 110 86q0 41 -28.5 59.5t-93.5 18.5z" />
    <glyph glyph-name="uni044D" unicode="&#x44d;" horiz-adv-x="459" 
d="M339 218h-197v72h197q-2 69 -37.5 107.5t-98.5 38.5q-75 0 -110 -50l-63 44q56 78 173 78q102 0 159 -59t57 -165v-66q0 -105 -57.5 -165.5t-158.5 -60.5q-128 0 -173 84l62 44q29 -56 111 -56q66 0 101 41t35 113z" />
    <glyph glyph-name="uni044E" unicode="&#x44e;" horiz-adv-x="665" 
d="M625 284v-66q0 -109 -48.5 -167.5t-143.5 -58.5q-92 0 -142 59t-50 167h-96v-218h-80v500h80v-210h96q2 106 51 162t141 56q93 0 142.5 -58t49.5 -166zM433 64q54 0 83 41t29 113v66q0 152 -112 152q-54 0 -83 -39.5t-29 -112.5v-66q0 -154 112 -154z" />
    <glyph glyph-name="uni044F" unicode="&#x44f;" 
d="M435 500v-500h-80v192h-105l-125 -192h-90l133 203q-115 31 -115 149q0 68 49 108t141 40h192zM265 264h90v164h-102q-110 0 -110 -78q0 -45 29 -65.5t93 -20.5z" />
    <glyph glyph-name="uni0451" unicode="&#x451;" horiz-adv-x="488" 
d="M367 120l62 -44q-26 -45 -67.5 -64.5t-107.5 -19.5q-100 0 -157 60.5t-57 165.5v66q0 108 51 166t147 58q98 0 148 -57.5t50 -166.5v-52h-316v-14q0 -71 33.5 -112.5t94.5 -41.5q87 0 119 56zM238 436q-110 0 -118 -134h235q-6 134 -117 134zM175 600h-90v90h90v-90z
M385 600h-90v90h90v-90z" />
    <glyph glyph-name="uni0452" unicode="&#x452;" horiz-adv-x="526" 
d="M65 558h-94v72h94v60h80v-60h165v-72h-165v-139q21 31 51 44t83 13q88 0 135 -49t47 -147v-324q0 -76 -33.5 -111t-107.5 -35h-14v72h14q33 0 47 16.5t14 57.5v323q0 123 -114 123q-54 0 -88 -34t-34 -88v-280h-80v558z" />
    <glyph glyph-name="uni0453" unicode="&#x453;" horiz-adv-x="359" 
d="M235 567h-75l70 158h96zM65 500h304v-72h-224v-428h-80v500z" />
    <glyph glyph-name="uni0454" unicode="&#x454;" horiz-adv-x="459" 
d="M110 290h197v-72h-197q0 -72 35 -113t101 -41q82 0 111 56l62 -44q-45 -84 -173 -84q-101 0 -158.5 60.5t-57.5 165.5v66q0 106 57 165t159 59q118 0 173 -78l-63 -44q-35 50 -110 50q-63 0 -98.5 -38.5t-37.5 -107.5z" />
    <glyph glyph-name="uni0455" unicode="&#x455;" horiz-adv-x="466" 
d="M406 425l-60 -42q-21 28 -48.5 39.5t-75.5 11.5q-45 0 -71 -17.5t-26 -49.5q0 -71 116 -79q79 -6 124 -34q56 -32 56 -115q0 -70 -48 -108.5t-140 -38.5q-133 0 -193 83l59 42q21 -27 51.5 -39t83.5 -12q50 0 78.5 18.5t28.5 52.5q0 40 -28 57.5t-101 22.5
q-167 12 -167 149q0 66 47.5 104t131.5 38q129 0 182 -83z" />
    <glyph glyph-name="uni0456" unicode="&#x456;" horiz-adv-x="240" 
d="M165 600h-90v90h90v-90zM160 0h-80v500h80v-500z" />
    <glyph glyph-name="uni0457" unicode="&#x457;" horiz-adv-x="230" 
d="M55 600h-90v90h90v-90zM265 600h-90v90h90v-90zM155 0h-80v500h80v-500z" />
    <glyph glyph-name="uni0458" unicode="&#x458;" horiz-adv-x="235" 
d="M85 500h80v-536q0 -83 -37.5 -118.5t-127.5 -35.5v74q61 0 73 31q12 23 12 69v516zM170 600h-90v90h90v-90z" />
    <glyph glyph-name="uni0459" unicode="&#x459;" horiz-adv-x="782" 
d="M109 299v201h336v-192h103q106 0 157.5 -37t51.5 -114q0 -74 -46 -115.5t-135 -41.5h-211v428h-176v-157q0 -119 -26 -183q-37 -91 -143 -100v80q55 15 73 69q16 44 16 162zM545 236h-100v-164h112q110 0 110 86q0 41 -28.5 59.5t-93.5 18.5z" />
    <glyph glyph-name="uni045A" unicode="&#x45a;" horiz-adv-x="798" 
d="M65 500h80v-210h236v210h80v-192h103q106 0 157.5 -37t51.5 -114q0 -74 -46 -115.5t-135 -41.5h-211v218h-236v-218h-80v500zM561 236h-100v-164h112q110 0 110 86q0 41 -28.5 59.5t-93.5 18.5z" />
    <glyph glyph-name="uni045B" unicode="&#x45b;" horiz-adv-x="526" 
d="M65 558h-94v72h94v60h80v-60h165v-72h-165v-139q21 31 51 44t83 13q88 0 135 -49t47 -147v-280h-80v279q0 123 -114 123q-54 0 -88 -34t-34 -88v-280h-80v558z" />
    <glyph glyph-name="uni045C" unicode="&#x45c;" horiz-adv-x="469" 
d="M270 567h-75l70 158h96zM205 286l144 214h94l-164 -242l180 -258h-97l-151 216h-66v-216h-80v500h80v-214h60z" />
    <glyph glyph-name="uni045E" unicode="&#x45e;" horiz-adv-x="466" 
d="M199 -12l2 7l-196 505h86l149 -388l131 388h85l-176 -516l-20 -55q-23 -57 -47 -77q-48 -42 -141 -42v78q54 0 79 19q27 18 48 81zM303 690h71q0 -118 -136 -118t-136 118h71q0 -62 65 -62t65 62z" />
    <glyph glyph-name="uni045F" unicode="&#x45f;" horiz-adv-x="526" 
d="M303 0v-117h-80v117h-158v500h80v-428h236v428h80v-500h-158z" />
    <glyph glyph-name="uni0462" unicode="&#x462;" horiz-adv-x="596" 
d="M85 606v84h86v-84h188v-78h-188v-111h147q121 0 180 -62q58 -61 58 -147q0 -91 -60.5 -149.5t-177.5 -58.5h-233v528h-95v78h95zM318 339h-147v-261h147q73 0 112.5 34.5t39.5 95.5q0 62 -39.5 96.5t-112.5 34.5z" />
    <glyph glyph-name="uni0463" unicode="&#x463;" horiz-adv-x="482" 
d="M65 428h-94v72h94v190h80v-190h165v-72h-165v-120h103q106 0 157.5 -37t51.5 -114q0 -74 -46 -115.5t-135 -41.5h-211v428zM245 236h-100v-164h112q110 0 110 86q0 41 -28.5 59.5t-93.5 18.5z" />
    <glyph glyph-name="uni0472" unicode="&#x472;" horiz-adv-x="600" 
d="M550 383v-76q0 -315 -250 -315t-250 315v76q0 315 250 315t250 -315zM464 307v11h-328v-11q0 -122 40 -179.5t124 -57.5t124 57.5t40 179.5zM136 396h328q-2 116 -42.5 170t-121.5 54t-121.5 -54t-42.5 -170z" />
    <glyph glyph-name="uni0473" unicode="&#x473;" horiz-adv-x="496" 
d="M456 284v-66q0 -106 -53.5 -166t-154.5 -60q-98 0 -153 60t-55 166v66q0 106 55 165t153 59q99 0 153.5 -58.5t54.5 -165.5zM248 64q59 0 93.5 42.5t34.5 111.5h-256q0 -72 33 -113t95 -41zM248 436q-59 0 -92.5 -38.5t-35.5 -107.5h256q-2 70 -35 108t-93 38z" />
    <glyph glyph-name="uni0474" unicode="&#x474;" horiz-adv-x="601" 
d="M260 0l-250 690h95l194 -549l153 428q25 70 65 99.5t112 29.5v-78q-36 0 -56 -16.5t-35 -56.5l-197 -547h-81z" />
    <glyph glyph-name="uni0475" unicode="&#x475;" horiz-adv-x="503" 
d="M513 508v-72q-27 0 -41 -12.5t-29 -50.5l-149 -373h-80l-204 500h90l152 -398l121 317q20 52 49 70.5t91 18.5z" />
    <glyph glyph-name="uni0490" unicode="&#x490;" horiz-adv-x="481" 
d="M85 690h310v108h86v-186h-310v-612h-86v690z" />
    <glyph glyph-name="uni0491" unicode="&#x491;" horiz-adv-x="359" 
d="M65 500h224v93h80v-165h-224v-428h-80v500z" />
    <glyph glyph-name="uni0492" unicode="&#x492;" horiz-adv-x="489" 
d="M93 690h396v-78h-310v-216h180v-78h-180v-318h-86v318h-103v78h103v294z" />
    <glyph glyph-name="uni0493" unicode="&#x493;" horiz-adv-x="384" 
d="M90 500h304v-72h-224v-138h127v-72h-127v-218h-80v218h-100v72h100v210z" />
    <glyph glyph-name="uni0496" unicode="&#x496;" horiz-adv-x="897" 
d="M300 308l-187 -308h-103l212 349l-171 341h94l150 -304h96v304h86v-304h95l151 304h94l-172 -341l165 -271h77v-208h-86v130h-46l-187 308h-91v-308h-86v308h-91z" />
    <glyph glyph-name="uni0497" unicode="&#x497;" horiz-adv-x="693" 
d="M433 286l115 214h87l-132 -243l110 -185h70v-189h-80v117h-41l-126 216h-63v-216h-80v216h-63l-126 -216h-94l153 257l-132 243h87l115 -214h60v214h80v-214h60z" />
    <glyph glyph-name="uni0498" unicode="&#x498;" horiz-adv-x="558" 
d="M330 -6v-124h-86v125q-162 20 -203 193h85q25 -64 61.5 -91t101.5 -27q68 0 105.5 33.5t37.5 93.5q0 122 -168 122h-53v78h62q68 0 102.5 30.5t34.5 87.5q0 51 -31.5 78.5t-92.5 27.5t-98 -25.5t-55 -81.5h-80q12 84 78 134q68 50 150 50q103 0 159 -48t56 -135
q0 -109 -114 -152q60 -14 98 -60t38 -106q0 -77 -46 -135q-46 -57 -142 -68z" />
    <glyph glyph-name="uni0499" unicode="&#x499;" horiz-adv-x="448" 
d="M254 -5v-112h-80v111q-108 9 -151 82l62 44q36 -56 124 -56q46 0 73.5 22.5t27.5 61.5q0 78 -126 78h-43v72h46q104 0 104 73q0 31 -23 48t-66 17q-62 0 -109 -50l-63 44q58 78 177 78q77 0 125.5 -36t48.5 -91q0 -77 -74 -112q42 -13 67.5 -47t25.5 -81q0 -57 -38.5 -97
t-107.5 -49z" />
    <glyph glyph-name="uni049A" unicode="&#x49a;" horiz-adv-x="622" 
d="M612 78v-208h-86v130h-38l-220 308h-97v-308h-86v690h86v-304h95l190 304h96l-210 -340l195 -272h75z" />
    <glyph glyph-name="uni049B" unicode="&#x49b;" horiz-adv-x="489" 
d="M205 286l144 214h94l-164 -242l130 -186h70v-189h-80v117h-37l-151 216h-66v-216h-80v500h80v-214h60z" />
    <glyph glyph-name="uni049C" unicode="&#x49c;" horiz-adv-x="651" 
d="M390 350l251 -350h-105l-220 308h-27v-116h-78v116h-40v-308h-86v690h86v-304h40v125h78v-125h25l190 304h96z" />
    <glyph glyph-name="uni049D" unicode="&#x49d;" horiz-adv-x="509" 
d="M245 286l144 214h94l-164 -242l180 -258h-97l-151 216h-12v-108h-72v108h-22v-216h-80v500h80v-214h22v109h72v-109h6z" />
    <glyph glyph-name="uni04A0" unicode="&#x4a0;" horiz-adv-x="651" 
d="M390 350l251 -350h-105l-220 308h-97v-308h-86v612h-153v78h239v-304h95l190 304h96z" />
    <glyph glyph-name="uni04A1" unicode="&#x4a1;" horiz-adv-x="521" 
d="M257 286l144 214h94l-164 -242l180 -258h-97l-151 216h-66v-216h-80v428h-137v72h217v-214h60z" />
    <glyph glyph-name="uni04A2" unicode="&#x4a2;" horiz-adv-x="649" 
d="M85 690h86v-294h296v294h86v-612h86v-208h-86v130h-86v318h-296v-318h-86v690z" />
    <glyph glyph-name="uni04A3" unicode="&#x4a3;" horiz-adv-x="551" 
d="M65 500h80v-210h236v210h80v-428h70v-189h-80v117h-70v218h-236v-218h-80v500z" />
    <glyph glyph-name="uni04AA" unicode="&#x4aa;" horiz-adv-x="578" 
d="M343 -5v-125h-86v125q-207 25 -207 312v76q0 315 250 315q105 0 168.5 -56.5t79.5 -166.5h-84q-17 76 -56.5 110.5t-107.5 34.5q-84 0 -124 -57.5t-40 -179.5v-76q0 -122 40 -179.5t124 -57.5q68 0 107.5 35t56.5 110h83q-28 -199 -204 -220z" />
    <glyph glyph-name="uni04AB" unicode="&#x4ab;" horiz-adv-x="444" 
d="M296 -5v-112h-80v112q-84 11 -130 70t-46 153v66q0 106 57 165t159 59q118 0 173 -78l-63 -44q-35 50 -110 50q-64 0 -100 -40.5t-36 -111.5v-66q0 -72 35 -113t101 -41q82 0 111 56l62 -44q-38 -71 -133 -81z" />
    <glyph glyph-name="uni04AE" unicode="&#x4ae;" horiz-adv-x="556" 
d="M235 296l-215 394h101l157 -300l157 300h101l-215 -394v-296h-86v296z" />
    <glyph glyph-name="uni04AF" unicode="&#x4af;" horiz-adv-x="504" 
d="M252 102l152 398h90l-200 -500v-190h-80v190l-204 500h90z" />
    <glyph glyph-name="uni04B0" unicode="&#x4b0;" horiz-adv-x="556" 
d="M235 296l-215 394h101l157 -300l157 300h101l-215 -394h142v-78h-142v-218h-86v218h-141v78h141z" />
    <glyph glyph-name="uni04B1" unicode="&#x4b1;" horiz-adv-x="504" 
d="M252 102l152 398h90l-200 -500h112v-72h-112v-118h-80v118h-115v72h115l-204 500h90z" />
    <glyph glyph-name="uni04B2" unicode="&#x4b2;" horiz-adv-x="572" 
d="M276 271l-161 -271h-95l206 356l-185 334h95l140 -256l140 256h95l-186 -334l161 -278h76v-208h-86v130h-39z" />
    <glyph glyph-name="uni04B3" unicode="&#x4b3;" horiz-adv-x="497" 
d="M487 72v-189h-80v117h-33l-135 186l-135 -186h-94l182 256l-162 244h94l115 -177l115 177h94l-162 -244l131 -184h70z" />
    <glyph glyph-name="uni04B6" unicode="&#x4b6;" horiz-adv-x="599" 
d="M35 690h86v-194q0 -92 34 -126t122 -34q110 0 140 61v293h86v-612h86v-208h-86v130h-86v299q-41 -41 -154 -41q-131 0 -180 55q-48 55 -48 183v194z" />
    <glyph glyph-name="uni04B7" unicode="&#x4b7;" horiz-adv-x="512" 
d="M50 500h80v-120q0 -64 27 -91.5t85 -27.5q74 0 100 48v191h80v-428h70v-189h-80v117h-70v217q-34 -31 -106 -31q-97 0 -141.5 45t-44.5 149v120z" />
    <glyph glyph-name="uni04B8" unicode="&#x4b8;" horiz-adv-x="588" 
d="M232 461h78v-124q81 7 107 60v293h86v-690h-86v299q-33 -33 -107 -39v-118h-78v117q-113 6 -155 61q-42 56 -42 176v194h86v-194q0 -79 25 -115t86 -43v123z" />
    <glyph glyph-name="uni04B9" unicode="&#x4b9;" horiz-adv-x="487" 
d="M50 500h80v-120q0 -100 72 -116v111h72v-112q46 7 68 46v191h80v-500h-80v217q-24 -21 -68 -28v-101h-72v99q-78 7 -115 53t-37 140v120z" />
    <glyph glyph-name="uni04BA" unicode="&#x4ba;" horiz-adv-x="588" 
d="M553 0h-86v270q0 90 -34.5 125t-121.5 35q-110 0 -140 -61v-369h-86v690h86v-223q41 41 154 41q131 0 179 -56q49 -55 49 -182v-270z" />
    <glyph glyph-name="uni04BB" unicode="&#x4bb;" horiz-adv-x="526" 
d="M145 0h-80v690h80v-239q21 31 51 44t83 13q88 0 135 -49t47 -147v-312h-80v311q0 123 -114 123q-54 0 -88 -34t-34 -88v-312z" />
    <glyph glyph-name="uni04D8" unicode="&#x4d8;" horiz-adv-x="604" 
d="M50 307v40h418v36q0 122 -40 179.5t-124 57.5q-134 0 -164 -145h-84q16 110 79.5 166.5t168.5 56.5q250 0 250 -315v-76q0 -315 -250 -315q-124 0 -189 79t-65 236zM304 70q76 0 116 48t47 151h-330q7 -102 48 -150.5t119 -48.5z" />
    <glyph glyph-name="uni04D9" unicode="&#x4d9;" horiz-adv-x="488" 
d="M121 380l-62 44q26 45 67.5 64.5t107.5 19.5q100 0 157 -60.5t57 -165.5v-66q0 -108 -51 -166t-147 -58q-98 0 -148 57.5t-50 166.5v52h316v14q0 71 -33.5 112.5t-94.5 41.5q-87 0 -119 -56zM250 64q110 0 118 134h-235q6 -134 117 -134z" />
    <glyph glyph-name="uni04E2" unicode="&#x4e2;" horiz-adv-x="656" 
d="M483 768h-309v72h309v-72zM85 0v690h86v-519l328 519h72v-690h-86v514l-326 -514h-74z" />
    <glyph glyph-name="uni04E3" unicode="&#x4e3;" horiz-adv-x="536" 
d="M403 600h-269v72h269v-72zM65 500h80v-361l249 361h77v-500h-80v368l-251 -368h-75v500z" />
    <glyph glyph-name="uni04E8" unicode="&#x4e8;" horiz-adv-x="600" 
d="M550 383v-76q0 -315 -250 -315t-250 315v76q0 315 250 315t250 -315zM464 307v11h-328v-11q0 -122 40 -179.5t124 -57.5t124 57.5t40 179.5zM136 396h328q-2 116 -42.5 170t-121.5 54t-121.5 -54t-42.5 -170z" />
    <glyph glyph-name="uni04E9" unicode="&#x4e9;" horiz-adv-x="496" 
d="M456 284v-66q0 -106 -53.5 -166t-154.5 -60q-98 0 -153 60t-55 166v66q0 106 55 165t153 59q99 0 153.5 -58.5t54.5 -165.5zM248 64q59 0 93.5 42.5t34.5 111.5h-256q0 -72 33 -113t95 -41zM248 436q-59 0 -92.5 -38.5t-35.5 -107.5h256q-2 70 -35 108t-93 38z" />
    <glyph glyph-name="uni04EE" unicode="&#x4ee;" horiz-adv-x="582" 
d="M306 263l172 427h90l-235 -574q-30 -72 -71 -98t-127 -26v79q57 0 79 13q26 14 45 63l3 8l-237 535h94zM455 768h-309v72h309v-72z" />
    <glyph glyph-name="uni04EF" unicode="&#x4ef;" horiz-adv-x="466" 
d="M199 -12l2 7l-196 505h86l149 -388l131 388h85l-176 -516l-20 -55q-23 -57 -47 -77q-48 -42 -141 -42v78q54 0 79 19q27 18 48 81zM366 600h-269v72h269v-72z" />
    <glyph glyph-name="uni10D0" unicode="&#x10d0;" horiz-adv-x="493" 
d="M313 393q82 -60 106 -103t24 -111q0 -91 -49.5 -139t-146.5 -48q-202 0 -202 200q0 21 4 51h81q0 -5 -0.5 -19.5t-0.5 -21.5q0 -77 27.5 -107t90.5 -30q58 0 85 26.5t27 85.5q0 56 -16.5 83.5t-75.5 69.5q-66 47 -83 79t-17 80v12h85v-12q0 -36 10.5 -51t50.5 -45z" />
    <glyph glyph-name="uni10D1" unicode="&#x10d1;" horiz-adv-x="516" 
d="M334 455q137 -37 137 -209v-36q0 -108 -54 -163t-159 -55q-213 0 -213 218v36q0 213 205 218v51q0 19 -19.5 35.5t-42.5 27.5t-42.5 33t-19.5 51v29h84v-22q0 -15 19.5 -29t42.5 -25.5t42.5 -35t19.5 -54.5v-70zM387 212v32q0 146 -129 146t-129 -146v-32
q0 -147 129 -147t129 147z" />
    <glyph glyph-name="uni10D2" unicode="&#x10d2;" horiz-adv-x="530" 
d="M369 273q111 -46 111 -200v-51q0 -107 -55 -162.5t-160 -55.5t-160 55.5t-55 162.5v51q0 108 55 163t160 55q66 0 66 78q0 34 -17.5 50.5t-58.5 16.5q-40 0 -55.5 -18.5t-15.5 -57.5h-84q0 149 157 149q158 0 158 -136q0 -72 -46 -100zM396 25v47q0 146 -131 146
t-131 -146v-47q0 -147 131 -147t131 147z" />
    <glyph glyph-name="uni10D3" unicode="&#x10d3;" horiz-adv-x="762" 
d="M524 509q97 0 143 -50t46 -157v-64q0 -107 -48.5 -157t-145.5 -50t-145.5 50t-48.5 157v53q0 75 -21.5 109.5t-71.5 34.5t-71 -35t-21 -111v-115q0 -139 69 -212t229 -73h162v-74h-162q-197 0 -290 95.5t-93 260.5v120q0 110 40 164t131 54q102 0 139 -73q44 73 159 73z
M629 241v59q0 74 -25.5 104.5t-84.5 30.5q-60 0 -85 -30.5t-25 -104.5v-59q0 -75 25 -105.5t85 -30.5q59 0 84.5 31t25.5 105z" />
    <glyph glyph-name="uni10D4" unicode="&#x10d4;" horiz-adv-x="531" 
d="M259 509q202 0 202 -200v-283q0 -222 -208 -222t-208 222q0 33 4 75h83q-1 -17 -1 -72q0 -77 28.5 -113.5t93.5 -36.5t93.5 36.5t28.5 113.5v280q0 65 -28 95.5t-88 30.5q-116 0 -116 -93v-48h-87v48q0 80 51 123.5t152 43.5z" />
    <glyph glyph-name="uni10D5" unicode="&#x10d5;" horiz-adv-x="532" 
d="M360 187q54 -15 80.5 -56.5t26.5 -122.5q0 -204 -211 -204t-211 218q0 29 4 55h81q-1 -16 -1 -52q0 -75 31 -111t96 -36q127 0 127 132q0 136 -137 136h-22v73h23q65 0 95.5 27.5t30.5 85.5q0 59 -27.5 81.5t-89.5 22.5q-116 0 -116 -90v-37h-84v37q0 77 51 120t150 43
q200 0 200 -177q0 -59 -24 -92t-73 -51v-2z" />
    <glyph glyph-name="uni10D6" unicode="&#x10d6;" horiz-adv-x="661" 
d="M398 464q105 0 159 -55.5t54 -162.5v-36q0 -218 -213 -218q-105 0 -159 55t-54 163v10q0 66 27 129q-4 0 -11.5 -0.5t-10.5 -0.5q-84 0 -124.5 40t-40.5 130v10q0 170 165 170q166 0 166 -170v-6q0 -33 -8 -63q32 5 50 5zM190 422q26 0 59 5q22 47 22 98v1q0 55 -20 76.5
t-61 21.5q-40 0 -60.5 -22.5t-20.5 -75.5v-5q0 -99 81 -99zM527 212v32q0 146 -129 146q-35 0 -83 -12q-46 -90 -46 -160v-6q0 -147 129 -147t129 147z" />
    <glyph glyph-name="uni10D7" unicode="&#x10d7;" horiz-adv-x="789" 
d="M566 509q100 0 139 -52.5t39 -165.5v-43q0 -133 -17 -248h-82q15 129 15 251v38q0 80 -20 113t-82 33t-82 -33t-20 -113v-78q0 -218 -206 -218q-205 0 -205 218v80q0 218 205 218q120 0 163 -78q37 78 153 78zM372 213v76q0 75 -29 110.5t-93 35.5t-92.5 -35.5
t-28.5 -110.5v-76q0 -76 28.5 -111.5t92.5 -35.5t93 35.5t29 111.5z" />
    <glyph glyph-name="uni10D8" unicode="&#x10d8;" 
d="M250 509q205 0 205 -218v-43q0 -110 -13 -248h-81q10 197 10 251v38q0 75 -28.5 110.5t-92.5 35.5t-92.5 -35.5t-28.5 -110.5v-38q0 -89 11 -251h-81q-14 148 -14 248v43q0 218 205 218z" />
    <glyph glyph-name="uni10D9" unicode="&#x10d9;" horiz-adv-x="522" 
d="M360 226q51 -14 79 -66t28 -133q0 -106 -54 -164.5t-157 -58.5q-211 0 -211 218q0 29 4 55h81q-1 -16 -1 -52q0 -75 31 -111t96 -36q127 0 127 152q0 73 -34.5 114t-102.5 41h-43v73h44q107 0 107 115v128h84v-121q0 -113 -78 -152v-2z" />
    <glyph glyph-name="uni10DA" unicode="&#x10da;" horiz-adv-x="1002" 
d="M774 509q92 0 132.5 -49t40.5 -158q0 -91 -13 -200h-81q10 105 10 198q0 75 -20 105t-69 30t-70 -30.5t-21 -104.5v-155h-84v155q0 75 -20.5 105t-69.5 30t-69.5 -30t-20.5 -105v-155h-84v146q0 77 -19 110.5t-69 33.5q-52 0 -72 -31t-20 -115v-118q0 -145 73.5 -213.5
t227.5 -68.5h338v-74h-338q-189 0 -287.5 90t-98.5 267v119q0 118 41 168t136 50q101 0 130 -73q30 73 132 73t132 -73q30 73 133 73z" />
    <glyph glyph-name="uni10DB" unicode="&#x10db;" horiz-adv-x="538" 
d="M262 698q206 0 206 -196v-292q0 -218 -212 -218q-211 0 -211 218v48q0 99 51 152.5t139 53.5q100 0 149 -68v106q0 123 -122 123q-58 0 -89.5 -22.5t-31.5 -64.5h-84q0 76 52.5 118t152.5 42zM384 212v35q0 68 -36.5 105.5t-100.5 37.5q-58 0 -88 -34.5t-30 -100.5v-43
q0 -147 127 -147q128 0 128 147z" />
    <glyph glyph-name="uni10DC" unicode="&#x10dc;" horiz-adv-x="537" 
d="M302 464q88 0 139 -53.5t51 -152.5v-48q0 -218 -211 -218t-211 218v304q0 98 42.5 137.5t143.5 39.5h203v-73h-203q-60 0 -81 -20.5t-21 -83.5v-118q48 68 148 68zM408 212v43q0 66 -30 100.5t-88 34.5q-64 0 -100 -37.5t-36 -105.5v-35q0 -147 127 -147t127 147z" />
    <glyph glyph-name="uni10DD" unicode="&#x10dd;" horiz-adv-x="790" 
d="M556 509q102 0 145.5 -53.5t43.5 -164.5v-43q0 -126 -18 -248h-81q15 150 15 251v38q0 77 -24.5 111.5t-87.5 34.5t-87.5 -34.5t-24.5 -111.5v-172h-84v172q0 77 -24.5 111.5t-87.5 34.5t-87 -34.5t-24 -111.5v-38q0 -111 14 -251h-81q-18 122 -18 248v43
q0 111 43.5 164.5t145.5 53.5q122 0 161 -78q39 78 161 78z" />
    <glyph glyph-name="uni10DE" unicode="&#x10de;" horiz-adv-x="527" 
d="M351 360q54 -16 80 -55.5t26 -113.5q0 -97 -53.5 -148t-157.5 -51q-211 0 -211 218q0 3 4 55h81q0 -8 -0.5 -27t-0.5 -26q0 -147 127 -147t127 129q0 124 -136 124h-30v74h31q65 0 91.5 18.5t26.5 62.5q0 38 -17 52t-79 33q-85 26 -111.5 46.5t-26.5 70.5v16h84v-7
q0 -20 12.5 -30.5t63.5 -26.5q101 -33 129.5 -61t28.5 -93q0 -87 -89 -111v-2z" />
    <glyph glyph-name="uni10DF" unicode="&#x10df;" horiz-adv-x="538" 
d="M368 509h100v-487q0 -107 -53.5 -162.5t-157.5 -55.5q-105 0 -158.5 55.5t-53.5 162.5q0 3 4 55h82q-1 -16 -1 -52q0 -75 31 -111t96 -36q127 0 127 147v414l-116 -45q23 -46 23 -97q0 -126 -123 -126t-123 126v46h85v-42q0 -56 38 -56q39 0 39 56q0 28 -11 60t-22 50
l-11 18z" />
    <glyph glyph-name="uni10E0" unicode="&#x10e0;" horiz-adv-x="804" 
d="M571 464q102 0 145 -53.5t43 -164.5v-14q0 -117 -17 -232h-82q15 129 15 234v10q0 77 -24.5 111.5t-87.5 34.5q-62 0 -86.5 -34.5t-24.5 -111.5v-128h-84v128q0 77 -24.5 111.5t-87.5 34.5t-87.5 -34.5t-24.5 -111.5v-10q0 -84 15 -234h-81q-18 122 -18 232v71
q0 94 17.5 160t62 120t129.5 81t212 27h188v-73h-188q-160 0 -238 -50t-98 -143q36 39 111 39q115 0 154 -78q37 78 161 78z" />
    <glyph glyph-name="uni10E1" unicode="&#x10e1;" horiz-adv-x="506" 
d="M435 421q0 -29 18 -89t18 -100v-25q0 -215 -200 -215q-201 0 -201 215v484h83v-481q0 -75 27.5 -110t90.5 -35t90 34.5t27 109.5v20q0 33 -17.5 94t-17.5 98v25h82v-25z" />
    <glyph glyph-name="uni10E2" unicode="&#x10e2;" horiz-adv-x="623" 
d="M474 240q104 -40 104 -175v-43q0 -105 -69 -161.5t-186 -56.5t-185 56.5t-68 161.5v478h84v-475q0 -73 44.5 -110t124.5 -37t125.5 37t45.5 110v39q0 73 -37 105.5t-115 32.5h-8v-95h-84v245q0 83 33.5 120t116.5 37q150 0 150 -144q0 -110 -76 -125zM334 352v-76h74
q58 0 58 85q0 75 -68 75q-36 0 -50 -18t-14 -66z" />
    <glyph glyph-name="uni10E3" unicode="&#x10e3;" horiz-adv-x="568" 
d="M343 508q83 0 119 -44.5t36 -127.5v-310q0 -109 -58.5 -166t-165.5 -57t-165 57t-58 166q0 47 4 74h84q-2 -16 -2 -71q0 -150 137 -150q138 0 138 150v301q0 51 -17.5 77t-59.5 26q-77 0 -77 -103v-110h-87v110v8q0 22 -0.5 32t-3 25t-8 21.5t-16.5 11.5t-27 5
q-9 0 -27 -2t-34 -2t-30 4v75q11 -2 25.5 -2t32 1t25.5 1q48 0 71 -20t35 -59q12 36 45 57.5t84 21.5z" />
    <glyph glyph-name="uni10E4" unicode="&#x10e4;" horiz-adv-x="716" 
d="M565 184q106 -29 106 -171q0 -107 -68.5 -158t-185.5 -51q-122 0 -187.5 51t-65.5 170v11h84v-11q0 -147 169 -147q76 0 123 34.5t47 100.5q0 130 -131 130h-13v73h14q130 0 130 112q0 56 -20.5 81.5t-70.5 25.5q-51 0 -72.5 -29.5t-21.5 -95.5v-27q0 -102 -51 -149
t-138 -47t-137.5 47t-50.5 149v29q0 102 50.5 149.5t137.5 47.5q57 0 91.5 -17.5t56.5 -55.5q37 73 139 73q91 0 131 -43.5t40 -131.5q0 -117 -106 -148v-2zM317 286v24q0 70 -26.5 97.5t-77.5 27.5t-77.5 -27.5t-26.5 -97.5v-24q0 -70 26.5 -98t77.5 -28t77.5 28t26.5 98z
" />
    <glyph glyph-name="uni10E5" unicode="&#x10e5;" horiz-adv-x="537" 
d="M383 690h84v-668q0 -107 -53.5 -162.5t-157.5 -55.5t-157.5 55.5t-53.5 162.5q0 32 4 72h81q-1 -16 -1 -69q0 -75 31 -111t96 -36t96 36t31 111v280q-3 63 -37.5 96.5t-94.5 33.5q-58 0 -85 -31.5t-27 -97.5v-8h-84v11q0 99 48 149.5t136 50.5q99 0 144 -68v249z" />
    <glyph glyph-name="uni10E6" unicode="&#x10e6;" horiz-adv-x="762" 
d="M540 509q95 0 136 -53.5t41 -164.5q0 -79 -12 -189h-82q10 100 10 187q0 78 -21.5 112t-79.5 34t-79.5 -34t-21.5 -112v-144h-84v144q0 78 -21.5 112t-80.5 34q-58 0 -79.5 -34t-21.5 -112v-115q0 -139 69 -212t230 -73h162v-74h-162q-198 0 -290.5 95.5t-92.5 260.5v120
q0 111 41 164.5t137 53.5q112 0 151 -78q37 78 151 78z" />
    <glyph glyph-name="uni10E7" unicode="&#x10e7;" horiz-adv-x="553" 
d="M389 500h84v-478q0 -107 -53.5 -162.5t-158.5 -55.5q-104 0 -157.5 55.5t-53.5 162.5q0 9 1 14h83v-11q0 -147 127 -147q65 0 96.5 36t31.5 111v147q-49 -68 -149 -68q-88 0 -139 53.5t-51 152.5q0 80 14 190h81q-11 -108 -11 -187q0 -66 30 -100.5t88 -34.5
q64 0 100.5 37.5t36.5 105.5v179z" />
    <glyph glyph-name="uni10E8" unicode="&#x10e8;" horiz-adv-x="538" 
d="M322 698q81 0 113.5 -43.5t32.5 -125.5v-319q0 -218 -211 -218t-211 218v48q0 99 51 152.5t139 53.5q100 0 148 -68v127q0 52 -14.5 76.5t-54.5 24.5t-55 -26t-15 -75v-6h-84v6q0 24 -0.5 33.5t-3 26t-8.5 23.5t-17 12.5t-28 5.5q-12 0 -26 -3t-22 -5l-8 -3v76q25 9 49 9
q47 0 70.5 -19.5t35.5 -57.5q24 77 119 77zM384 212v35q0 68 -36 105.5t-100 37.5q-58 0 -88 -34.5t-30 -100.5v-43q0 -147 127 -147t127 147z" />
    <glyph glyph-name="uni10E9" unicode="&#x10e9;" horiz-adv-x="538" 
d="M415 389q78 -53 78 -176q0 -94 -18 -213h-81q15 148 15 211q0 65 -30 99.5t-88 34.5q-64 0 -100.5 -37.5t-36.5 -105.5v-202h-84v480q0 218 206 218q100 0 149.5 -46.5t49.5 -124.5q0 -84 -60 -138zM154 351q49 68 149 68q25 0 52 -5q36 43 36 105q0 105 -115 105
q-64 0 -93 -35.5t-29 -111.5v-126z" />
    <glyph glyph-name="uni10EA" unicode="&#x10ea;" horiz-adv-x="538" 
d="M386 219q54 -16 80.5 -55.5t26.5 -113.5v-46q0 -97 -54 -148.5t-158 -51.5t-157.5 55.5t-53.5 162.5v478h84v-475q0 -147 127 -147t127 128v47q0 59 -33 91.5t-83 32.5h-11v74h12q98 0 98 85q0 36 -22.5 75t-22.5 74v15h84v-7q0 -33 22.5 -72t22.5 -85q0 -92 -89 -115v-2
z" />
    <glyph glyph-name="uni10EB" unicode="&#x10eb;" horiz-adv-x="537" 
d="M45 258q0 99 51 152.5t139 53.5q100 0 148 -68v294h84v-480q0 -218 -211 -218t-211 218v48zM129 255v-43q0 -147 127 -147t127 147v35q0 68 -36 105.5t-100 37.5q-58 0 -88 -34.5t-30 -100.5z" />
    <glyph glyph-name="uni10EC" unicode="&#x10ec;" horiz-adv-x="537" 
d="M70 529q0 82 32.5 125.5t113.5 43.5q94 0 120 -77q12 38 35.5 57.5t70.5 19.5q11 0 23 -2t19 -4l6 -3v-76q-28 11 -56 11q-17 0 -28 -5.5t-16.5 -12.5t-8 -23.5t-3 -26t-0.5 -33.5v-6h-84v6q0 49 -15 75t-55 26t-55 -24.5t-15 -76.5v-127q49 68 149 68q87 0 138 -53.5
t51 -152.5v-48q0 -218 -211 -218t-211 218v319zM154 247v-35q0 -147 127 -147t127 147v43q0 135 -118 135q-63 0 -99.5 -37.5t-36.5 -105.5z" />
    <glyph glyph-name="uni10ED" unicode="&#x10ed;" horiz-adv-x="512" 
d="M390 190q39 -31 58 -66.5t19 -90.5v-29q0 -97 -53.5 -148.5t-157.5 -51.5t-157.5 55.5t-53.5 162.5q0 32 4 72h81q-1 -16 -1 -69q0 -75 31 -111t96 -36q127 0 127 128v30q0 64 -53 101q-35 26 -51 48.5t-16 55.5v4q-25 -48 -86 -48q-59 0 -95.5 35t-36.5 104
q0 73 44.5 109.5t128.5 36.5h45v208h84v-208h96v-70h-96v-144q0 -27 7.5 -42t35.5 -36zM263 333v79h-39q-95 0 -95 -74q0 -36 17.5 -52.5t42.5 -16.5q60 0 74 64z" />
    <glyph glyph-name="uni10EE" unicode="&#x10ee;" horiz-adv-x="537" 
d="M303 464q87 0 138 -53.5t51 -152.5v-48q0 -218 -211 -218t-211 218v480h84v-294q49 68 149 68zM408 212v43q0 135 -118 135q-63 0 -99.5 -37.5t-36.5 -105.5v-35q0 -147 127 -147t127 147z" />
    <glyph glyph-name="uni10EF" unicode="&#x10ef;" horiz-adv-x="512" 
d="M294 245q173 -20 173 -198v-43q0 -97 -53.5 -148.5t-157.5 -51.5q-211 0 -211 218q0 29 4 55h81q-1 -16 -1 -52q0 -75 31 -111t96 -36q127 0 127 128v44q0 124 -137 124h-36v147h-148v69h148v110h84v-110h148v-69h-148v-76z" />
    <glyph glyph-name="uni10F0" unicode="&#x10f0;" horiz-adv-x="528" 
d="M372 262q45 -6 70.5 -37t25.5 -77q0 -78 -52.5 -117t-147.5 -39q-223 0 -223 218q0 3 4 55h82q-1 -16 -1 -53q0 -76 32 -111.5t106 -35.5q56 0 86 23.5t30 62.5q0 43 -23 59t-69 16h-57v73h64q42 0 60.5 13t18.5 40t-18 39.5t-61 12.5h-64v74h57q41 0 55 7t14 23
q0 15 -12 23.5t-61 27.5q-80 31 -106.5 51.5t-26.5 64.5v16h84v-7q0 -15 17 -28t60 -30q82 -34 105.5 -53.5t23.5 -58.5q0 -62 -73 -72v-2q90 -12 90 -88t-90 -89v-1z" />
    <glyph glyph-name="uni1C90" unicode="&#x1c90;" horiz-adv-x="554" 
d="M509 250v-55q0 -94 -64 -148.5t-168 -54.5q-109 0 -170.5 55.5t-61.5 160.5q0 70 6 122h87q-3 -84 -3 -116q0 -78 36 -109t106 -31q64 0 103 29.5t39 88.5v58q0 71 -20 111t-79 85q-46 36 -74 64.5t-40 57t-14.5 48t-2.5 54.5v20h90v-20q0 -25 1.5 -36.5t9 -32t27.5 -41
t54 -48.5q82 -66 110 -122t28 -140z" />
    <glyph glyph-name="uni1C91" unicode="&#x1c91;" horiz-adv-x="593" 
d="M387 467q75 -21 118 -76.5t43 -139.5v-30q0 -110 -70 -169.5t-182 -59.5t-181.5 59.5t-69.5 169.5v30q0 109 69.5 168.5t181.5 59.5v43q0 19 -24 31t-53.5 19.5t-53.5 29t-24 56.5v32h88v-25q0 -14 24.5 -25.5t54.5 -20t54.5 -31t24.5 -56.5v-65zM458 224v24
q0 76 -43 112.5t-119 36.5t-118.5 -37t-42.5 -112v-24q0 -76 42.5 -113t118.5 -37t119 37t43 113z" />
    <glyph glyph-name="uni1C92" unicode="&#x1c92;" horiz-adv-x="604" 
d="M423 457q131 -55 131 -206v-30q0 -110 -70 -169.5t-182 -59.5t-182 59.5t-70 169.5v30q0 109 70 168.5t182 59.5q83 0 83 73q0 64 -91 64t-91 -70h-90q0 75 46 113.5t135 38.5q182 0 182 -138q0 -67 -53 -103zM464 224v24q0 76 -43 112.5t-119 36.5t-118.5 -37
t-42.5 -112v-24q0 -76 42.5 -113t118.5 -37t119 37t43 113z" />
    <glyph glyph-name="uni1C93" unicode="&#x1c93;" horiz-adv-x="891" 
d="M614 698q101 0 164 -53.5t63 -152.5v-61q0 -98 -63 -152t-164 -54t-164 54t-63 152v58q0 127 -118 127t-118 -127v-139q0 -74 27.5 -128t74.5 -83.5t102 -43t118 -13.5h234v-82h-234q-62 0 -118.5 11t-111 36.5t-94.5 64.5t-64.5 99.5t-24.5 135.5v145q0 99 57.5 152.5
t151.5 53.5q121 0 166 -90q48 90 179 90zM750 434v55q0 64 -36 95.5t-100 31.5t-100 -31.5t-36 -95.5v-55q0 -64 36 -95.5t100 -31.5t100 31.5t36 95.5z" />
    <glyph glyph-name="uni1C94" unicode="&#x1c94;" horiz-adv-x="619" 
d="M303 698q115 0 180.5 -63t65.5 -176v-228q0 -112 -68.5 -175.5t-183.5 -63.5t-183.5 63.5t-68.5 175.5q0 19 2 41h88v-38q0 -79 41.5 -119.5t120.5 -40.5t120 40.5t41 119.5v222q0 160 -155 160q-82 0 -118.5 -33t-36.5 -77v-12h-91v15q0 78 64 133.5t182 55.5z" />
    <glyph glyph-name="uni1C95" unicode="&#x1c95;" horiz-adv-x="618" 
d="M421 369q127 -22 127 -166q0 -100 -67.5 -155.5t-183.5 -55.5q-115 0 -183.5 63.5t-68.5 175.5q0 19 2 41h88v-38q0 -79 41.5 -119.5t120.5 -40.5q161 0 161 129q0 72 -42.5 99t-115.5 27h-41v82h41q74 0 111 20t37 83q0 102 -149 102q-82 0 -117 -33t-35 -77v-12h-90v15
q0 78 62.5 133.5t179.5 55.5q112 0 175.5 -51t63.5 -136q0 -111 -117 -140v-2z" />
    <glyph glyph-name="uni1C96" unicode="&#x1c96;" horiz-adv-x="756" 
d="M466 455q110 0 175 -58.5t65 -159.5v-28q0 -99 -65.5 -158t-174.5 -59q-110 0 -175 58t-65 155v11q0 66 28 127q-32 -2 -39 -2q-89 0 -139.5 44t-50.5 131v7q0 87 50.5 131t139.5 44t139.5 -43t50.5 -130v-7q0 -35 -11 -70q39 7 72 7zM315 520v3q0 51 -25.5 72t-74.5 21
q-100 0 -100 -95v-2q0 -52 25.5 -74t74.5 -22q28 0 80 6q20 45 20 91zM615 212v23q0 67 -39.5 102t-109.5 35q-54 0 -111 -13q-38 -78 -38 -145v-6q0 -65 39.5 -99.5t109.5 -34.5t109.5 35.5t39.5 102.5z" />
    <glyph glyph-name="uni1C97" unicode="&#x1c97;" horiz-adv-x="934" 
d="M674 698q215 0 215 -242v-118q0 -142 -14 -338h-85q9 168 9 341v115q0 82 -30.5 121t-102.5 39q-73 0 -103.5 -39t-30.5 -121v-225q0 -111 -64.5 -175t-178.5 -64t-179 64t-65 175v228q0 111 65 175t179 64q141 0 196 -100q44 100 189 100zM442 234v222q0 160 -153 160
q-154 0 -154 -160v-222q0 -160 154 -160q153 0 153 160z" />
    <glyph glyph-name="uni1C98" unicode="&#x1c98;" horiz-adv-x="577" 
d="M288 698q244 0 244 -229v-131q0 -151 -10 -338h-86q6 172 6 341v125q0 79 -36 114.5t-118 35.5q-81 0 -117 -35.5t-36 -114.5v-125q0 -149 5 -341h-85q-10 187 -10 338v131q0 113 61.5 171t181.5 58z" />
    <glyph glyph-name="uni1C99" unicode="&#x1c99;" horiz-adv-x="618" 
d="M416 439q53 -13 90 -65.5t37 -140.5q0 -241 -252 -241q-115 0 -183 63.5t-68 175.5q0 19 2 41h88v-38q0 -78 41.5 -119t119.5 -41q83 0 122.5 35t39.5 124q0 78 -42 122t-117 44h-61v83h61q66 0 97.5 30t31.5 97v81h90v-84q0 -67 -25.5 -110t-71.5 -55v-2z" />
    <glyph glyph-name="uni1C9A" unicode="&#x1c9a;" horiz-adv-x="1153" 
d="M895 698q96 0 152 -50.5t56 -155.5q0 -46 -3.5 -95t-7.5 -75l-4 -25h-87q12 104 12 192q0 71 -29.5 99t-88.5 28q-111 0 -111 -127v-149h-90v149q0 127 -112 127q-113 0 -113 -127v-149h-90v149q0 127 -110 127q-59 0 -89 -28.5t-30 -98.5v-118q0 -84 27.5 -142.5
t79 -89.5t113.5 -44t143 -13h408v-82h-408q-102 0 -181.5 19.5t-142 61.5t-96 114.5t-33.5 172.5v124q0 105 56 155.5t153 50.5q113 0 156 -75q45 75 157 75q108 0 157 -78q43 78 156 78z" />
    <glyph glyph-name="uni1C9B" unicode="&#x1c9b;" horiz-adv-x="614" 
d="M299 698q117 0 181 -63.5t64 -163.5v-250q0 -110 -68.5 -169.5t-180.5 -59.5t-181 59.5t-69 169.5v30q0 101 63.5 156t159.5 55q135 0 186 -76v85q0 73 -41.5 109t-113.5 36q-74 0 -115 -25t-41 -89h-90q0 96 63.5 146t182.5 50zM454 224v24q0 57 -42.5 94.5t-128.5 37.5
q-148 0 -148 -132v-24q0 -150 160 -150q159 0 159 150z" />
    <glyph glyph-name="uni1C9C" unicode="&#x1c9c;" horiz-adv-x="615" 
d="M347 462q95 0 159 -55t64 -156v-30q0 -110 -69 -169.5t-181 -59.5t-181 59.5t-69 169.5v283q0 103 44.5 144.5t151.5 41.5h270v-82h-268q-63 0 -85.5 -21.5t-22.5 -88.5v-112q52 76 187 76zM479 224v24q0 132 -147 132q-86 0 -129 -37.5t-43 -94.5v-24q0 -150 160 -150
q159 0 159 150z" />
    <glyph glyph-name="uni1C9D" unicode="&#x1c9d;" horiz-adv-x="935" 
d="M664 698q226 0 226 -229v-131q0 -151 -10 -338h-86q6 172 6 341v121q0 79 -34.5 116.5t-109.5 37.5t-109 -37.5t-34 -116.5v-301h-91v301q0 79 -34 116.5t-109 37.5t-109 -37.5t-34 -116.5v-121q0 -149 5 -341h-86q-10 187 -10 338v131q0 229 226 229q149 0 197 -104
q47 104 196 104z" />
    <glyph glyph-name="uni1C9E" unicode="&#x1c9e;" horiz-adv-x="609" 
d="M407 359q57 -15 92 -51.5t35 -114.5q0 -91 -66 -146t-186 -55q-115 0 -183.5 63.5t-68.5 175.5q0 4 0.5 9t1 14t0.5 18h89v-38q0 -79 41 -119.5t120 -40.5q162 0 162 119q0 67 -40 96.5t-119 29.5h-47v82h47q72 0 105 13.5t33 55.5q0 30 -23 44t-76 29q-2 0 -3 0.5t-3 1
t-3 0.5q-107 29 -141.5 51.5t-34.5 74.5v19h90v-16q0 -7 2.5 -13t8 -10.5t11.5 -7.5t17 -6.5t20 -5.5t24.5 -6t26.5 -7q110 -30 142 -59.5t32 -91.5q0 -43 -28 -71t-78 -35v-2z" />
    <glyph glyph-name="uni1C9F" unicode="&#x1c9f;" horiz-adv-x="618" 
d="M437 698h111v-467q0 -112 -68 -175.5t-183 -63.5t-183.5 63.5t-68.5 175.5q0 19 2 41h88v-38q0 -79 41.5 -119.5t120.5 -40.5q78 0 119.5 41t41.5 119v394l-140 -37q14 -44 14 -92q0 -61 -35.5 -96t-105.5 -35q-71 0 -108.5 35t-37.5 96v46h90v-41q0 -26 16 -40t40 -14
q50 0 50 54q0 32 -9.5 65t-18.5 50l-9 17z" />
    <glyph glyph-name="uni1CA0" unicode="&#x1ca0;" horiz-adv-x="934" 
d="M667 454q222 0 222 -228v-19q0 -80 -21 -207h-86q16 132 16 210v9q0 79 -32.5 116t-106.5 37t-106.5 -37t-32.5 -116v-105h-91v105q0 79 -32.5 116t-106.5 37t-106.5 -37t-32.5 -116v-9q0 -104 15 -210h-86q-20 108 -20 207v90q0 73 12 128.5t45 107.5t88.5 85t147 52.5
t216.5 19.5h227v-82h-227q-363 0 -418 -196q48 42 139 42q75 0 117.5 -25t67.5 -79q47 104 192 104z" />
    <glyph glyph-name="uni1CA1" unicode="&#x1ca1;" horiz-adv-x="600" 
d="M531 432q0 -30 19.5 -90.5t19.5 -103.5v-17q0 -110 -69 -169.5t-181 -59.5t-181 59.5t-69 169.5v469h90v-466q0 -150 160 -150q159 0 159 150v11q0 35 -19 96.5t-19 100.5v11h90v-11z" />
    <glyph glyph-name="uni1CA2" unicode="&#x1ca2;" horiz-adv-x="721" 
d="M554 423q122 -41 122 -179v-23q0 -111 -78 -170t-226 -59q-149 0 -225.5 60.5t-76.5 178.5v459h91v-456q0 -85 52 -122.5t159 -37.5q214 0 214 150v18q0 148 -191 139h-19v-94h-90v247q0 85 40.5 124.5t138.5 39.5q178 0 178 -147q0 -113 -89 -128zM462 616
q-46 0 -66 -17.5t-20 -64.5v-71h98q79 0 79 83q0 70 -91 70z" />
    <glyph glyph-name="uni1CA3" unicode="&#x1ca3;" horiz-adv-x="619" 
d="M379 698q94 0 132 -44.5t38 -128.5v-294q0 -112 -68.5 -175.5t-183.5 -63.5t-183 63.5t-68 175.5q0 19 2 41h88v-38q0 -78 41.5 -119t119.5 -41q79 0 120.5 40.5t41.5 119.5v278q0 53 -19.5 78.5t-69.5 25.5q-90 0 -90 -104v-102h-90v102q0 23 -0.5 34.5t-3.5 27.5
t-9.5 23.5t-18.5 13t-30 5.5q-10 0 -31 -2t-38.5 -2t-33.5 4v82q12 -3 28 -3t36.5 1.5t29.5 1.5q55 0 78.5 -19t38.5 -60q27 79 143 79z" />
    <glyph glyph-name="uni1CA4" unicode="&#x1ca4;" horiz-adv-x="841" 
d="M669 369q127 -31 127 -167q0 -109 -82 -159.5t-222 -50.5q-145 0 -223 52.5t-78 173.5v12h90v-12q0 -78 55.5 -111t155.5 -33q95 0 154.5 30.5t59.5 97.5q0 63 -39 92t-123 29h-20v82h21q160 0 160 108q0 52 -27.5 77.5t-87.5 25.5t-90.5 -28t-30.5 -93v-12
q0 -104 -62 -153t-160 -49t-160 49t-62 153v14q0 103 62 152t160 49q68 0 110 -17.5t69 -56.5q42 74 165 74q108 0 156 -46t48 -133q0 -118 -126 -148v-2zM378 486v9q0 121 -131 121t-131 -121v-9q0 -122 131 -122t131 122z" />
    <glyph glyph-name="uni1CA5" unicode="&#x1ca5;" horiz-adv-x="619" 
d="M459 690h90v-459q0 -112 -68.5 -175.5t-183.5 -63.5t-183.5 63.5t-68.5 175.5q0 4 0.5 9t1 14t0.5 18h89v-38q0 -79 41 -119.5t120 -40.5t120.5 40.5t41.5 119.5v167q0 79 -48 120.5t-128 41.5q-63 0 -98 -26.5t-35 -91.5v-15h-90v18q0 101 58 149t154 48q63 0 113.5 -22
t73.5 -54v121z" />
    <glyph glyph-name="uni1CA6" unicode="&#x1ca6;" horiz-adv-x="891" 
d="M631 698q111 0 160.5 -56.5t49.5 -172.5q0 -61 -9 -172h-88q6 126 6 165q0 80 -29.5 117t-97.5 37t-97.5 -37t-29.5 -117v-122h-91v122q0 80 -29.5 117t-97.5 37t-97.5 -37t-29.5 -117v-112q0 -74 27.5 -128t75 -83.5t102 -43t118.5 -13.5h233v-82h-233q-62 0 -119 11
t-111.5 36.5t-94.5 64.5t-64.5 99.5t-24.5 135.5v122q0 116 49.5 172.5t160.5 56.5q74 0 115 -25t65 -79q25 54 66 79t115 25z" />
    <glyph glyph-name="uni1CA7" unicode="&#x1ca7;" horiz-adv-x="619" 
d="M458 688h91v-458q0 -112 -68.5 -175.5t-183.5 -63.5q-113 0 -182.5 62.5t-69.5 158.5v17h91v-14q0 -65 42 -103.5t119 -38.5q79 0 120 40.5t41 119.5v142q-51 -76 -186 -76q-95 0 -159 57t-64 160q0 75 14 173h89q-12 -92 -12 -170q0 -138 147 -138q86 0 128.5 37.5
t42.5 94.5v175z" />
    <glyph glyph-name="uni1CA8" unicode="&#x1ca8;" horiz-adv-x="614" 
d="M379 697q89 0 127 -46t38 -132v-299q0 -110 -68.5 -169.5t-180.5 -59.5t-181 59.5t-69 169.5v30q0 101 63.5 156t159.5 55q135 0 186 -76v128q0 52 -19.5 77t-63.5 25q-84 0 -84 -86v-6h-91v6q0 43 -14 64.5t-56 21.5q-13 0 -30 -3t-28 -6l-11 -3v85q36 9 61 9
q54 0 82.5 -21t41.5 -60q25 81 137 81zM454 223v24q0 57 -42.5 94.5t-128.5 37.5q-148 0 -148 -132v-24q0 -150 160 -150q159 0 159 150z" />
    <glyph glyph-name="uni1CA9" unicode="&#x1ca9;" horiz-adv-x="614" 
d="M495 376q74 -59 74 -169q0 -113 -18 -208h-88q16 104 16 205q0 138 -148 138q-86 0 -128.5 -37.5t-42.5 -94.5v-210h-90v458q0 239 243 239q240 0 240 -175q0 -86 -58 -146zM160 348q51 76 186 76q46 0 84 -13q33 44 33 102q0 102 -150 102q-78 0 -115.5 -38t-37.5 -122
v-107z" />
    <glyph glyph-name="uni1CAA" unicode="&#x1caa;" horiz-adv-x="618" 
d="M446 397q58 -14 92.5 -51t34.5 -115v-23q0 -93 -67 -155t-185 -62q-115 0 -183 63.5t-68 175.5v459h90v-456q0 -78 41.5 -119t119.5 -41q83 0 122.5 38.5t39.5 96.5v23q0 126 -144 126h-18v82h18q62 0 92.5 18t30.5 62q0 32 -26.5 75t-26.5 76v19h90v-16
q0 -25 26.5 -65.5t26.5 -91.5q0 -45 -28.5 -77.5t-77.5 -39.5v-2z" />
    <glyph glyph-name="uni1CAB" unicode="&#x1cab;" horiz-adv-x="614" 
d="M454 689h90v-469q0 -110 -68.5 -169.5t-180.5 -59.5t-181 59.5t-69 169.5v30q0 101 63.5 156t159.5 55q135 0 186 -76v304zM454 223v24q0 57 -42.5 94.5t-128.5 37.5q-148 0 -148 -132v-24q0 -150 160 -150q159 0 159 150z" />
    <glyph glyph-name="uni1CAC" unicode="&#x1cac;" horiz-adv-x="614" 
d="M70 519q0 86 38 132t127 46q111 0 138 -81q25 81 123 81q11 0 26.5 -2.5t25.5 -4.5l9 -2v-85q-40 12 -69 12q-42 0 -56 -21.5t-14 -64.5v-6h-91v6q0 86 -84 86q-44 0 -63.5 -25t-19.5 -77v-128q51 76 186 76q96 0 159.5 -55t63.5 -156v-30q0 -110 -69 -169.5t-181 -59.5
t-180.5 59.5t-68.5 169.5v299zM160 247v-24q0 -150 159 -150q160 0 160 150v24q0 132 -148 132q-86 0 -128.5 -37.5t-42.5 -94.5z" />
    <glyph glyph-name="uni1CAD" unicode="&#x1cad;" horiz-adv-x="594" 
d="M453 361q96 -50 96 -154v-11q0 -97 -68 -151t-184 -54q-115 0 -183.5 63.5t-68.5 175.5q0 19 2 41h89v-38q0 -78 41 -119t120 -41q78 0 120 33t42 93v11q0 28 -19 54t-54 43q-41 19 -58 40.5t-17 56.5v2q-13 -18 -44 -31.5t-67 -13.5q-70 0 -112.5 33t-42.5 99
q0 138 194 138h72v58h90v-58h119v-82h-119v-120q0 -26 8.5 -38t43.5 -30zM311 490v59h-64q-56 0 -83.5 -11t-27.5 -45q0 -50 79 -50q65 0 96 47z" />
    <glyph glyph-name="uni1CAE" unicode="&#x1cae;" horiz-adv-x="614" 
d="M70 689h90v-304q51 76 187 76q95 0 158.5 -55t63.5 -156v-30q0 -110 -68.5 -169.5t-180.5 -59.5t-181 59.5t-69 169.5v469zM160 247v-24q0 -150 160 -150q159 0 159 150v24q0 132 -147 132q-87 0 -129.5 -37.5t-42.5 -94.5z" />
    <glyph glyph-name="uni1CAF" unicode="&#x1caf;" horiz-adv-x="593" 
d="M337 433q103 -9 157 -65t54 -142v-24q0 -100 -68 -155.5t-184 -55.5q-115 0 -183 63.5t-68 175.5q0 19 2 41h88v-38q0 -79 41 -119.5t120 -40.5q162 0 162 129v24q0 72 -42.5 99t-116.5 27h-52v143h-182v83h182v111h90v-111h181v-83h-181v-62z" />
    <glyph glyph-name="uni1CB0" unicode="&#x1cb0;" horiz-adv-x="618" 
d="M434 255q53 -6 83.5 -35t30.5 -77q0 -152 -252 -152q-115 0 -183 63.5t-68 175.5q0 19 2 41h88v-38q0 -160 167 -160q156 0 156 77q0 35 -24 50.5t-96 15.5h-68v82h77q46 0 70.5 8t29 16.5t4.5 21.5t-4.5 21.5t-29 16.5t-70.5 8h-77v82h68q55 0 73.5 5t18.5 24
q0 16 -16 24.5t-68 24.5q-12 3 -18 5q-90 27 -118.5 51t-28.5 64v19h90v-16q0 -13 15 -21t68 -25q107 -33 136.5 -56t29.5 -65q0 -62 -86 -74v-2q107 -13 107 -86q0 -75 -107 -87v-2z" />
    <glyph glyph-name="uni1E9E" unicode="&#x1e9e;" horiz-adv-x="604" 
d="M524 636l-117 -191q63 -7 90 -40.5t27 -102.5v-162q0 -84 -35 -113q-35 -27 -120 -27h-70v78h70q37 0 53 15t16 53v150q0 43 -15 59.5t-54 16.5h-70v63l104 167q-36 18 -94 18q-73 0 -105.5 -30t-32.5 -99v-491h-86v499q0 97 57 148t167 51q58 0 117 -18t98 -44z" />
    <glyph glyph-name="uni2000" unicode="&#x2000;" horiz-adv-x="484" 
 />
    <glyph glyph-name="uni2001" unicode="&#x2001;" horiz-adv-x="969" 
 />
    <glyph glyph-name="uni2002" unicode="&#x2002;" horiz-adv-x="484" 
 />
    <glyph glyph-name="uni2003" unicode="&#x2003;" horiz-adv-x="969" 
 />
    <glyph glyph-name="uni2004" unicode="&#x2004;" horiz-adv-x="323" 
 />
    <glyph glyph-name="uni2005" unicode="&#x2005;" horiz-adv-x="242" 
 />
    <glyph glyph-name="uni2006" unicode="&#x2006;" horiz-adv-x="161" 
 />
    <glyph glyph-name="uni2007" unicode="&#x2007;" horiz-adv-x="161" 
 />
    <glyph glyph-name="uni2008" unicode="&#x2008;" horiz-adv-x="121" 
 />
    <glyph glyph-name="uni2009" unicode="&#x2009;" horiz-adv-x="193" 
 />
    <glyph glyph-name="uni200A" unicode="&#x200a;" horiz-adv-x="53" 
 />
    <glyph glyph-name="uni2010" unicode="&#x2010;" horiz-adv-x="319" 
d="M289 253h-259v72h259v-72z" />
    <glyph glyph-name="uni2011" unicode="&#x2011;" horiz-adv-x="319" 
d="M289 253h-259v72h259v-72z" />
    <glyph glyph-name="figuredash" unicode="&#x2012;" 
d="M441 313h-382v72h382v-72z" />
    <glyph glyph-name="endash" unicode="&#x2013;" horiz-adv-x="509" 
d="M449 253h-389v72h389v-72z" />
    <glyph glyph-name="emdash" unicode="&#x2014;" horiz-adv-x="679" 
d="M659 253h-639v72h639v-72z" />
    <glyph glyph-name="quoteleft" unicode="&#x2018;" horiz-adv-x="216" 
d="M156 534h-96v176l96 83v-259z" />
    <glyph glyph-name="quoteright" unicode="&#x2019;" horiz-adv-x="222" 
d="M60 740h86v-185l-86 -74v259z" />
    <glyph glyph-name="quotesinglbase" unicode="&#x201a;" horiz-adv-x="216" 
d="M60 96h96v-176l-96 -83v259z" />
    <glyph glyph-name="quotedblleft" unicode="&#x201c;" horiz-adv-x="386" 
d="M156 534h-96v176l96 83v-259zM322 534h-96v176l96 83v-259z" />
    <glyph glyph-name="quotedblright" unicode="&#x201d;" horiz-adv-x="386" 
d="M60 740h96v-176l-96 -83v259zM226 740h96v-176l-96 -83v259z" />
    <glyph glyph-name="quotedblbase" unicode="&#x201e;" horiz-adv-x="382" 
d="M60 96h96v-176l-96 -83v259zM226 96h96v-176l-96 -83v259z" />
    <glyph glyph-name="dagger" unicode="&#x2020;" horiz-adv-x="526" 
d="M20 422v78h200v190h86v-190h200v-78h-200v-612h-86v612h-200z" />
    <glyph glyph-name="daggerdbl" unicode="&#x2021;" horiz-adv-x="526" 
d="M20 422v78h200v190h86v-190h200v-78h-200v-344h200v-78h-200v-190h-86v190h-200v78h200v344h-200z" />
    <glyph glyph-name="bullet" unicode="&#x2022;" horiz-adv-x="298" 
d="M89 281q-24 25 -24 60t24 59q25 25 60 25t59 -25q25 -24 25 -59t-25 -60q-24 -24 -59 -24t-60 24z" />
    <glyph glyph-name="ellipsis" unicode="&#x2026;" horiz-adv-x="788" 
d="M60 116h116v-116h-116v116zM336 116h116v-116h-116v116zM612 116h116v-116h-116v116z" />
    <glyph glyph-name="uni202F" unicode="&#x202f;" horiz-adv-x="193" 
 />
    <glyph glyph-name="perthousand" unicode="&#x2030;" horiz-adv-x="1045" 
d="M705 192v-43q0 -74 -37.5 -115.5t-107.5 -41.5q-68 0 -105.5 42t-37.5 115v43q0 73 38 114t105 41q69 0 107 -40.5t38 -114.5zM560 52q39 0 60.5 26t21.5 72v40q0 96 -82 96q-38 0 -58.5 -25t-20.5 -71v-40q0 -98 79 -98zM313 543v-43q0 -74 -37.5 -115.5t-107.5 -41.5
q-68 0 -105.5 42t-37.5 115v43q0 73 38 114t105 41q69 0 107 -40.5t38 -114.5zM168 403q39 0 60.5 26t21.5 72v40q0 96 -82 96q-38 0 -58.5 -25t-20.5 -71v-40q0 -98 79 -98zM1025 192v-43q0 -74 -37.5 -115.5t-107.5 -41.5q-68 0 -105.5 42t-37.5 115v43q0 73 38 114
t105 41q69 0 107 -40.5t38 -114.5zM880 52q39 0 60.5 26t21.5 72v40q0 96 -82 96q-38 0 -58.5 -25t-20.5 -71v-40q0 -98 79 -98zM125 0l386 690h83l-385 -690h-84z" />
    <glyph glyph-name="guilsinglleft" unicode="&#x2039;" horiz-adv-x="330" 
d="M262 52l-232 231l232 231v-102l-130 -129l130 -129v-102z" />
    <glyph glyph-name="guilsinglright" unicode="&#x203a;" horiz-adv-x="330" 
d="M58 412v102l232 -231l-232 -231v102l130 129z" />
    <glyph glyph-name="fraction" unicode="&#x2044;" horiz-adv-x="566" 
d="M1 0l475 690h79l-474 -690h-80z" />
    <glyph glyph-name="uni205F" unicode="&#x205f;" horiz-adv-x="242" 
 />
    <glyph glyph-name="uni2074" unicode="&#x2074;" horiz-adv-x="339" 
d="M48 478l131 212h64l-123 -205h85v56h54v-56h39v-50h-39v-61h-54v61h-157v43z" />
    <glyph glyph-name="Euro" unicode="&#x20ac;" 
d="M8 231v78h65v72h-65v78h68q24 239 207 239q179 0 198 -223h-84q-10 80 -36 112.5t-78 32.5q-58 0 -86 -37t-35 -124h142v-78h-145v-72h145v-78h-142q17 -161 121 -161q52 0 78 33.5t36 111.5h83q-12 -113 -60.5 -168t-136.5 -55t-141 61t-66 178h-68z" />
    <glyph glyph-name="uni20B4" unicode="&#x20b4;" 
d="M50 236h-46v80h493v-80h-357q-11 -25 -11 -55q0 -52 32 -81.5t94 -29.5q49 0 77 19q35 25 68 65l69 -47q-45 -59 -95 -88q-46 -27 -119 -27q-105 0 -159 58q-53 59 -53 135q0 31 7 51zM497 376h-493v80h352q14 23 14 56q0 53 -29.5 80.5t-84.5 27.5q-44 0 -72 -17.5
t-64 -64.5l-65 47q74 113 198 113q97 0 150 -50t53 -136q0 -31 -9 -56h50v-80z" />
    <glyph glyph-name="uni20B8" unicode="&#x20b8;" 
d="M7 612v78h486v-78h-486zM7 482v78h486v-78h-200v-482h-86v482h-200z" />
    <glyph glyph-name="uni20BD" unicode="&#x20bd;" 
d="M98 263h-90v78h90v349h140q119 0 185 -56.5t66 -157.5q0 -100 -66 -156.5t-185 -56.5h-54v-52h117v-78h-117v-133h-86v133h-90v78h90v52zM184 612v-271h54q165 0 165 135q0 136 -165 136h-54z" />
    <glyph glyph-name="uni20BE" unicode="&#x20be;" horiz-adv-x="734" 
d="M693 290h-88q8 42 8 83q0 89 -28 144.5t-95 79.5v-259h-74v275q-30 2 -49 2q-18 0 -50 -2v-275h-74v259q-67 -24 -94.5 -80t-27.5 -144q0 -152 93.5 -222t255.5 -70h202v-82h-609v82h137q-89 46 -129.5 116t-40.5 179q0 250 213 307v128h74v-116q32 2 50 2q17 0 49 -2
v116h74v-128q110 -28 162 -105.5t52 -183.5q0 -24 -3 -50t-5 -40z" />
    <glyph glyph-name="uni2116" unicode="&#x2116;" horiz-adv-x="948" 
d="M918 536v-45q0 -77 -39 -120t-112 -43q-71 0 -110.5 43.5t-39.5 119.5v45q0 77 39.5 119.5t110.5 42.5q72 0 111.5 -42.5t39.5 -119.5zM767 400q36 0 57.5 26t21.5 69v37q0 45 -20.5 69.5t-58.5 24.5q-37 0 -58 -25t-21 -69v-37q0 -45 20.5 -70t58.5 -25zM467 163v527h86
v-690h-84l-298 522v-522h-86v690h82zM897 213h-259v72h259v-72z" />
    <glyph glyph-name="trademark" unicode="&#x2122;" horiz-adv-x="882" 
d="M30 624v66h338v-66h-134v-351h-71v351h-133zM412 690h65l150 -260l150 260h65v-417h-71v278l-115 -198h-64l-109 198v-278h-71v417z" />
    <glyph glyph-name="arrowleft" unicode="&#x2190;" horiz-adv-x="875" 
d="M209 222l314 -314h-110l-353 353l353 353h110l-314 -314h606v-78h-606z" />
    <glyph glyph-name="arrowup" unicode="&#x2191;" horiz-adv-x="826" 
d="M413 639l353 -353v-110l-314 314v-606h-78v606l-314 -314v110z" />
    <glyph glyph-name="arrowright" unicode="&#x2192;" horiz-adv-x="875" 
d="M815 261l-353 -353h-110l314 314h-606v78h606l-314 314h110z" />
    <glyph glyph-name="arrowdown" unicode="&#x2193;" horiz-adv-x="826" 
d="M413 -117l-353 353v110l314 -314v606h78v-606l314 314v-110z" />
    <glyph glyph-name="uni2196" unicode="&#x2196;" horiz-adv-x="698" 
d="M137 367v-445l-77 78v500h500l78 -77h-445l428 -429l-55 -55z" />
    <glyph glyph-name="uni2197" unicode="&#x2197;" horiz-adv-x="698" 
d="M638 500v-500l-77 -78v445l-429 -428l-55 55l428 429h-445l78 77h500z" />
    <glyph glyph-name="uni2198" unicode="&#x2198;" horiz-adv-x="698" 
d="M561 133v445l77 -78v-500h-500l-78 77h445l-428 429l55 55z" />
    <glyph glyph-name="uni2199" unicode="&#x2199;" horiz-adv-x="698" 
d="M60 0v500l77 78v-445l429 428l55 -55l-428 -429h445l-78 -77h-500z" />
    <glyph glyph-name="uni21A3" unicode="&#x21a3;" horiz-adv-x="1252" 
d="M40 375l39 39l133 -133l-133 -133l-39 39l94 94zM168 375l39 39l94 -94h794l-55 55l39 39l133 -133l-133 -133l-39 39l55 55h-794l-94 -94l-39 39l94 94z" />
    <glyph glyph-name="partialdiff" unicode="&#x2202;" 
d="M456 474v-256q0 -106 -53.5 -166t-154.5 -60q-98 0 -153 60t-55 166v66q0 106 55 165t153 59q85 0 128 -43v9q0 72 -34.5 112t-99.5 40q-56 0 -117 -45l-44 58q31 27 75.5 43t86.5 16q103 0 158 -58.5t55 -165.5zM248 64q59 0 93.5 42.5t34.5 111.5v66q0 72 -33.5 112
t-94.5 40t-94.5 -40.5t-33.5 -111.5v-66q0 -72 33 -113t95 -41z" />
    <glyph glyph-name="product" unicode="&#x220f;" horiz-adv-x="638" 
d="M85 -190v880h468v-880h-86v802h-296v-802h-86z" />
    <glyph glyph-name="summation" unicode="&#x2211;" horiz-adv-x="519" 
d="M30 690h449v-78h-338l196 -321v-83l-196 -320h338v-78h-449v58l232 382l-232 382v58z" />
    <glyph glyph-name="minus" unicode="&#x2212;" 
d="M444 318h-389v72h389v-72z" />
    <glyph glyph-name="uni2215" unicode="&#x2215;" horiz-adv-x="485" 
d="M460 812l-336 -928h-77l336 928h77z" />
    <glyph glyph-name="radical" unicode="&#x221a;" horiz-adv-x="653" 
d="M22 422v78h171l151 -356l124 546h251v-78h-186l-143 -612h-78l-182 422h-108z" />
    <glyph glyph-name="infinity" unicode="&#x221e;" horiz-adv-x="768" 
d="M383 284q-86 -116 -177 -116q-78 0 -128 50q-48 50 -48 124t48 124q50 50 128 50q48 0 96 -30.5t87 -83.5q84 114 173 114q79 0 127 -50q49 -49 49 -124t-49 -124q-48 -50 -127 -50q-93 0 -179 116zM570 247q36 0 61 19.5t30.5 47.5t-1 55.5t-32 47t-62.5 19.5
q-30 0 -52 -13q-28 -17 -37 -28q-20 -21 -43 -51q40 -54 70 -75.5t66 -21.5zM200 247q43 0 71 22q29 23 69 74q-43 52 -73 72.5t-67 20.5q-42 0 -69.5 -26.5t-27.5 -67.5q0 -42 27.5 -68.5t69.5 -26.5z" />
    <glyph glyph-name="integral" unicode="&#x222b;" horiz-adv-x="286" 
d="M80 -10v546q0 81 37 117.5t121 36.5h23v-82h-20q-46 0 -60.5 -19.5t-14.5 -78.5v-546q0 -81 -37 -117.5t-121 -36.5h-23v82h20q46 0 60.5 19.5t14.5 78.5z" />
    <glyph glyph-name="approxequal" unicode="&#x2248;" 
d="M419 465l37 -54q-58 -52 -109 -52q-32 0 -102 26q-67 27 -95 27q-30 0 -70 -34l-37 54q55 52 108 52q33 0 102 -27q72 -26 95 -26q34 0 71 34zM419 306l37 -54q-58 -52 -109 -52q-32 0 -102 26q-67 27 -95 27q-30 0 -70 -34l-37 54q55 52 108 52q33 0 102 -27
q72 -26 95 -26q34 0 71 34z" />
    <glyph glyph-name="notequal" unicode="&#x2260;" 
d="M235 400h-180v72h211l77 178l66 -28l-65 -150h100v-72h-131l-39 -92h170v-72h-201l-74 -172l-66 28l62 144h-110v72h141z" />
    <glyph glyph-name="lessequal" unicode="&#x2264;" 
d="M366 170l-232 231l232 231v-102l-130 -129l130 -129v-102zM366 -22l-232 231v100l232 -229v-102z" />
    <glyph glyph-name="greaterequal" unicode="&#x2265;" 
d="M134 530v102l232 -231l-232 -231v102l130 129zM134 80l232 229v-100l-232 -231v102z" />
    <glyph glyph-name="uni231A" unicode="&#x231a;" horiz-adv-x="666" 
d="M446 -205h-261v235q-60 36 -92.5 96.5t-32.5 123.5t32.5 123.5t92.5 95.5v235h261v-234q103 -64 122 -180h38v-80h-38q-20 -119 -122 -180v-235zM316 460q-87 0 -149 -62t-62 -148q0 -87 62 -149t149 -62q86 0 148 62t62 149q0 86 -62 148t-148 62zM488 337l-6 -19
l-166 -93l-133 75l-6 20l20 5l119 -70l153 87z" />
    <glyph glyph-name="uni23F2" unicode="&#x23f2;" horiz-adv-x="1072" 
d="M536 -134q-198 0 -337 139t-139 337q0 197 139 336q140 140 337 140q128 0 238 -64t174 -174t64 -238q0 -197 -140 -337q-139 -139 -336 -139zM237 640q-123 -123 -123 -298q0 -174 123 -299q124 -123 299 -123t298 123q123 125 123 299q0 175 -123 298t-298 123
t-299 -123zM559 607h-46v126h46v-126zM881 544l-10 -36l-335 -192l-248 142l-10 35l36 10l222 -129l309 179zM145 318v46h126v-46h-126zM802 318v46h126v-46h-126zM559 -50h-46v126h46v-126z" />
    <glyph glyph-name="uni2550" unicode="&#x2550;" horiz-adv-x="2158" 
d="M0 387h2158v-78h-2158v78zM0 259h2158v-78h-2158v78z" />
    <glyph glyph-name="lozenge" unicode="&#x25ca;" horiz-adv-x="551" 
d="M30 296l199 291h95l197 -291l-197 -296h-95zM420 296l-145 221l-145 -221l145 -226z" />
    <glyph glyph-name="uni25FC" unicode="&#x25fc;" 
d="M0 500h500v-500h-500v500z" />
    <glyph glyph-name="uni261D" unicode="&#x261d;" horiz-adv-x="705" 
d="M645 249v-277h-370l-215 292q9 9 29 19q63 30 115 -25l71 -74v450q0 61 50 61t50 -58v-229h36q29 0 41.5 -13t12.5 -41h36q29 0 41.5 -13t12.5 -41h34q30 0 43 -12t13 -39zM584 -142q-11 11 -25.5 6.5t-19 -18t5.5 -28.5q12 -12 26 -7.5t18 18.5t-5 29zM645 -243h-370
v161h370v-161z" />
    <glyph glyph-name="uni261E" unicode="&#x261e;" horiz-adv-x="1061" 
d="M555 51h-277v370l292 215q8 -8 19 -30q31 -61 -25 -114l-74 -71h450q61 0 61 -50t-58 -50h-229v-36q0 -29 -13 -41.5t-41 -12.5v-36q0 -29 -13 -41.5t-41 -12.5v-34q0 -30 -12 -43t-39 -13zM161 111q19 19 1 38.5t-40 1.5q-19 -19 -0.5 -37.5t39.5 -2.5zM60 51v370h164
v-370h-164z" />
    <glyph glyph-name="uni26F3" unicode="&#x26f3;" horiz-adv-x="674" 
d="M60 513q0 115 81 196t196 81t196 -81t81 -196q0 -86 -82 -216l-195 -307l-197 309q-80 128 -80 214zM258 591q-32 -32 -32 -78t32 -78q35 -32 79 -32q51 0 80.5 34.5t29.5 75.5t-29.5 75.5t-80.5 34.5q-44 0 -79 -32z" />
    <glyph glyph-name="uni2709" unicode="&#x2709;" horiz-adv-x="1236" 
d="M60 518v60h1116v-60l-558 -334zM60 37v444l338 -201zM1176 37l-338 243l338 201v-444zM810 263l366 -263h-1116l366 263l192 -114z" />
    <glyph glyph-name="uniF040" unicode="&#xf040;" horiz-adv-x="3054" 
d="M1341 242h-1341v78h1341l94 94l39 -39l-94 -94l94 -94l-39 -39zM1580 375l39 39l94 -94h1341v-78h-1341l-94 -94l-39 39l94 94z" />
    <glyph glyph-name="uniF041" unicode="&#xf041;" horiz-adv-x="2855" 
d="M1312 320l59 102l68 -39l-140 -242l-67 39l35 62h-1267v78h1312zM1417 180l139 242l68 -39l-37 -63h1268v-78h-1313l-58 -101z" />
    <glyph glyph-name="uniF042" unicode="&#xf042;" horiz-adv-x="2825" 
d="M0 320h1241v-78h-1241v78zM2825 242h-1361v78h1361v-78z" />
    <glyph glyph-name="uniF043" unicode="&#xf043;" horiz-adv-x="705" 
d="M275 -28l-215 292l8 6q21 24 62 23t74 -35l71 -74v450q0 61 50 61t50 -58v-229h36q29 0 41.5 -13t12.5 -41h36q29 0 41.5 -13t12.5 -41h34q30 0 43 -12t13 -39v-277h-370zM545 -142q-19 -19 0 -39t39 -1q19 19 0 38t-39 2zM352 725h-55v158h55v-158zM83 605v55h158v-55
h-158zM409 605v55h158v-55h-158zM275 -82h370v-161h-370v161z" />
    <glyph glyph-name="uniF044" unicode="&#xf044;" horiz-adv-x="931" 
d="M177 126l3 10q10 33 41 53.5t79 11.5l201 -45v478q0 61 50 61t50 -58v-229h36q29 0 41.5 -13t12.5 -41h36q29 0 41.5 -13t12.5 -41h34q30 0 43 -12t13 -39v-277h-370zM771 -142q-19 -19 0 -39t39 -1q19 19 0 38t-39 2zM553 759v55h158v-158h-55v103h-103zM218 70v-55
h-158v158h55v-103h103zM501 -82h370v-161h-370v161z" />
    <glyph glyph-name="uniF045" unicode="&#xf045;" horiz-adv-x="903" 
d="M370 665h503v-55h-498v-202h36q29 0 41.5 -13t12.5 -41h36q29 0 41.5 -13t12.5 -41h34q30 0 43 -12t13 -39v-277h-370l-215 292q9 9 29 19q63 30 115 -25l71 -74v450q0 61 50 61q35 0 45 -30zM584 -142q-11 11 -25.5 6.5t-19 -18t5.5 -28.5q12 -12 26 -7.5t18 18.5t-5 29
zM199 525l-112 112l112 112l39 -39l-73 -73l73 -73zM645 -243h-370v161h370v-161z" />
    <glyph glyph-name="uniF046" unicode="&#xf046;" horiz-adv-x="952" 
d="M892 249v-277h-370l-215 292q9 9 29 19q63 30 115 -25l71 -74v426h-492v55h497q11 30 45 30q50 0 50 -58v-229h36q54 0 54 -54h36q54 0 54 -54h34q30 0 43 -12t13 -39zM831 -142q-11 11 -25.5 6.5t-19 -18t5.5 -28.5q12 -12 26 -7.5t18 18.5t-5 29zM704 749l112 -112
l-112 -112l-39 39l73 73l-73 73zM892 -243h-370v161h370v-161z" />
    <glyph glyph-name="uniF047" unicode="&#xf047;" horiz-adv-x="1010" 
d="M872 514l-6 -4v-634h-55v603l-137 -79l17 -31q27 -48 -19 -73l18 -32q27 -46 -20 -73l17 -30q29 -49 -17 -74l-239 -139l-185 321l145 332l5 -2q28 -11 48 -34q32 -36 14 -92l-29 -99l391 226q53 29 78 -13q25 -43 -26 -73zM295 -27q-11 11 -25.5 6.5t-19 -18t5.5 -28.5
q12 -12 26 -7.5t18 18.5t-5 29zM765 651l-39 39l112 112l112 -112l-39 -39l-73 73zM245 -159l-185 321l140 81l184 -321z" />
    <glyph glyph-name="uniF048" unicode="&#xf048;" horiz-adv-x="1145" 
d="M485 0l-240 137l186 321l360 40q3 -15 1 -35q-4 -69 -78 -87l-100 -24l332 -192v603h55v-635l4 -2q51 -30 27 -74q-25 -43 -76 -14l-198 115l-18 -30q-28 -48 -73 -21l-18 -31q-27 -46 -74 -19l-17 -30q-29 -47 -73 -22zM152 254q12 -12 27 -7t18.5 18.5t-6.5 27.5
q-11 12 -25.5 7.5t-18.5 -18t5 -28.5zM60 245l185 320l140 -80l-186 -320zM1085 -51l-112 -112l-112 112l39 39l73 -73l73 73z" />
    <glyph glyph-name="uniF400" unicode="&#xf400;" horiz-adv-x="0" 
d="M-226 567h-75l70 158h96z" />
    <glyph glyph-name="uniF401" unicode="&#xf401;" horiz-adv-x="0" 
d="M-267 747h-77l80 129h100z" />
    <glyph glyph-name="uniF406" unicode="&#xf406;" horiz-adv-x="503" 
d="M358 880h78q0 -72 -49 -112t-135 -40q-87 0 -136 40t-49 112h78q8 -74 107 -74q98 0 106 74z" />
    <glyph glyph-name="uniF407" unicode="&#xf407;" horiz-adv-x="413" 
d="M155 -69l19 94l57 -3l-13 -45q62 -17 62 -74q0 -38 -30 -60t-81 -22q-25 0 -37 3l12 52q3 -1 19 -1q47 0 47 28t-55 28z" />
    <glyph glyph-name="uniF408" unicode="&#xf408;" horiz-adv-x="503" 
d="M67 737l138 142h92l138 -142h-97l-87 91l-87 -91h-97z" />
    <glyph glyph-name="uniF409" unicode="&#xf409;" horiz-adv-x="367" 
d="M135 -64h96v-96l-96 -83v179z" />
    <glyph glyph-name="uniF40A" unicode="&#xf40a;" horiz-adv-x="161" 
d="M50 690h96v-136l-96 -83v219z" />
    <glyph glyph-name="uniF40B" unicode="&#xf40b;" horiz-adv-x="364" 
d="M227 779h-90v90h90v-90z" />
    <glyph glyph-name="uniF40C" unicode="&#xf40c;" horiz-adv-x="429" 
d="M214 702q-51 0 -80.5 31t-29.5 67.5t29.5 67.5t80.5 31q52 0 81.5 -31t29.5 -67.5t-29.5 -67.5t-81.5 -31zM157 800q0 -22 18 -34.5t39 -12.5t39 12.5t18 34.5q3 30 -27 42t-60 -0.5t-27 -41.5z" />
    <glyph glyph-name="uniF40D" unicode="&#xf40d;" horiz-adv-x="484" 
d="M300 762q-24 0 -59 13q-39 14 -56 14q-33 0 -59 -26l-47 49q44 50 106 50q18 0 58 -14q35 -13 58 -13q31 0 57 26l47 -49q-44 -50 -105 -50z" />
    <glyph glyph-name="uniF40E" unicode="&#xf40e;" horiz-adv-x="403" 
d="M236 45l26 -45q-37 -22 -50 -36q-15 -15 -15 -32q0 -28 45 -28q18 0 21 1l12 -52q-12 -3 -44 -3q-46 0 -75 20t-29 56q0 35 26 63t83 56z" />
    <glyph glyph-name="uni0410.var.accented" unicode="&#xf460;" horiz-adv-x="580" 
d="M333 747h-77l80 129h100zM154 158l-53 -158h-91l240 690h80l240 -690h-91l-53 158h-272zM399 236l-109 324l-109 -324h218z" />
    <glyph glyph-name="uni0415.var.accented" unicode="&#xf461;" horiz-adv-x="541" 
d="M322 747h-77l80 129h100zM85 0v690h416v-78h-330v-216h300v-78h-300v-240h330v-78h-416z" />
    <glyph glyph-name="uni0418.var.accented" unicode="&#xf462;" horiz-adv-x="656" 
d="M349 747h-77l80 129h100zM85 0v690h86v-519l328 519h72v-690h-86v514l-326 -514h-74z" />
    <glyph glyph-name="uni041E.var.accented" unicode="&#xf463;" horiz-adv-x="600" 
d="M550 383v-76q0 -315 -250 -315t-250 315v76q0 315 250 315t250 -315zM136 383v-76q0 -122 40 -179.5t124 -57.5t124 57.5t40 179.5v76q0 122 -40 179.5t-124 57.5t-124 -57.5t-40 -179.5zM305 747h-77l80 129h100z" />
    <glyph glyph-name="uni0423.var.accented" unicode="&#xf464;" horiz-adv-x="582" 
d="M306 263l172 427h90l-235 -574q-30 -72 -71 -98t-127 -26v79q57 0 79 13q26 14 45 63l3 8l-237 535h94zM334 747h-77l80 129h100z" />
    <glyph glyph-name="uni042B.var.accented" unicode="&#xf465;" horiz-adv-x="776" 
d="M85 0v690h86v-273h117q121 0 180 -62q58 -61 58 -147q0 -91 -60.5 -149.5t-177.5 -58.5h-203zM288 339h-117v-261h117q73 0 112.5 34.5t39.5 95.5q0 62 -39.5 96.5t-112.5 34.5zM404 747h-77l80 129h100zM605 690h86v-690h-86v690z" />
    <glyph glyph-name="uni042D.var.accented" unicode="&#xf466;" horiz-adv-x="578" 
d="M442 308h-261v78h261q-1 120 -41.5 177t-122.5 57q-68 0 -107.5 -34.5t-56.5 -110.5h-84q16 110 79.5 166.5t168.5 56.5q250 0 250 -315v-76q0 -315 -250 -315q-105 0 -168.5 56.5t-78.5 166.5h83q17 -75 56.5 -110t107.5 -35q84 0 124 57.5t40 180.5zM305 747h-77
l80 129h100z" />
    <glyph glyph-name="uni042E.var.accented" unicode="&#xf467;" horiz-adv-x="788" 
d="M738 383v-76q0 -315 -230 -315t-230 315v11h-107v-318h-86v690h86v-294h107q5 302 230 302q230 0 230 -315zM364 383v-76q0 -125 34.5 -181t109.5 -56t109.5 56t34.5 181v76q0 125 -34.5 181t-109.5 56t-109.5 -56t-34.5 -181zM343 747h-77l80 129h100z" />
    <glyph glyph-name="uni042F.var.accented" unicode="&#xf468;" horiz-adv-x="604" 
d="M286 291l-170 -291h-96l178 302q-150 36 -150 188q0 98 64 149t187 51h220v-690h-86v291h-147zM299 369h134v243h-134q-88 0 -126.5 -28.5t-38.5 -93.5q0 -64 38.5 -92.5t126.5 -28.5zM329 747h-77l80 129h100z" />
    <glyph glyph-name="uni0401.var.accented" unicode="&#xf469;" horiz-adv-x="541" 
d="M316 840h-77l80 129h100zM233 779h-90v90h90v-90zM443 779h-90v90h90v-90zM85 0v690h416v-78h-330v-216h300v-78h-300v-240h330v-78h-416z" />
    <glyph glyph-name="uni0430.var.accented" unicode="&#xf46a;" horiz-adv-x="491" 
d="M40 146q0 143 187 143h119v58q0 50 -24 68.5t-87 18.5q-52 0 -76 -10t-44 -41l-60 42q27 45 68.5 64t112.5 19q101 0 145.5 -37.5t44.5 -123.5v-347h-80v49q-20 -33 -47.5 -45t-79.5 -12q-86 0 -132.5 40.5t-46.5 113.5zM346 192v29h-119q-56 0 -81.5 -18.5t-25.5 -58.5
q0 -78 99 -78q63 0 95 24q32 26 32 102zM276 567h-75l70 158h96z" />
    <glyph glyph-name="uni0435.var.accented" unicode="&#xf46b;" horiz-adv-x="488" 
d="M367 120l62 -44q-26 -45 -67.5 -64.5t-107.5 -19.5q-100 0 -157 60.5t-57 165.5v66q0 108 51 166t147 58q98 0 148 -57.5t50 -166.5v-52h-316v-14q0 -71 33.5 -112.5t94.5 -41.5q87 0 119 56zM238 436q-110 0 -118 -134h235q-6 134 -117 134zM270 567h-75l70 158h96z" />
    <glyph glyph-name="uni0438.var.accented" unicode="&#xf46c;" horiz-adv-x="536" 
d="M294 567h-75l70 158h96zM65 500h80v-361l249 361h77v-500h-80v368l-251 -368h-75v500z" />
    <glyph glyph-name="uni043E.var.accented" unicode="&#xf46d;" horiz-adv-x="496" 
d="M456 284v-66q0 -106 -53.5 -166t-154.5 -60q-98 0 -153 60t-55 166v66q0 106 55 165t153 59q99 0 153.5 -58.5t54.5 -165.5zM248 64q59 0 93.5 42.5t34.5 111.5v66q0 72 -33.5 112t-94.5 40t-94.5 -40.5t-33.5 -111.5v-66q0 -72 33 -113t95 -41zM270 567h-75l70 158h96z
" />
    <glyph glyph-name="uni0443.var.accented" unicode="&#xf46e;" horiz-adv-x="466" 
d="M199 -12l2 7l-196 505h86l149 -388l131 388h85l-176 -516l-20 -55q-23 -57 -47 -77q-48 -42 -141 -42v78q54 0 79 19q27 18 48 81zM272 567h-75l70 158h96z" />
    <glyph glyph-name="uni044B.var.accented" unicode="&#xf46f;" horiz-adv-x="639" 
d="M65 0v500h80v-192h73q106 0 157.5 -37t51.5 -114q0 -74 -46 -115.5t-135 -41.5h-181zM215 236h-70v-164h82q110 0 110 86q0 41 -28.5 59.5t-93.5 18.5zM331 567h-75l70 158h96zM494 0v500h80v-500h-80z" />
    <glyph glyph-name="uni044D.var.accented" unicode="&#xf470;" horiz-adv-x="459" 
d="M339 218h-197v72h197q-2 69 -37.5 107.5t-98.5 38.5q-75 0 -110 -50l-63 44q56 78 173 78q102 0 159 -59t57 -165v-66q0 -105 -57.5 -165.5t-158.5 -60.5q-128 0 -173 84l62 44q29 -56 111 -56q66 0 101 41t35 113zM245 567h-75l70 158h96z" />
    <glyph glyph-name="uni044E.var.accented" unicode="&#xf471;" horiz-adv-x="665" 
d="M625 284v-66q0 -109 -48.5 -167.5t-143.5 -58.5q-92 0 -142 59t-50 167h-96v-218h-80v500h80v-210h96q2 106 51 162t141 56q93 0 142.5 -58t49.5 -166zM433 64q54 0 83 41t29 113v66q0 152 -112 152q-54 0 -83 -39.5t-29 -112.5v-66q0 -154 112 -154zM297 567h-75l70 158
h96z" />
    <glyph glyph-name="uni044F.var.accented" unicode="&#xf472;" 
d="M435 500v-500h-80v192h-105l-125 -192h-90l133 203q-115 31 -115 149q0 68 49 108t141 40h192zM265 264h90v164h-102q-110 0 -110 -78q0 -45 29 -65.5t93 -20.5zM302 567h-75l70 158h96z" />
    <glyph glyph-name="uni0451.var.accented" unicode="&#xf473;" horiz-adv-x="488" 
d="M367 120l62 -44q-26 -45 -67.5 -64.5t-107.5 -19.5q-100 0 -157 60.5t-57 165.5v66q0 108 51 166t147 58q98 0 148 -57.5t50 -166.5v-52h-316v-14q0 -71 33.5 -112.5t94.5 -41.5q87 0 119 56zM238 436q-110 0 -118 -134h235q-6 134 -117 134zM268 717h-75l70 158h96z
M175 600h-90v90h90v-90zM385 600h-90v90h90v-90z" />
    <glyph glyph-name="dollar.fitted" unicode="&#xf5f5;" horiz-adv-x="571" 
d="M318 -7v-109h-74v111q-134 14 -199 110l71 49q31 -37 60 -55.5t68 -25.5v242q-184 40 -184 197q0 76 48 125.5t136 58.5v116h74v-115q126 -10 193 -112l-67 -48q-53 69 -126 80v-235q107 -19 156 -65t49 -132q0 -73 -51 -129q-50 -56 -154 -63zM437 181q0 48 -27.5 76.5
t-91.5 43.5v-230q119 11 119 110zM146 512q0 -83 98 -113v218q-98 -18 -98 -105z" />
    <glyph glyph-name="Euro.fitted" unicode="&#xf5f6;" horiz-adv-x="615" 
d="M5 231v78h82v72h-82v78h86q30 239 246 239q105 0 168.5 -56.5t79.5 -166.5h-84q-17 76 -56.5 110.5t-107.5 34.5q-70 0 -109 -39t-50 -122h193v-78h-198v-72h198v-78h-193q11 -83 50 -122t109 -39q68 0 107.5 35t56.5 110h83q-15 -110 -78.5 -166.5t-168.5 -56.5
q-216 0 -246 239h-86z" />
    <glyph glyph-name="cent.fitted" unicode="&#xf5f7;" horiz-adv-x="444" 
d="M367 120l62 -44q-37 -71 -137 -82v-110h-74v111q-84 10 -131 69.5t-47 153.5v66q0 95 47 152.5t131 68.5v117h74v-117q91 -11 137 -75l-63 -44q-35 50 -110 50q-64 0 -100 -40.5t-36 -111.5v-66q0 -72 35 -113t101 -41q82 0 111 56z" />
    <glyph glyph-name="sterling.fitted" unicode="&#xf5f8;" horiz-adv-x="499" 
d="M462 0h-437v78h71v240h-71v78h71v10q0 292 210 292q119 0 173 -86l-74 -42q-38 50 -99 50q-66 0 -95 -49.5t-29 -164.5v-10h156v-78h-156v-240h280v-78z" />
    <glyph glyph-name="yen.fitted" unicode="&#xf5f9;" horiz-adv-x="556" 
d="M95 146v78h140v72h-140v78h97l-172 316h101l157 -300l157 300h101l-173 -316h98v-78h-140v-72h140v-78h-140v-146h-86v146h-140z" />
    <glyph glyph-name="florin.fitted" unicode="&#xf5fa;" horiz-adv-x="306" 
d="M42 422v78h64v36q0 84 34 119t118 35h23v-78h-20q-46 0 -60 -20q-12 -20 -12 -76v-16h92v-78h-92v-458q0 -82 -39 -118t-129 -36v78q61 0 73 29q12 23 12 67v438h-64z" />
    <glyph glyph-name="uni20B4.fitted" unicode="&#xf5fb;" horiz-adv-x="583" 
d="M91 236h-46v80h493v-80h-357q-11 -25 -11 -55q0 -52 32 -81.5t94 -29.5q49 0 77 19q35 25 68 65l69 -47q-45 -59 -95 -88q-47 -27 -119 -27q-105 0 -159 58q-53 59 -53 135q0 31 7 51zM538 376h-493v80h352q14 23 14 56q0 53 -29.5 80.5t-84.5 27.5q-44 0 -72 -17.5
t-64 -64.5l-65 47q74 113 198 113q97 0 150 -50t53 -136q0 -31 -9 -56h50v-80z" />
    <glyph glyph-name="uni20BD.fitted" unicode="&#xf5fc;" 
d="M98 263h-90v78h90v349h140q119 0 185 -56.5t66 -157.5q0 -100 -66 -156.5t-185 -56.5h-54v-52h117v-78h-117v-133h-86v133h-90v78h90v52zM184 612v-271h54q165 0 165 135q0 136 -165 136h-54z" />
    <glyph glyph-name="uni20B8.fitted" unicode="&#xf5fd;" horiz-adv-x="516" 
d="M5 612v78h506v-78h-506zM5 482v78h506v-78h-210v-482h-86v482h-210z" />
    <glyph glyph-name="currency.fitted" unicode="&#xf5fe;" horiz-adv-x="531" 
d="M66 366q0 60 32 110l-68 68l57 57l67 -68q52 34 111 34q61 0 110 -34l69 69l57 -57l-69 -69q34 -49 34 -110q0 -59 -34 -111l69 -68l-57 -57l-69 68q-50 -32 -110 -32q-61 0 -110 33l-68 -68l-57 57l68 68q-32 47 -32 110zM184 449q-32 -35 -32 -83t32 -83q33 -34 81 -34
t81 34q34 34 34 83t-34 83q-33 35 -81 35t-81 -35z" />
    <glyph glyph-name="uniF639" unicode="&#xf639;" horiz-adv-x="516" 
d="M456 499v-308q0 -89 -57 -144t-141 -55t-141 55t-57 145v306q0 90 57 145t141 55t141 -55t57 -144zM370 191v308q0 53 -32 87t-80 34q-49 0 -81 -34t-32 -87v-308q0 -53 32 -87t81 -34q48 0 80 34t32 87z" />
    <glyph glyph-name="uniF63A" unicode="&#xf63a;" horiz-adv-x="497" 
d="M148 78h292v-78h-405v72l243 287q78 91 78 154q0 48 -32 78t-80 30q-49 0 -80.5 -29t-32.5 -79h-85q0 82 56.5 133.5t141.5 51.5q86 0 141 -52q57 -51 57 -137q0 -33 -17 -75q-17 -40 -33 -59q-23 -30 -45 -56l-9 -11z" />
    <glyph glyph-name="uniF63B" unicode="&#xf63b;" horiz-adv-x="489" 
d="M223 317h-43v78h43q130 0 130 122q0 43 -32 73.5t-80 30.5q-47 0 -79 -28t-34 -71h-84q0 79 58 127q58 49 139 49q87 0 142 -52q56 -51 56 -131q0 -51 -27.5 -92.5t-75.5 -64.5q113 -47 113 -170q0 -80 -56 -139q-55 -57 -145 -57q-94 0 -151 49t-62 132h84
q7 -48 40.5 -75.5t88.5 -27.5q49 0 82 33.5t33 82.5q0 63 -36 97t-104 34z" />
    <glyph glyph-name="uniF63C" unicode="&#xf63c;" 
d="M20 175l243 515h85l-228 -500h199v203h86v-203h63v-78h-63v-112h-86v112h-299v63z" />
    <glyph glyph-name="uniF63D" unicode="&#xf63d;" horiz-adv-x="485" 
d="M243 382q-62 0 -98 -51h-79v359h350v-86h-267v-181q40 45 110 45q92 0 139 -65t47 -188q0 -105 -53 -164t-149 -59q-79 0 -134 49q-54 48 -59 121h84q10 -44 38.5 -68t70.5 -24q116 0 116 145q0 167 -116 167z" />
    <glyph glyph-name="uniF63E" unicode="&#xf63e;" horiz-adv-x="478" 
d="M229 690h96l-133 -304q23 14 65 14q81 0 131 -57q50 -59 50 -145q0 -90 -56 -149q-56 -57 -143 -57t-143 56t-56 146q0 48 47 160zM239 326q-54 0 -84.5 -40t-30.5 -88t30.5 -88t84.5 -40q44 0 73.5 26.5t36 64t-0.5 75t-36.5 64t-72.5 26.5z" />
    <glyph glyph-name="uniF63F" unicode="&#xf63f;" horiz-adv-x="428" 
d="M98 612v-121h-78v199h388v-78l-219 -612h-91l220 612h-220z" />
    <glyph glyph-name="uniF640" unicode="&#xf640;" horiz-adv-x="496" 
d="M40 194q0 54 30 99.5t75 64.5q-43 21 -69 62t-26 88q0 85 58 137q59 53 140 53q82 0 140 -54t58 -136q0 -47 -26.5 -88t-69.5 -62q46 -18 76 -64t30 -100q0 -89 -62 -146q-62 -56 -146 -56t-146 56q-62 57 -62 146zM126 194q0 -51 35 -88q35 -36 87 -36t86 36
q36 38 36 88q0 52 -37.5 87.5t-84.5 35.5t-85 -35q-37 -34 -37 -88zM248 394q46 0 79 33q33 35 33 81t-33 79t-79 33q-47 0 -80 -32.5t-33 -79.5q0 -46 33 -81q33 -33 80 -33z" />
    <glyph glyph-name="uniF641" unicode="&#xf641;" horiz-adv-x="478" 
d="M249 0h-96l133 304q-23 -14 -65 -14q-82 0 -131 57q-50 59 -50 145q0 94 55 149q55 57 144 57q87 0 143 -56t56 -146q0 -48 -47 -160zM239 364q54 0 84.5 40t30.5 88t-30.5 88t-84.5 40q-44 0 -73.5 -26.5t-36 -64t0.5 -75t36.5 -64t72.5 -26.5z" />
    <glyph glyph-name="uniF6BA" unicode="&#xf6ba;" horiz-adv-x="319" 
d="M289 309h-259v72h259v-72z" />
    <glyph glyph-name="uniF6BB" unicode="&#xf6bb;" horiz-adv-x="509" 
d="M449 309h-389v72h389v-72z" />
    <glyph glyph-name="uniF6BC" unicode="&#xf6bc;" horiz-adv-x="679" 
d="M659 309h-639v72h639v-72z" />
    <glyph glyph-name="uniF6C3" unicode="&#xf6c3;" horiz-adv-x="312" 
d="M108 -64h96v-96l-96 -83v179z" />
    <glyph glyph-name="uniF6C9" unicode="&#xf6c9;" horiz-adv-x="440" 
d="M207 747h-77l80 129h100z" />
    <glyph glyph-name="uniF6CA" unicode="&#xf6ca;" horiz-adv-x="503" 
d="M435 879l-138 -142h-92l-138 142h97l87 -91l87 91h97z" />
    <glyph glyph-name="uniF6CB" unicode="&#xf6cb;" horiz-adv-x="469" 
d="M174 779h-90v90h90v-90zM384 779h-90v90h90v-90z" />
    <glyph glyph-name="uniF6CE" unicode="&#xf6ce;" horiz-adv-x="370" 
d="M95 876h100l80 -129h-77z" />
    <glyph glyph-name="uniF6CF" unicode="&#xf6cf;" horiz-adv-x="550" 
d="M172 747h-77l80 129h100zM342 747h-77l90 129h100z" />
    <glyph glyph-name="uniF6D0" unicode="&#xf6d0;" horiz-adv-x="474" 
d="M391 768h-309v72h309v-72z" />
    <glyph glyph-name="uniF6D1" unicode="&#xf6d1;" horiz-adv-x="493" 
d="M340 879h81q0 -142 -174 -142q-175 0 -175 142h82q0 -80 93 -80t93 80z" />
    <glyph glyph-name="uniF6D4" unicode="&#xf6d4;" horiz-adv-x="405" 
d="M267 690h71q0 -118 -136 -118t-136 118h71q0 -62 65 -62t65 62z" />
    <glyph glyph-name="uniF6DC" unicode="&#xf6dc;" horiz-adv-x="310" 
d="M139 690h86v-690h-86v591l-99 -71v94z" />
    <glyph glyph-name="uniFEFF" unicode="&#xfeff;" horiz-adv-x="0" 
 />
    <glyph glyph-name="uniF4D3" unicode="&#x1f4d3;" horiz-adv-x="752" 
d="M60 60v815q0 25 18 43t43 18h510q25 0 43 -18t18 -43v-815q0 -25 -18 -42.5t-43 -17.5h-510q-25 0 -43 17.5t-18 42.5zM376 25q26 0 36 20.5t0 41t-36 20.5t-36.5 -20.5t0 -41t36.5 -20.5zM393 879zM648 132v691h-544v-691h544z" />
    <glyph glyph-name="uniF4F1" unicode="&#x1f4f1;" horiz-adv-x="552" 
d="M60 60v715q0 25 18 43t43 18h310q25 0 43 -18t18 -43v-715q0 -25 -18 -42.5t-43 -17.5h-310q-25 0 -43 17.5t-18 42.5zM276 25q26 0 36 20.5t0 41t-36 20.5t-36.5 -20.5t0 -41t36.5 -20.5zM323 790h-94q-11 0 -11 -12t11 -12h94q11 0 11 11q0 13 -11 13zM448 132v591
h-344v-591h344z" />
    <glyph glyph-name="NULL" horiz-adv-x="0" 
 />
    <glyph glyph-name="CR" horiz-adv-x="333" 
 />
    <glyph glyph-name="CR.001" horiz-adv-x="333" 
 />
    <glyph glyph-name="uni2197.ss02" horiz-adv-x="667" 
d="M607 500v-500h-78v367l-414 -414l-55 55l414 414h-367v78h500z" />
    <glyph glyph-name="uni2199.ss02" horiz-adv-x="667" 
d="M60 0v500h78v-367l414 414l55 -55l-414 -414h367v-78h-500z" />
    <glyph glyph-name="a.ss01" horiz-adv-x="521" 
d="M40 218v66q0 106 53 165t146.5 59.5t136.5 -58.5v50h80v-500h-80v44q-40 -52 -136 -52q-95 0 -147.5 60.5t-52.5 165.5zM248 64q62 0 95 39t33 108v73q0 71 -33.5 111.5t-94.5 40.5t-94.5 -40t-33.5 -112v-66q0 -69 34.5 -111.5t93.5 -42.5z" />
    <glyph glyph-name="uni2198.ss02" horiz-adv-x="667" 
d="M529 133v367h78v-500h-500v78h367l-414 414l55 55z" />
    <glyph glyph-name="uni0434.ss01" horiz-adv-x="521" 
d="M456 474v-256q0 -106 -53.5 -166t-154.5 -60q-98 0 -153 60t-55 166v66q0 106 55 165t153 59q85 0 128 -43v9q0 72 -34.5 112t-99.5 40q-56 0 -117 -45l-44 58q31 27 75.5 43t86.5 16q103 0 158 -58.5t55 -165.5zM248 64q59 0 93.5 42.5t34.5 111.5v66q0 72 -33.5 112
t-94.5 40t-94.5 -40.5t-33.5 -111.5v-66q0 -72 33 -113t95 -41z" />
    <glyph glyph-name="uni0438.ss01" horiz-adv-x="526" 
d="M381 500h80v-500h-80v49q-21 -31 -51 -44t-83 -13q-88 0 -135 49t-47 147v312h80v-311q0 -123 114 -123q54 0 88 34t34 88v312z" />
    <glyph glyph-name="uni0439.ss01" horiz-adv-x="526" 
d="M381 500h80v-500h-80v49q-21 -31 -51 -44t-83 -13q-88 0 -135 49t-47 147v312h80v-311q0 -123 114 -123q54 0 88 34t34 88v312zM328 690h71q0 -118 -136 -118t-136 118h71q0 -62 65 -62t65 62z" />
    <glyph glyph-name="uni043F.ss01" horiz-adv-x="526" 
d="M145 0h-80v500h80v-49q21 31 51 44t83 13q88 0 135 -49t47 -147v-312h-80v311q0 123 -114 123q-54 0 -88 -34t-34 -88v-312z" />
    <glyph glyph-name="uni0442.ss01" horiz-adv-x="802" 
d="M145 0h-80v500h80v-49q37 57 124 57q103 0 146 -79q51 79 150 79q82 0 127 -50.5t45 -145.5v-312h-80v311q0 123 -104 123q-48 0 -80 -34.5t-32 -87.5v-312h-80v311q0 123 -104 123q-48 0 -80 -35t-32 -87v-312z" />
    <glyph glyph-name="arrowdown.ss02" horiz-adv-x="826" 
d="M413 -107l-353 353l55 55l259 -259v586h78v-586l259 259l55 -55z" />
    <glyph glyph-name="uni2196.ss02" horiz-adv-x="667" 
d="M138 367v-367h-78v500h500v-78h-367l414 -414l-55 -55z" />
    <glyph glyph-name="uni261E.ss02" horiz-adv-x="1061" 
d="M555 51h-277v370l292 215q8 -8 19 -30q31 -61 -25 -114l-74 -71h450q61 0 61 -50t-58 -50h-229v-36q0 -29 -13 -41.5t-41 -12.5v-36q0 -29 -13 -41.5t-41 -12.5v-34q0 -30 -12 -43t-39 -13zM60 51v370h164v-370h-164zM106 396h-20v-319h20v319zM152 396h-20v-222h20v222z
M178 77h20v319h-20v-319zM152 112h-20v-35h20v35z" />
    <glyph glyph-name="arrowup.ss02" horiz-adv-x="826" 
d="M413 629l353 -353l-55 -55l-259 259v-586h-78v586l-259 -259l-55 55z" />
    <glyph glyph-name="arrowright.ss02" horiz-adv-x="855" 
d="M795 261l-353 -353l-55 55l259 259h-586v78h586l-259 259l55 55z" />
    <glyph glyph-name="acircumflex.ss01" horiz-adv-x="521" 
d="M40 218v66q0 106 53 165t146.5 59.5t136.5 -58.5v50h80v-500h-80v44q-40 -52 -136 -52q-95 0 -147.5 60.5t-52.5 165.5zM248 64q62 0 95 39t33 108v73q0 71 -33.5 111.5t-94.5 40.5t-94.5 -40t-33.5 -112v-66q0 -69 34.5 -111.5t93.5 -42.5zM104 558l108 142h92l108 -142
h-82l-72 97l-72 -97h-82z" />
    <glyph glyph-name="atilde.ss01" horiz-adv-x="521" 
d="M40 218v66q0 106 53 165t146.5 59.5t136.5 -58.5v50h80v-500h-80v44q-40 -52 -136 -52q-95 0 -147.5 60.5t-52.5 165.5zM248 64q62 0 95 39t33 108v73q0 71 -33.5 111.5t-94.5 40.5t-94.5 -40t-33.5 -112v-66q0 -69 34.5 -111.5t93.5 -42.5zM315 589q-24 0 -59 13
q-39 14 -56 14q-33 0 -59 -26l-47 44q44 50 106 50q18 0 57 -14q35 -13 59 -13q31 0 57 26l47 -44q-44 -50 -105 -50z" />
    <glyph glyph-name="adieresis.ss01" horiz-adv-x="521" 
d="M40 218v66q0 106 53 165t146.5 59.5t136.5 -58.5v50h80v-500h-80v44q-40 -52 -136 -52q-95 0 -147.5 60.5t-52.5 165.5zM248 64q62 0 95 39t33 108v73q0 71 -33.5 111.5t-94.5 40.5t-94.5 -40t-33.5 -112v-66q0 -69 34.5 -111.5t93.5 -42.5zM198 600h-90v90h90v-90z
M408 600h-90v90h90v-90z" />
    <glyph glyph-name="aring.ss01" horiz-adv-x="521" 
d="M40 218v66q0 106 53 165t146.5 59.5t136.5 -58.5v50h80v-500h-80v44q-40 -52 -136 -52q-95 0 -147.5 60.5t-52.5 165.5zM248 64q62 0 95 39t33 108v73q0 71 -33.5 111.5t-94.5 40.5t-94.5 -40t-33.5 -112v-66q0 -69 34.5 -111.5t93.5 -42.5zM145 646q0 46 32 78t77 32
q46 0 78 -32t32 -78q0 -45 -32 -77t-78 -32q-45 0 -77 32t-32 77zM197 646q0 -23 17 -40t40 -17q24 0 40.5 17t16.5 40q0 24 -16.5 40.5t-40.5 16.5q-23 0 -40 -16.5t-17 -40.5z" />
    <glyph glyph-name="egrave.ss01" horiz-adv-x="488" 
d="M367 120l62 -44q-26 -45 -67.5 -64.5t-107.5 -19.5q-100 0 -157 60.5t-57 165.5v66q0 106 55 165t153 59q88 0 138 -39.5t50 -106.5t-49.5 -105.5t-138.5 -38.5h-128q0 -71 33.5 -112.5t94.5 -41.5q87 0 119 56zM248 436q-60 0 -93.5 -39.5t-34.5 -108.5h128
q108 0 108 74t-108 74zM153 725h96l70 -158h-75z" />
    <glyph glyph-name="eacute.ss01" horiz-adv-x="488" 
d="M367 120l62 -44q-26 -45 -67.5 -64.5t-107.5 -19.5q-100 0 -157 60.5t-57 165.5v66q0 106 55 165t153 59q88 0 138 -39.5t50 -106.5t-49.5 -105.5t-138.5 -38.5h-128q0 -71 33.5 -112.5t94.5 -41.5q87 0 119 56zM248 436q-60 0 -93.5 -39.5t-34.5 -108.5h128
q108 0 108 74t-108 74zM274 567h-75l70 158h96z" />
    <glyph glyph-name="ecircumflex.ss01" horiz-adv-x="488" 
d="M367 120l62 -44q-26 -45 -67.5 -64.5t-107.5 -19.5q-100 0 -157 60.5t-57 165.5v66q0 106 55 165t153 59q88 0 138 -39.5t50 -106.5t-49.5 -105.5t-138.5 -38.5h-128q0 -71 33.5 -112.5t94.5 -41.5q87 0 119 56zM248 436q-60 0 -93.5 -39.5t-34.5 -108.5h128
q108 0 108 74t-108 74zM99 558l108 142h92l108 -142h-82l-72 97l-72 -97h-82z" />
    <glyph glyph-name="edieresis.ss01" horiz-adv-x="488" 
d="M367 120l62 -44q-26 -45 -67.5 -64.5t-107.5 -19.5q-100 0 -157 60.5t-57 165.5v66q0 106 55 165t153 59q88 0 138 -39.5t50 -106.5t-49.5 -105.5t-138.5 -38.5h-128q0 -71 33.5 -112.5t94.5 -41.5q87 0 119 56zM248 436q-60 0 -93.5 -39.5t-34.5 -108.5h128
q108 0 108 74t-108 74zM188 600h-90v90h90v-90zM398 600h-90v90h90v-90z" />
    <glyph glyph-name="uni0430.ss01" horiz-adv-x="521" 
d="M40 218v66q0 106 53 165t146.5 59.5t136.5 -58.5v50h80v-500h-80v44q-40 -52 -136 -52q-95 0 -147.5 60.5t-52.5 165.5zM248 64q62 0 95 39t33 108v73q0 71 -33.5 111.5t-94.5 40.5t-94.5 -40t-33.5 -112v-66q0 -69 34.5 -111.5t93.5 -42.5z" />
    <glyph glyph-name="uni0435.ss01" horiz-adv-x="488" 
d="M367 120l62 -44q-26 -45 -67.5 -64.5t-107.5 -19.5q-100 0 -157 60.5t-57 165.5v66q0 106 55 165t153 59q88 0 138 -39.5t50 -106.5t-49.5 -105.5t-138.5 -38.5h-128q0 -71 33.5 -112.5t94.5 -41.5q87 0 119 56zM248 436q-60 0 -93.5 -39.5t-34.5 -108.5h128
q108 0 108 74t-108 74z" />
    <glyph glyph-name="uni0451.ss01" horiz-adv-x="488" 
d="M367 120l62 -44q-26 -45 -67.5 -64.5t-107.5 -19.5q-100 0 -157 60.5t-57 165.5v66q0 106 55 165t153 59q88 0 138 -39.5t50 -106.5t-49.5 -105.5t-138.5 -38.5h-128q0 -71 33.5 -112.5t94.5 -41.5q87 0 119 56zM248 436q-60 0 -93.5 -39.5t-34.5 -108.5h128
q108 0 108 74t-108 74zM188 600h-90v90h90v-90zM398 600h-90v90h90v-90z" />
    <glyph glyph-name="aogonek.ss01" horiz-adv-x="521" 
d="M376 500h80v-500q-37 -22 -50 -36q-15 -15 -15 -32q0 -28 45 -28q1 0 4 0.5t8 1t9 0.5l12 -53q-12 -3 -44 -3q-46 0 -75 20t-29 56q0 50 55 87v31q-40 -52 -136 -52q-95 0 -147.5 60.5t-52.5 165.5v66q0 106 53 165t146.5 59.5t136.5 -58.5v50zM248 64q62 0 95 39t33 108
v73q0 71 -33.5 111.5t-94.5 40.5t-94.5 -40t-33.5 -112v-66q0 -69 34.5 -111.5t93.5 -42.5z" />
    <glyph glyph-name="abreve.ss01" horiz-adv-x="521" 
d="M40 218v66q0 106 53 165t146.5 59.5t136.5 -58.5v50h80v-500h-80v44q-40 -52 -136 -52q-95 0 -147.5 60.5t-52.5 165.5zM248 64q62 0 95 39t33 108v73q0 71 -33.5 111.5t-94.5 40.5t-94.5 -40t-33.5 -112v-66q0 -69 34.5 -111.5t93.5 -42.5zM336 690h65
q-4 -118 -136 -118t-136 118h66q6 -60 70 -60q65 0 71 60z" />
    <glyph glyph-name="eogonek.ss01" horiz-adv-x="488" 
d="M367 120l62 -44q-34 -61 -102 -76q-37 -22 -49 -36q-15 -15 -15 -32q0 -28 45 -28q1 0 4 0.5t8 1t9 0.5l12 -53q-12 -3 -44 -3q-46 0 -75 20t-29 56q0 38 30 68q-86 9 -134.5 68.5t-48.5 155.5v66q0 106 55 165t153 59q88 0 138 -39.5t50 -106.5t-49.5 -105.5
t-138.5 -38.5h-128q0 -71 33.5 -112.5t94.5 -41.5q87 0 119 56zM248 436q-60 0 -93.5 -39.5t-34.5 -108.5h128q108 0 108 74t-108 74z" />
    <glyph glyph-name="ecaron.ss01" horiz-adv-x="488" 
d="M367 120l62 -44q-26 -45 -67.5 -64.5t-107.5 -19.5q-100 0 -157 60.5t-57 165.5v66q0 106 55 165t153 59q88 0 138 -39.5t50 -106.5t-49.5 -105.5t-138.5 -38.5h-128q0 -71 33.5 -112.5t94.5 -41.5q87 0 119 56zM248 436q-60 0 -93.5 -39.5t-34.5 -108.5h128
q108 0 108 74t-108 74zM402 700l-108 -142h-92l-108 142h82l72 -97l72 97h82z" />
    <glyph glyph-name="amacron.ss01" horiz-adv-x="521" 
d="M40 218v66q0 106 53 165t146.5 59.5t136.5 -58.5v50h80v-500h-80v44q-40 -52 -136 -52q-95 0 -147.5 60.5t-52.5 165.5zM248 64q62 0 95 39t33 108v73q0 71 -33.5 111.5t-94.5 40.5t-94.5 -40t-33.5 -112v-66q0 -69 34.5 -111.5t93.5 -42.5zM391 600h-269v72h269v-72z
" />
    <glyph glyph-name="emacron.ss01" horiz-adv-x="488" 
d="M367 120l62 -44q-26 -45 -67.5 -64.5t-107.5 -19.5q-100 0 -157 60.5t-57 165.5v66q0 106 55 165t153 59q88 0 138 -39.5t50 -106.5t-49.5 -105.5t-138.5 -38.5h-128q0 -71 33.5 -112.5t94.5 -41.5q87 0 119 56zM248 436q-60 0 -93.5 -39.5t-34.5 -108.5h128
q108 0 108 74t-108 74zM383 600h-269v72h269v-72z" />
    <glyph glyph-name="edotaccent.ss01" horiz-adv-x="488" 
d="M367 120l62 -44q-26 -45 -67.5 -64.5t-107.5 -19.5q-100 0 -157 60.5t-57 165.5v66q0 106 55 165t153 59q88 0 138 -39.5t50 -106.5t-49.5 -105.5t-138.5 -38.5h-128q0 -71 33.5 -112.5t94.5 -41.5q87 0 119 56zM248 436q-60 0 -93.5 -39.5t-34.5 -108.5h128
q108 0 108 74t-108 74zM299 600h-90v90h90v-90z" />
    <glyph glyph-name="uni0430.var.accented.ss01" horiz-adv-x="521" 
d="M40 218v66q0 106 53 165t146.5 59.5t136.5 -58.5v50h80v-500h-80v44q-40 -52 -136 -52q-95 0 -147.5 60.5t-52.5 165.5zM248 64q62 0 95 39t33 108v73q0 71 -33.5 111.5t-94.5 40.5t-94.5 -40t-33.5 -112v-66q0 -69 34.5 -111.5t93.5 -42.5zM284 567h-75l70 158h96z" />
    <glyph glyph-name="uni0435.var.accented.ss01" horiz-adv-x="488" 
d="M367 120l62 -44q-26 -45 -67.5 -64.5t-107.5 -19.5q-100 0 -157 60.5t-57 165.5v66q0 106 55 165t153 59q88 0 138 -39.5t50 -106.5t-49.5 -105.5t-138.5 -38.5h-128q0 -71 33.5 -112.5t94.5 -41.5q87 0 119 56zM248 436q-60 0 -93.5 -39.5t-34.5 -108.5h128
q108 0 108 74t-108 74zM274 567h-75l70 158h96z" />
    <glyph glyph-name="uni0438.var.accented.ss01" horiz-adv-x="526" 
d="M381 500h80v-500h-80v49q-21 -31 -51 -44t-83 -13q-88 0 -135 49t-47 147v312h80v-311q0 -123 114 -123q54 0 88 34t34 88v312zM294 567h-75l70 158h96z" />
    <glyph glyph-name="uni0451.var.accented.ss01" horiz-adv-x="488" 
d="M367 120l62 -44q-26 -45 -67.5 -64.5t-107.5 -19.5q-100 0 -157 60.5t-57 165.5v66q0 106 55 165t153 59q88 0 138 -39.5t50 -106.5t-49.5 -105.5t-138.5 -38.5h-128q0 -71 33.5 -112.5t94.5 -41.5q87 0 119 56zM248 436q-60 0 -93.5 -39.5t-34.5 -108.5h128
q108 0 108 74t-108 74zM268 717h-75l70 158h96zM175 600h-90v90h90v-90zM385 600h-90v90h90v-90z" />
    <glyph glyph-name="uni04E3.ss01" horiz-adv-x="526" 
d="M381 500h80v-500h-80v49q-21 -31 -51 -44t-83 -13q-88 0 -135 49t-47 147v312h80v-311q0 -123 114 -123q54 0 88 34t34 88v312zM398 600h-269v72h269v-72z" />
    <glyph glyph-name="uni045F.ss01" horiz-adv-x="526" 
d="M381 500h80v-500h-80v49q-31 -48 -94 -55v-111h-80v112q-142 22 -142 193v312h80v-311q0 -123 114 -123q54 0 88 34t34 88v312z" />
    <glyph glyph-name="arrowleft.ss02" horiz-adv-x="855" 
d="M209 222l259 -259l-55 -55l-353 353l353 353l55 -55l-259 -259h586v-78h-586z" />
    <glyph glyph-name="aacute.ss01" horiz-adv-x="521" 
d="M40 218v66q0 106 53 165t146.5 59.5t136.5 -58.5v50h80v-500h-80v44q-40 -52 -136 -52q-95 0 -147.5 60.5t-52.5 165.5zM248 64q62 0 95 39t33 108v73q0 71 -33.5 111.5t-94.5 40.5t-94.5 -40t-33.5 -112v-66q0 -69 34.5 -111.5t93.5 -42.5zM284 567h-75l70 158h96z" />
    <glyph glyph-name="agrave.ss01" horiz-adv-x="521" 
d="M40 218v66q0 106 53 165t146.5 59.5t136.5 -58.5v50h80v-500h-80v44q-40 -52 -136 -52q-95 0 -147.5 60.5t-52.5 165.5zM248 64q62 0 95 39t33 108v73q0 71 -33.5 111.5t-94.5 40.5t-94.5 -40t-33.5 -112v-66q0 -69 34.5 -111.5t93.5 -42.5zM153 725h96l70 -158h-75z" />
    <glyph glyph-name="uni0449.ss01" horiz-adv-x="807" 
d="M637 500h80v-428h70v-189h-80v117h-70v49q-41 -57 -118 -57q-103 0 -144 77q-50 -77 -142 -77q-81 0 -124.5 50t-43.5 146v312h80v-311q0 -123 100 -123q48 0 77 34t29 88v312h80v-311q0 -123 100 -123q48 0 77 34t29 88v312z" />
    <glyph glyph-name="uni0448.ss01" horiz-adv-x="782" 
d="M351 188v312h80v-311q0 -123 100 -123q48 0 77 34t29 88v312h80v-500h-80v49q-41 -57 -118 -57q-103 0 -144 77q-50 -77 -142 -77q-81 0 -124.5 50t-43.5 146v312h80v-311q0 -123 100 -123q48 0 77 34t29 88z" />
    <glyph glyph-name="uni0446.ss01" horiz-adv-x="551" 
d="M381 500h80v-428h70v-189h-80v117h-70v49q-21 -31 -51 -44t-83 -13q-88 0 -135 49t-47 147v312h80v-311q0 -123 114 -123q54 0 88 34t34 88v312z" />
    <glyph glyph-name="e.ss01" horiz-adv-x="488" 
d="M367 120l62 -44q-26 -45 -67.5 -64.5t-107.5 -19.5q-100 0 -157 60.5t-57 165.5v66q0 106 55 165t153 59q88 0 138 -39.5t50 -106.5t-49.5 -105.5t-138.5 -38.5h-128q0 -71 33.5 -112.5t94.5 -41.5q87 0 119 56zM248 436q-60 0 -93.5 -39.5t-34.5 -108.5h128
q108 0 108 74t-108 74z" />
    </font>
</defs>
</svg>
